<svg xmlns="http://www.w3.org/2000/svg" xmlns:xlink="http://www.w3.org/1999/xlink" viewBox="0 0 1080 1080"><defs><linearGradient id="linear-gradient" x1="662.51" y1="486.25" x2="662.51" y2="789.51" gradientUnits="userSpaceOnUse"><stop offset="0" stop-color="#fff"/><stop offset="1" stop-color="#d1d7ed"/></linearGradient><linearGradient id="linear-gradient-2" x1="404.88" y1="486.25" x2="404.88" y2="789.51" xlink:href="#linear-gradient"/></defs><g style="isolation:isolate"><g id="Layer_2" data-name="Layer 2"><g id="Layer_1-2" data-name="Layer 1"><rect width="1080" height="1080" fill="none"/><path d="M1010.85,757.12c-19.08,43.14-45.55,77.33-77.2,104.15-36.55,31-80,52.11-127,65.87C653.68,971.89,463.3,938.39,352,910.6c-22.57-5.64-41.9-11-57-15.51a245.81,245.81,0,0,1-71.42-34.31,4,4,0,0,1-.34-.23C74,755.89,10.64,606.32,60.25,464.65c.77-2.21,147-452.12,493.86-303.53,152.26,65.23,96.25,120.66,265,190,78.91,32.41,183.32,90.23,212,226.62C1041.31,626.4,1037.87,696.05,1010.85,757.12Z" fill="#ffebcf"/><path d="M559.68,457.61A31.8,31.8,0,0,1,548,454.34l1-1.95a29.62,29.62,0,0,0,10.87,3Zm12-.93-.52-2.12a32.12,32.12,0,0,0,10.34-4.62l1.24,1.81A34.43,34.43,0,0,1,571.72,456.68Zm-33.48-9.42a51.53,51.53,0,0,1-7.44-9.43l1.86-1.16a49.12,49.12,0,0,0,7.12,9Zm53.2-3.95L589.68,442a38.18,38.18,0,0,0,5.23-10.14l2.07.71A40,40,0,0,1,591.44,443.31Zm-170.17-4.38-2.18-.15A102.71,102.71,0,0,1,420.57,427l2.15.4A98.41,98.41,0,0,0,421.27,438.93Zm104.18-11.81a80,80,0,0,1-3.52-11.4l2.13-.49a76.06,76.06,0,0,0,3.43,11.09Zm73.86-6.33-2.18-.14c.07-1,.11-2.1.11-3.16a51.27,51.27,0,0,0-.7-8.33l2.15-.36a52.36,52.36,0,0,1,.73,8.69C599.42,418.59,599.39,419.71,599.31,420.79ZM425.48,416l-2.09-.64a107.7,107.7,0,0,1,4.12-11.17l2,.87A106.39,106.39,0,0,0,425.48,416ZM520.07,404c-.42-4-.72-8-.89-11.82l2.18-.1c.17,3.81.47,7.74.88,11.69ZM593.45,398a64,64,0,0,0-5.17-10.34l1.86-1.15a67.64,67.64,0,0,1,5.35,10.7Zm-158.72-3.37-1.9-1.08a110,110,0,0,1,6.47-10l1.77,1.28A108.36,108.36,0,0,0,434.73,394.67Zm356.53-.05-2.08-.66A86.34,86.34,0,0,0,792,382.67l2.15.37A87.19,87.19,0,0,1,791.26,394.62Zm-270-14.28-2.19,0c.1-4,.36-8,.76-11.83l2.17.22C521.6,372.46,521.35,376.39,521.25,380.34Zm60.16-2a85.88,85.88,0,0,0-8.17-8.26l1.45-1.64a89.22,89.22,0,0,1,8.38,8.48Zm-132.95-2.49-1.62-1.48a107.73,107.73,0,0,1,8.54-8.3l1.43,1.66A101.44,101.44,0,0,0,448.46,375.86Zm346.78-4.7-2.19,0c0-.43,0-.87,0-1.3a71.39,71.39,0,0,0-.74-10.25l2.16-.32a73.07,73.07,0,0,1,.76,10.57C795.25,370.26,795.25,370.71,795.24,371.16Zm-231.17-8.25c-2.71-1.89-5.6-3.72-8.6-5.43l-1.3-.73,1.05-1.92,1.33.75c3.06,1.75,6,3.61,8.77,5.53Zm-98-2.26-1.22-1.81a95.36,95.36,0,0,1,10.28-6l1,1.95A92.58,92.58,0,0,0,466.06,360.65Zm57.64-3.51-2.14-.42c.76-3.93,1.72-7.81,2.83-11.53l2.09.63C525.39,349.46,524.46,353.27,523.7,357.14Zm19.95-5.39a85.63,85.63,0,0,0-11-3.58l.52-2.12a88.7,88.7,0,0,1,11.35,3.67Zm-56.84-1.51-.71-2.06a85.39,85.39,0,0,1,11.5-3.1l.42,2.15A82.91,82.91,0,0,0,486.81,350.24Zm302.91-1.95a75.31,75.31,0,0,0-4.36-10.74l2-1a78.52,78.52,0,0,1,4.49,11.05Zm-268.57-2.12a78.85,78.85,0,0,0-11.6-.32l-.1-2.18a80.44,80.44,0,0,1,11.92.32Zm9.25-11.32-2-.85a103.38,103.38,0,0,1,5.23-10.67l1.9,1.07A103.21,103.21,0,0,0,530.4,334.85Zm249.05-7.3a96,96,0,0,0-7.18-9.15L773.9,317a95,95,0,0,1,7.35,9.37ZM541.83,314.63l-1.76-1.3a99.08,99.08,0,0,1,7.61-9.14l1.59,1.49A96.44,96.44,0,0,0,541.83,314.63Zm222.23-4.51c-2.81-2.55-5.84-5.05-9-7.42l1.31-1.75c3.22,2.41,6.31,4.95,9.17,7.55ZM557.73,297.69l-1.4-1.68a107.66,107.66,0,0,1,9.52-7.12l1.21,1.82A108.37,108.37,0,0,0,557.73,297.69ZM745.4,296.1c-3.24-2-6.66-4-10.15-5.82l1-1.93c3.54,1.86,7,3.84,10.3,5.9Zm-20.71-10.88c-3.52-1.55-7.18-3-10.87-4.36l.74-2.05c3.74,1.36,7.44,2.84,11,4.4Zm-147.59-.44-1-1.94c3.44-1.8,7.07-3.48,10.78-5l.82,2C584.05,281.36,580.48,283,577.1,284.78Zm125.58-7.58c-3.71-1.1-7.53-2.11-11.34-3l.5-2.13c3.85.89,7.71,1.91,11.46,3ZM598.7,276l-.65-2.09c3.71-1.14,7.57-2.16,11.48-3L610,273C606.15,273.82,602.35,274.83,598.7,276Zm81.15-4.05c-3.85-.66-7.75-1.21-11.61-1.64l.24-2.17c3.9.43,7.85,1,11.74,1.65Zm-58.34-1-.31-2.16c3.85-.56,7.81-1,11.78-1.3l.17,2.18C629.23,269.88,625.31,270.31,621.51,270.86Zm35-1.55c-3.91-.2-7.84-.28-11.71-.23l0-2.19c3.9,0,7.88,0,11.84.24ZM786.87,406l-2-.91c-.8,1.75-1.66,3.52-2.57,5.26l1.94,1C785.19,409.55,786.06,407.75,786.87,406Z" fill="#6095ab"/><polygon points="785.93 420.83 779.05 414.3 756.46 439.17 785.93 420.83" fill="#f7597f"/><polygon points="776.34 411.02 771.14 406.06 756.46 439.17 776.34 411.02" fill="#f7597f"/><polygon points="776.34 411.02 756.46 439.17 779.05 414.3 783.66 412.98 776.34 411.02" fill="#cc154a"/><path d="M500.45,685s-5.69-6.07-6.38-9-.9-6.8,2.44-7.6,4.74,3.06,5.37,5.74S500.45,685,500.45,685Z" fill="#a0a7bf"/><path d="M514.61,670.19a.53.53,0,1,0-.65-.83c-6,4.66-12.94,11-19,27.63a.53.53,0,0,0,.32.68.57.57,0,0,0,.18,0,.54.54,0,0,0,.5-.34,82.69,82.69,0,0,1,4.38-10.1h.07A51.29,51.29,0,0,1,512,685.77a.51.51,0,0,0,.51-.47.17.17,0,0,0,0-.07.53.53,0,0,0-.55-.51A55.23,55.23,0,0,0,501,686,47.48,47.48,0,0,1,514.61,670.19Z" fill="#1e2124"/><path d="M518.27,666.85c-3-3.24-6.76-1-9.19,1.3-1.84,1.71-3.59,7.49-4.34,10.21a49.27,49.27,0,0,1,9.22-9,.53.53,0,1,1,.65.83,47.8,47.8,0,0,0-9.5,9.45c2.26-.51,9.14-2.18,11-3.92C518.37,673.62,521.29,670.09,518.27,666.85Z" fill="#454852"/><path d="M518.28,684.51a4.11,4.11,0,0,0-3.1-3.55,11.91,11.91,0,0,0-4.85-.23c-2.47.3-7.15,3.49-9.06,4.85L501,686c.56-.13,1.4-.31,2.44-.49,2.21-1.48,5.12-3.24,6.79-3.57l.23,0a10.68,10.68,0,0,1,4.34.19,2.9,2.9,0,0,1,2.27,2.55,2.74,2.74,0,0,1-1.66,2.9,11.48,11.48,0,0,1-4.11,1.14c-1.68.2-5.84-1-8.57-2-1.18.22-1.95.42-2.21.49h0c.33.12,8.05,3,10.9,2.65.52-.07,1-.15,1.47-.24a10.6,10.6,0,0,0,3.07-1A3.93,3.93,0,0,0,518.28,684.51Z" fill="#36383d"/><path d="M483.73,428.17A14,14,0,0,1,498,413.93a14.23,14.23,0,0,1,6.54,1.59,14.24,14.24,0,0,1,25.71,4.64,11.48,11.48,0,0,1,6.61-2.08c6.39,0,11.57,4.15,11.57,12.46s-4.48,11.25-9.95,11.25c0,0-43.32.4-44.63,0C488.71,441.55,483.73,436.47,483.73,428.17Z" fill="#fff"/><path d="M603.32,405.58c0-5.74-4.7-14.9-15.11-14.9s-16,5-17,9.37a7.93,7.93,0,0,0-4.57-1.44c-4.42,0-8,2.87-8,8.61s3.1,7.78,6.88,7.78c0,0,29.95.28,30.86,0C599.88,414.84,603.32,411.33,603.32,405.58Z" fill="#fff"/><path d="M418.3,397.38H365.59a.57.57,0,0,1,0-1.13H418.3a.57.57,0,1,1,0,1.13Z" fill="#ebf0fa"/><path d="M842.68,495.67H790a.57.57,0,0,1-.57-.57.58.58,0,0,1,.57-.57h52.71a.57.57,0,0,1,.56.57A.56.56,0,0,1,842.68,495.67Z" fill="#ebf0fa"/><path d="M343.53,426.35H324.11a.57.57,0,0,1,0-1.14h19.42a.57.57,0,0,1,0,1.14Z" fill="#ebf0fa"/><path d="M824.93,474.65H805.51a.57.57,0,0,1,0-1.14h19.42a.57.57,0,1,1,0,1.14Z" fill="#ebf0fa"/><path d="M697.74,417.69H678.32a.57.57,0,1,1,0-1.13h19.42a.57.57,0,0,1,0,1.13Z" fill="#ebf0fa"/><path d="M369.23,426.35h-6.39a.57.57,0,0,1,0-1.14h6.39a.57.57,0,0,1,0,1.14Z" fill="#ebf0fa"/><path d="M264.93,591.25h-6.4a.57.57,0,0,1,0-1.14h6.4a.57.57,0,0,1,0,1.14Z" fill="#ebf0fa"/><path d="M761.08,418.26h-6.4a.56.56,0,0,1-.56-.57.57.57,0,0,1,.56-.57h6.4a.57.57,0,0,1,.56.57A.56.56,0,0,1,761.08,418.26Z" fill="#ebf0fa"/><path d="M745.58,418.26h-6.39a.56.56,0,0,1-.57-.57.57.57,0,0,1,.57-.57h6.39a.58.58,0,0,1,.57.57A.57.57,0,0,1,745.58,418.26Z" fill="#ebf0fa"/><rect x="570.64" y="459.24" width="183.74" height="342.88" rx="15" fill="#5a5e6b"/><rect x="575.77" y="464.38" width="173.48" height="332.6" rx="11.64" fill="url(#linear-gradient)"/><path d="M734.74,475.7h-7.89a.71.71,0,0,1-.71-.71.7.7,0,0,1,.71-.7h7.89a.7.7,0,0,1,.71.7A.71.71,0,0,1,734.74,475.7Zm.71,2.9a.71.71,0,0,0-.71-.71h-7.89a.71.71,0,0,0,0,1.42h7.89A.71.71,0,0,0,735.45,478.6Zm0,3.38a.7.7,0,0,0-.71-.7h-7.89a.7.7,0,0,0-.71.7.71.71,0,0,0,.71.71h7.89A.71.71,0,0,0,735.45,482Z" fill="#d1d7ed"/><rect x="313.01" y="459.24" width="183.74" height="342.88" rx="15" fill="#5a5e6b"/><rect x="318.14" y="464.38" width="173.48" height="332.6" rx="11.64" fill="url(#linear-gradient-2)"/><path d="M477.19,475.7h-7.9a.7.7,0,0,1-.7-.71.7.7,0,0,1,.7-.7h7.9a.7.7,0,0,1,.7.7A.7.7,0,0,1,477.19,475.7Zm.7,2.9a.7.7,0,0,0-.7-.71h-7.9a.71.71,0,0,0,0,1.42h7.9A.7.7,0,0,0,477.89,478.6Zm0,3.38a.7.7,0,0,0-.7-.7h-7.9a.7.7,0,0,0-.7.7.7.7,0,0,0,.7.71h7.9A.7.7,0,0,0,477.89,482Z" fill="#d1d7ed"/><rect x="358.77" y="662.82" width="61.08" height="11.51" rx="5.75" fill="#717687"/><path d="M440.65,662.82H414.09a5.76,5.76,0,1,1,0,11.51h26.56a5.76,5.76,0,0,0,0-11.51Z" fill="#fff"/><path d="M440.65,634.94H364.52a3.11,3.11,0,0,1-3.09-3.1h0a3.11,3.11,0,0,1,3.09-3.1h76.13a3.12,3.12,0,0,1,3.1,3.1h0A3.12,3.12,0,0,1,440.65,634.94Z" fill="#a0a7bf"/><rect x="618.12" y="662.82" width="87.63" height="11.51" rx="5.75" fill="#fff"/><rect x="618.12" y="662.82" width="88.26" height="11.51" rx="5.75" fill="#39b54a"/><path d="M700,634.94H623.87a3.11,3.11,0,0,1-3.09-3.1h0a3.11,3.11,0,0,1,3.09-3.1H700a3.12,3.12,0,0,1,3.1,3.1h0A3.12,3.12,0,0,1,700,634.94Z" fill="#a0a7bf"/><circle cx="628.1" cy="586.7" r="37.62" transform="translate(-17.64 1153.93) rotate(-84.35)" fill="#a0a7bf" opacity="0.35" style="mix-blend-mode:multiply"/><path d="M495.34,580.91a37.64,37.64,0,0,1-24.79-36.2,37.63,37.63,0,0,0,25.2,43.71V581Z" fill="#a0a7bf" opacity="0.35" style="mix-blend-mode:multiply"/><circle cx="508.16" cy="545.54" r="37.62" fill="#fdd25a"/><circle cx="508.16" cy="545.54" r="30.54" fill="#f9bc38"/><circle cx="660.83" cy="619.84" r="4.5" fill="#fdd25a"/><path d="M660.83,624.34a4.49,4.49,0,0,1-4.5-4.5c0-.09,0-.18,0-.28a4.31,4.31,0,0,0-.5,2,4.42,4.42,0,0,0,8.79.64A4.49,4.49,0,0,1,660.83,624.34Z" fill="#a0a7bf" opacity="0.35" style="mix-blend-mode:multiply"/><circle cx="589.33" cy="554.34" r="4.5" fill="#fdd25a"/><path d="M589.33,558.84a4.49,4.49,0,0,1-4.5-4.5c0-.09,0-.18,0-.28a4.31,4.31,0,0,0-.5,2,4.42,4.42,0,0,0,8.79.64A4.49,4.49,0,0,1,589.33,558.84Z" fill="#a0a7bf" opacity="0.35" style="mix-blend-mode:multiply"/><circle cx="574.33" cy="549.34" r="4.5" fill="#fdd25a"/><path d="M574.33,553.84a4.49,4.49,0,0,1-4.5-4.5c0-.09,0-.18,0-.28a4.31,4.31,0,0,0-.5,2,4.42,4.42,0,0,0,8.79.64A4.49,4.49,0,0,1,574.33,553.84Z" fill="#a0a7bf" opacity="0.35" style="mix-blend-mode:multiply"/><circle cx="459.33" cy="563.34" r="4.5" fill="#fdd25a"/><path d="M459.33,567.84a4.49,4.49,0,0,1-4.5-4.5c0-.09,0-.18,0-.28a4.31,4.31,0,0,0-.5,2,4.42,4.42,0,0,0,8.79.64A4.49,4.49,0,0,1,459.33,567.84Z" fill="#a0a7bf" opacity="0.35" style="mix-blend-mode:multiply"/><circle cx="444.33" cy="571.34" r="4.5" fill="#fdd25a"/><path d="M444.33,575.84a4.49,4.49,0,0,1-4.5-4.5c0-.09,0-.18,0-.28a4.31,4.31,0,0,0-.5,2,4.42,4.42,0,0,0,8.79.64A4.49,4.49,0,0,1,444.33,575.84Z" fill="#a0a7bf" opacity="0.35" style="mix-blend-mode:multiply"/><circle cx="433.33" cy="582.34" r="4.5" fill="#fdd25a"/><path d="M433.33,586.84a4.49,4.49,0,0,1-4.5-4.5c0-.09,0-.18,0-.28a4.31,4.31,0,0,0-.5,2,4.42,4.42,0,0,0,8.79.64A4.49,4.49,0,0,1,433.33,586.84Z" fill="#a0a7bf" opacity="0.35" style="mix-blend-mode:multiply"/><circle cx="558.33" cy="545.34" r="4.5" fill="#fdd25a"/><path d="M558.33,549.84a4.49,4.49,0,0,1-4.5-4.5c0-.09,0-.18,0-.28a4.31,4.31,0,0,0-.5,2,4.42,4.42,0,0,0,8.79.64A4.49,4.49,0,0,1,558.33,549.84Z" fill="#a0a7bf" opacity="0.35" style="mix-blend-mode:multiply"/><circle cx="630.16" cy="580.54" r="37.62" fill="#fdd25a"/><circle cx="630.16" cy="580.54" r="30.54" fill="#f9bc38"/><path d="M438.43,634.94a37.62,37.62,0,1,0-71.69,0Z" fill="#fdd25a"/><path d="M374.26,634.94h56.66a30.54,30.54,0,1,0-58.46-6.39A30.66,30.66,0,0,0,374.26,634.94Z" fill="#f9bc38"/><path d="M366,632.28c.21.9.45,1.78.73,2.66h71.69c.28-.88.51-1.77.73-2.66Z" fill="#f1a419" opacity="0.5" style="mix-blend-mode:multiply"/><polygon points="650.38 649.91 653.51 646.56 659.97 651.91 671.86 639.66 674.98 642.81 659.72 658.19 650.38 649.91" fill="#f7597f"/><rect x="470.24" y="792.22" width="72.58" height="14.31" rx="4.61" fill="#f9bc38"/><rect x="479.95" y="792.22" width="32.71" height="14.31" fill="#fdd25a"/><path d="M538.65,792.22h-2.47v14.31h2.47a4.19,4.19,0,0,0,4.17-4.18v-6A4.19,4.19,0,0,0,538.65,792.22Z" fill="#fdd25a"/><path d="M470.57,804a4.18,4.18,0,0,0,3.85,2.56h64.23a4.18,4.18,0,0,0,3.84-2.56Z" fill="#f1a419"/><rect x="472.01" y="778.05" width="72.58" height="14.31" rx="4.61" fill="#f9bc38"/><rect x="481.72" y="778.05" width="32.71" height="14.31" fill="#fdd25a"/><path d="M540.42,778.05H538v14.32h2.47a4.18,4.18,0,0,0,4.17-4.18v-6A4.18,4.18,0,0,0,540.42,778.05Z" fill="#fdd25a"/><path d="M472.34,789.81a4.19,4.19,0,0,0,3.85,2.56h64.23a4.18,4.18,0,0,0,3.84-2.56Z" fill="#f1a419"/><rect x="468.47" y="763.89" width="72.58" height="14.31" rx="4.61" fill="#f9bc38"/><rect x="478.18" y="763.89" width="32.71" height="14.31" fill="#fdd25a"/><path d="M536.88,763.89h-2.47V778.2h2.47a4.18,4.18,0,0,0,4.17-4.17v-6A4.19,4.19,0,0,0,536.88,763.89Z" fill="#fdd25a"/><path d="M468.8,775.65a4.17,4.17,0,0,0,3.84,2.55h64.24a4.17,4.17,0,0,0,3.84-2.55Z" fill="#f1a419"/><rect x="470.24" y="749.73" width="72.58" height="14.31" rx="4.61" fill="#f9bc38"/><rect x="479.95" y="749.73" width="32.71" height="14.31" fill="#fdd25a"/><path d="M538.65,749.73h-2.47V764h2.47a4.19,4.19,0,0,0,4.17-4.17v-6A4.19,4.19,0,0,0,538.65,749.73Z" fill="#fdd25a"/><path d="M470.57,761.49a4.19,4.19,0,0,0,3.85,2.55h64.23a4.19,4.19,0,0,0,3.84-2.55Z" fill="#f1a419"/><rect x="472.9" y="735.57" width="72.58" height="14.31" rx="4.61" fill="#f9bc38"/><rect x="482.61" y="735.57" width="32.71" height="14.31" fill="#fdd25a"/><path d="M541.3,735.57h-2.47v14.31h2.47a4.19,4.19,0,0,0,4.18-4.17v-6A4.19,4.19,0,0,0,541.3,735.57Z" fill="#fdd25a"/><path d="M473.23,747.32a4.18,4.18,0,0,0,3.84,2.56H541.3a4.19,4.19,0,0,0,3.85-2.56Z" fill="#f1a419"/><rect x="472.01" y="721.4" width="72.58" height="14.31" rx="4.61" fill="#f9bc38"/><rect x="481.72" y="721.4" width="32.71" height="14.31" fill="#fdd25a"/><path d="M540.42,721.4H538v14.32h2.47a4.18,4.18,0,0,0,4.17-4.18v-6A4.18,4.18,0,0,0,540.42,721.4Z" fill="#fdd25a"/><path d="M472.34,733.16a4.19,4.19,0,0,0,3.85,2.56h64.23a4.18,4.18,0,0,0,3.84-2.56Z" fill="#f1a419"/><rect x="478.21" y="707.24" width="72.58" height="14.31" rx="4.61" fill="#f9bc38"/><rect x="487.92" y="707.24" width="32.71" height="14.31" fill="#fdd25a"/><path d="M546.62,707.24h-2.48v14.31h2.48a4.18,4.18,0,0,0,4.17-4.17v-6A4.19,4.19,0,0,0,546.62,707.24Z" fill="#fdd25a"/><path d="M478.54,719a4.17,4.17,0,0,0,3.84,2.55h64.24a4.17,4.17,0,0,0,3.84-2.55Z" fill="#f1a419"/><rect x="469.36" y="693.08" width="72.58" height="14.31" rx="4.61" fill="#f9bc38"/><rect x="479.07" y="693.08" width="32.71" height="14.31" fill="#fdd25a"/><path d="M537.76,693.08h-2.47v14.31h2.47a4.19,4.19,0,0,0,4.18-4.17v-6A4.19,4.19,0,0,0,537.76,693.08Z" fill="#fdd25a"/><path d="M469.68,704.84a4.21,4.21,0,0,0,3.85,2.55h64.23a4.2,4.2,0,0,0,3.85-2.55Z" fill="#f1a419"/><rect x="565.84" y="790.45" width="72.58" height="14.31" rx="4.61" fill="#f9bc38"/><rect x="575.55" y="790.45" width="32.71" height="14.31" fill="#fdd25a"/><path d="M634.25,790.45h-2.48v14.31h2.48a4.19,4.19,0,0,0,4.17-4.18v-6A4.19,4.19,0,0,0,634.25,790.45Z" fill="#fdd25a"/><path d="M566.17,802.2a4.18,4.18,0,0,0,3.84,2.56h64.24a4.18,4.18,0,0,0,3.84-2.56Z" fill="#f1a419"/><rect x="565.84" y="776.28" width="72.58" height="14.31" rx="4.61" fill="#f9bc38"/><rect x="575.55" y="776.28" width="32.71" height="14.31" fill="#fdd25a"/><path d="M634.25,776.28h-2.48V790.6h2.48a4.19,4.19,0,0,0,4.17-4.18v-6A4.19,4.19,0,0,0,634.25,776.28Z" fill="#fdd25a"/><path d="M566.17,788A4.18,4.18,0,0,0,570,790.6h64.24a4.18,4.18,0,0,0,3.84-2.56Z" fill="#f1a419"/><rect x="564.07" y="762.12" width="72.58" height="14.31" rx="4.61" fill="#f9bc38"/><rect x="573.78" y="762.12" width="32.71" height="14.31" fill="#fdd25a"/><path d="M632.48,762.12H630v14.31h2.48a4.18,4.18,0,0,0,4.17-4.17v-6A4.19,4.19,0,0,0,632.48,762.12Z" fill="#fdd25a"/><path d="M564.4,773.88a4.17,4.17,0,0,0,3.84,2.55h64.24a4.17,4.17,0,0,0,3.84-2.55Z" fill="#f1a419"/><rect x="568.49" y="747.96" width="72.58" height="14.31" rx="4.61" fill="#f9bc38"/><rect x="578.2" y="747.96" width="32.71" height="14.31" fill="#fdd25a"/><path d="M636.9,748h-2.47v14.31h2.47a4.19,4.19,0,0,0,4.18-4.17v-6A4.19,4.19,0,0,0,636.9,748Z" fill="#fdd25a"/><path d="M568.82,759.72a4.2,4.2,0,0,0,3.85,2.55H636.9a4.21,4.21,0,0,0,3.85-2.55Z" fill="#f1a419"/><rect x="564.07" y="733.8" width="72.58" height="14.31" rx="4.61" fill="#f9bc38"/><rect x="573.78" y="733.8" width="32.71" height="14.31" fill="#fdd25a"/><path d="M632.48,733.8H630v14.31h2.48a4.19,4.19,0,0,0,4.17-4.18v-6A4.19,4.19,0,0,0,632.48,733.8Z" fill="#fdd25a"/><path d="M564.4,745.55a4.18,4.18,0,0,0,3.84,2.56h64.24a4.18,4.18,0,0,0,3.84-2.56Z" fill="#f1a419"/><rect x="564.07" y="719.63" width="72.58" height="14.31" rx="4.61" fill="#f9bc38"/><rect x="573.78" y="719.63" width="32.71" height="14.31" fill="#fdd25a"/><path d="M632.48,719.63H630V734h2.48a4.19,4.19,0,0,0,4.17-4.18v-6A4.19,4.19,0,0,0,632.48,719.63Z" fill="#fdd25a"/><path d="M564.4,731.39a4.18,4.18,0,0,0,3.84,2.56h64.24a4.18,4.18,0,0,0,3.84-2.56Z" fill="#f1a419"/><rect x="518" y="793.99" width="72.58" height="14.31" rx="4.61" fill="#ffc445"/><rect x="527.71" y="793.99" width="32.71" height="14.31" fill="#ffd86b"/><path d="M586.41,794h-2.47V808.3h2.47a4.19,4.19,0,0,0,4.17-4.17v-6A4.19,4.19,0,0,0,586.41,794Z" fill="#ffde82"/><path d="M518.33,805.74a4.18,4.18,0,0,0,3.84,2.56h64.24a4.18,4.18,0,0,0,3.84-2.56Z" fill="#f1a419"/><rect x="517.12" y="779.82" width="72.58" height="14.31" rx="4.61" fill="#ffc445"/><rect x="526.83" y="779.82" width="32.71" height="14.31" fill="#ffd86b"/><path d="M585.52,779.82h-2.47v14.32h2.47A4.19,4.19,0,0,0,589.7,790v-6A4.19,4.19,0,0,0,585.52,779.82Z" fill="#ffde82"/><path d="M517.44,791.58a4.2,4.2,0,0,0,3.85,2.56h64.23a4.19,4.19,0,0,0,3.85-2.56Z" fill="#f1a419"/><rect x="517.12" y="765.66" width="72.58" height="14.31" rx="4.61" fill="#ffc445"/><rect x="526.83" y="765.66" width="32.71" height="14.31" fill="#ffd86b"/><path d="M585.52,765.66h-2.47V780h2.47a4.18,4.18,0,0,0,4.18-4.17v-6A4.19,4.19,0,0,0,585.52,765.66Z" fill="#ffde82"/><path d="M517.44,777.42a4.19,4.19,0,0,0,3.85,2.55h64.23a4.18,4.18,0,0,0,3.85-2.55Z" fill="#f1a419"/><rect x="518" y="751.5" width="72.58" height="14.31" rx="4.61" fill="#ffc445"/><rect x="527.71" y="751.5" width="32.71" height="14.31" fill="#ffd86b"/><path d="M586.41,751.5h-2.47v14.31h2.47a4.19,4.19,0,0,0,4.17-4.17v-6A4.19,4.19,0,0,0,586.41,751.5Z" fill="#ffde82"/><path d="M518.33,763.26a4.19,4.19,0,0,0,3.84,2.55h64.24a4.19,4.19,0,0,0,3.84-2.55Z" fill="#f1a419"/><path d="M513.33,793.35v0a4.65,4.65,0,0,0,.34.62l.13.18a3.21,3.21,0,0,0,.34.41l.14.15a4,4,0,0,0,.56.46h0a4.21,4.21,0,0,0,.63.34l.2.08a4.48,4.48,0,0,0,.52.16l.21.05a4.5,4.5,0,0,0,.63.07,4.18,4.18,0,0,0-3.16,4v6a4,4,0,0,0,.05.6h4.81a4,4,0,0,1-.42-.76h.18a4.44,4.44,0,0,1-.51-2V798.6a4.61,4.61,0,0,1,3.51-4.46h-.22a4.2,4.2,0,0,1-3.85-2.56h.18a4.56,4.56,0,0,1-.5-2.05v-5.09a4.62,4.62,0,0,1,3.63-4.51,4.18,4.18,0,0,1-3.31-2.51h.18a4.61,4.61,0,0,1-.5-2.06v-5.09a4.6,4.6,0,0,1,4.17-4.56,4.2,4.2,0,0,1-3-2.45h.18a4.52,4.52,0,0,1-.51-2.06v-5.09a4.59,4.59,0,0,1,1-2.84h-1a4.19,4.19,0,0,0-4.17,4.17v6a4.19,4.19,0,0,0,.33,1.62h0a3.83,3.83,0,0,0,.34.63l.12.17a4.62,4.62,0,0,0,.34.41l.15.16a5,5,0,0,0,.55.46h0a4.77,4.77,0,0,0,.63.34l.2.08.48.16a4.18,4.18,0,0,0-4,4.16v6a4.18,4.18,0,0,0,.32,1.62h0v0a5.36,5.36,0,0,0,.34.62l.13.18a2.57,2.57,0,0,0,.34.4,1.07,1.07,0,0,0,.14.16,4.89,4.89,0,0,0,.56.46h0a3.5,3.5,0,0,0,.63.35l.2.08.52.16.21,0h0a4.18,4.18,0,0,0-3.43,4.1v6a4.14,4.14,0,0,0,.32,1.62Z" fill="#f1a419" opacity="0.5" style="mix-blend-mode:multiply"/><g id="layer6"><path d="M887.49,482.69c-.8-1.05-1.56-2.13-2.29-3.24-1.18-1.79-2.26-3.6-3.26-5.42l.87,6.18q.72,6,.87,7.84c0,.19,0,.46.06.78h.17c.77,0,2.1,1.09,4,3.34l2,2.77q5.21,9.07,6.85,11a48,48,0,0,0,7,7.62c-.19-.67-.37-1.33-.58-2-1.95-5.7-3-8.9-3.16-9.63-.4-1.24-1-4-1.86-8.24l-10.45-10.74Z" fill="#5a868f"/><path d="M935.76,503.39q-8.94,3.36-22.14,1.93A34.17,34.17,0,0,1,899,500.47a71.87,71.87,0,0,1,.76,9.06,25.52,25.52,0,0,0,4.8,4.57q6.86,4.57,15.71.39A82.46,82.46,0,0,0,944.55,499,39,39,0,0,1,935.76,503.39Z" fill="#c0a587"/><path d="M943,500.65a55.32,55.32,0,0,1-9.42,4.11,37.63,37.63,0,0,1-8.43,1.74,31.58,31.58,0,0,1-4.16.11l-7.59-.61-5.58-2.19q4.11,2.69,5.4,4.89,1.38,2,1.24,7.21a.62.62,0,0,0,.74.47,31.89,31.89,0,0,0,6.21-1.68,47.62,47.62,0,0,0,6.14-3,42.89,42.89,0,0,0,3.7-2.38l5.72-4.44,6-4.26" opacity="0.07"/><path d="M882.38,477.18l.43,3q.72,6,.87,7.84c0,.19,0,.46.06.78h.17c.77,0,2.1,1.09,4,3.34l2,2.77q3.84,6.69,5.74,9.46a85.61,85.61,0,0,0-1.56-10.8Z" fill="#414141"/></g><g id="layer7"><path d="M949.87,493.43A52.46,52.46,0,0,0,957,481.27c.47-1,1-2.16,1.45-3.46,0-.52.09-1,.13-1.52a84.13,84.13,0,0,0-.12-11.25,38.56,38.56,0,0,0-.9-6.17q-2.39-9.08-3.74-16.9l-.64-2.44q-7.28-12.39-16.52-17.38-21.2-10.42-39.6-4.52-8.52,2.42-13.27,7.15a35.69,35.69,0,0,0-5.09,6.76,83.38,83.38,0,0,0-.45,9.7q0,4.89,1.13,15.85c.15,1.38.28,2.47.41,3.28q1.14,7.49,1.92,12.19l1,7.55a46.86,46.86,0,0,0,13.5,18.52,33.35,33.35,0,0,0,17.33,6.69q13.2,1.43,22.14-1.93a38.28,38.28,0,0,0,8.91-4.47A65.52,65.52,0,0,0,949.87,493.43Z" fill="#f9ca94"/><path d="M905.68,466.1a9,9,0,0,1-.31,2.55c-.09.37-.21.75-.34,1.14-.6,1.5-.95,2.46-1.06,2.87a12.79,12.79,0,0,0-.47,1.83,4.85,4.85,0,0,0,.12,2.65,2.26,2.26,0,0,0,.81,1.08,6.1,6.1,0,0,0,1.8.78,10.05,10.05,0,0,0,4.87.45l-1.83-.56-.64-.23a12.53,12.53,0,0,1-1.81-.87,9.64,9.64,0,0,1-1.67-1.19,2.75,2.75,0,0,1-.76-1,2.16,2.16,0,0,1-.11-1.2,16.3,16.3,0,0,0,1.44-4.63,15.32,15.32,0,0,0,.12-2.46c0-.21,0-.42,0-.63l-.15-.55" fill="#caae8f"/><path d="M957.59,458.87q-2.39-9.08-3.74-16.9l-.64-2.44q-7.28-12.39-16.52-17.38a65,65,0,0,0-17.28-5.86l1.41.9q9.48,5.44,12.06,7.21a48.13,48.13,0,0,1,5.25,3.86q8.29,7.26,11.66,14.78c.2-.85-.1-2.72-.88-5.62q2,3.56,6.67,19.07,1.17,3.3,3.14,14.25c0-1.62-.12-3.51-.23-5.7A38.56,38.56,0,0,0,957.59,458.87Z" fill="#414141"/></g><path d="M1005.45,552.19a121.86,121.86,0,0,0-1.61-18.37,95.28,95.28,0,0,0-3.94-15c-1.42-3.61-2.71-6.9-3.88-9.9l-.13-6.95a73.94,73.94,0,0,0-.9-9.29,42.18,42.18,0,0,0-1.3-5.22q-5.6-15.09-8.08-24.19l-2-8.09-4.51-21.26c-.59-2.55-1.12-4.64-1.6-6.25l-.13-.43c-.66-5.82-1.64-12.06-3-18.74q-5.35-20.09-18.86-30.77-12.95-10-32.52-10.77h-.18q-28-1-43.8,28.39A64,64,0,0,0,872.92,423a106.94,106.94,0,0,0,.21,11c0,.72,0,1.41,0,2.07q.26,8.19.79,19.12c.06,1.48.09,3,.11,4.46q0,3.43-.66,10.95-1.14,10.4-1.77,13.62c-.3,1.8-.57,3.29-.81,4.45-.84,3.39-1.49,6.2-1.93,8.41l-.51.27-9.56,4a9.8,9.8,0,0,0-4.1,4.85,13.13,13.13,0,0,0,1.18,7,25,25,0,0,0-2.73,6.21,51.3,51.3,0,0,0-1.87,8.86q-.59,3.76-2.09,21.13-1,11.19-.46,16.26.19,2.72.69,6.45l.38,2.45q.71,79.59-1.95,117.1l-11.45,81.89c-.06,1.33-.06,2.65,0,4l-4.08,18.89a39.9,39.9,0,0,0,8.38,9.35l-.22,2.4q3.1.65,6.27,1.24a25.5,25.5,0,0,0,11.79,2,399.26,399.26,0,0,0,54.68,4.18q53.44,1.38,73.17-5.52,5.34-1.5,11.2-3.56l-2.78-34.8q1.1-12.84,3.47-32.76-2-23.52-1.93-58.53l2.27-11.56q1.53-8.55,2.51-16,.21-1.12,1.84-17.72l1.41-12.23c.21-2.09.37-3.79.46-5.11q.67-10.15.92-28.72Q1005.86,566.81,1005.45,552.19ZM883.68,488.05q-.15-1.85-.87-7.84l-1.07-7.65q-.78-4.71-1.92-12.19c-.13-.81-.26-1.9-.41-3.28q-1.14-11-1.13-15.85a83.38,83.38,0,0,1,.45-9.7,35.69,35.69,0,0,1,5.09-6.76q4.75-4.74,13.27-7.15,18.4-5.91,39.6,4.52,9.24,5,16.52,17.38l.64,2.44q1.35,7.83,3.74,16.9a38.56,38.56,0,0,1,.9,6.17,84.13,84.13,0,0,1,.12,11.25c0,.48-.08,1-.13,1.52-.49,1.3-1,2.46-1.45,3.46a52.46,52.46,0,0,1-7.16,12.16q-11,13.11-29.63,21.06-8.85,4.18-15.71-.39-2.76-1.77-7.78-8.2-1.63-1.89-6.85-11l-2-2.77c-1.91-2.25-3.24-3.36-4-3.34h-.17C883.72,488.51,883.69,488.24,883.68,488.05Z" fill="#69b3c1"/><path d="M882.26,504.43a83.65,83.65,0,0,0-19.08,3.49q-3.52,1.32-3.77,5.65a23.61,23.61,0,0,0,1.39,8.4l1.27,3.75q3.3,8.63,3.65,9.8l4.16,13.3c1,2.87,2,5.57,3,8.12.52,1.34,1,2.07,1.5,2.2a9.43,9.43,0,0,0,4,.72,53.91,53.91,0,0,0,14.9-2.78c1.32-.81,2.08-2.59,2.26-5.32l.28-19.15-6.09-21.37a26.31,26.31,0,0,0-1.26-3.75q-1.68-2.94-6.18-3.06" fill="#9e6586"/><path d="M880.06,504.42a19.39,19.39,0,0,0-3.58.36l-8.39,2.1a20.52,20.52,0,0,0-6.23,2.47l1.32-.12q1.25-.41,7.71-1.89,3.81-.76,5.75-1a26.62,26.62,0,0,1,4.57-.33,4.65,4.65,0,0,1,2.34.73,8.71,8.71,0,0,1,3.39,4.31q.78,1.47,4,11.24l1.58,5.67q.11.35.33.36.85-1.7,0-5A92.18,92.18,0,0,0,887.89,509q-2.28-4.58-7.81-4.55" fill="#6e455d"/><path d="M882.37,510.3h0l.34.16-.34-.16m-1.18-.55a4.73,4.73,0,0,1,.43.31,2.58,2.58,0,0,0-1.63.16,1.55,1.55,0,0,0-.55.36.66.66,0,0,0-.12.49,1.6,1.6,0,0,0,.76,1,2.48,2.48,0,0,0,1.43.48,1.13,1.13,0,0,0,.87-.3,1,1,0,0,0,.27-.82,2.27,2.27,0,0,0-1-1.41,3.9,3.9,0,0,1,.62.18l-1-.49" fill="#6e455d"/><path d="M906.16,549.11a6.35,6.35,0,0,1-1-1.65c0-.59.09-1.22.15-1.93s.21-2.31.47-4.63c0-.49.09-1,.12-1.56.06-.86.1-1.72.13-2.59a7.2,7.2,0,0,0-.08-1.12,4.59,4.59,0,0,0-.1-.51l.16,0-.68-2a30.15,30.15,0,0,0-1.77-4.06,17.45,17.45,0,0,0-2.31-3.42,6.21,6.21,0,0,0-2.09-1.15c-2.18-.73-3.63-1.18-4.36-1.35l-.15,0c-.1-.05-.7-.2-1.8-.46h0s-.06,0,0,.06a2.7,2.7,0,0,1,.48.69c.1.25.21.55.31.89,0,.07.13.54.31,1.42.12.71.27,1.45.43,2.19-.37-.18-.72-.37-1.11-.55q-3.64-2-12.92-2.7h-.06c-1.06-.08-1.44.27-1.14,1,.14.65.84,1.36,2.11,2.13-3.09-.89-5.24-1.14-6.47-.75a1.1,1.1,0,0,0-.38,1.32l-.18-.07a13.71,13.71,0,0,0-3.73-.51h0a8.27,8.27,0,0,0-5.42,1.6q-5.4,3.92-6.4,6.65a3,3,0,0,0-.2,1.52L859.77,548c0,.46.08.89.11,1.3-.12,1.24-.31,2.58-.58,4,0,.29-.33,1.51-.88,3.67-.15.67-.26,1.19-.32,1.54a13,13,0,0,0-.15,2.8,4.62,4.62,0,0,0,1.56,3.48,8.24,8.24,0,0,0,1.69,1.43,6.51,6.51,0,0,0,.25,1,4.35,4.35,0,0,0,1.66,2.16,6.28,6.28,0,0,0,2.83,1.1.48.48,0,0,0,.44-.19,20,20,0,0,1,1-2.55c.22-.44.44-.86.68-1.27l1.38-2.3a11.34,11.34,0,0,0,.65-1.48,22.37,22.37,0,0,0,.8-3c.08-.38.16-.8.23-1.27l.3-2.12c.09-.17.18-.34.28-.49a13.21,13.21,0,0,1,1.77-2.17h.22c2.95,0,4.55,0,4.81,0a15.6,15.6,0,0,0,2.25-.2c1.92-.38,3-1.09,3.32-2.14q.18-.86-1.32-2.1a12.24,12.24,0,0,0-3.79-2.06,26.51,26.51,0,0,0-7.16-1.25l.65-.12,3.06-.45c.51-.09,1-.19,1.39-.3l.37-.12c.22.15.45.3.7.44a27.67,27.67,0,0,0,4.88,1.84c.67.28,1.66.74,3,1.37A13.74,13.74,0,0,1,889,550.7a9.92,9.92,0,0,1,2.17,2.91,12.53,12.53,0,0,1,.56,1.32c.43,1.35,1,2.94,1.64,4.79a6.34,6.34,0,0,0,1,1.7,10.33,10.33,0,0,0,1.35,1.39q5.16,4.13,8.42,7.2l5.35-17.7Zm-16.89-6.4-1.65-.13q-1.83-.24-7.22-1.2a2.91,2.91,0,0,0-.46-.65q-1.17-1.28-4.83-1.35h0a17.88,17.88,0,0,0-7.29,1.79l.21-.41a6.87,6.87,0,0,1,2.57-1.49A47,47,0,0,1,876,538a14.84,14.84,0,0,0,2-.7l.58-.3a8.79,8.79,0,0,0,2,1.38,60.39,60.39,0,0,0,7.42,3.27l1.52.81c.12.07.16.13.14.18A.33.33,0,0,1,889.27,542.71Zm-.66-5.59q-5.62-1.1-8.38-1.5a1.86,1.86,0,0,0,.19-.33c.28-.66,0-1.28-.81-1.86a6.39,6.39,0,0,0-3.25-.92,26.17,26.17,0,0,0-9.75,1.93,6.21,6.21,0,0,1,1.94-1.76,6.41,6.41,0,0,1,1.17-.51,20.87,20.87,0,0,0,3.62-1.15,7.13,7.13,0,0,0,1.83-1.25,6.89,6.89,0,0,0,2.22,1.61,49,49,0,0,0,5.86,2.25l2.49,1.06a22.67,22.67,0,0,1,4.09,2.47C889.7,537.26,889.29,537.25,888.61,537.12Zm-1.45-7.07h0a22.39,22.39,0,0,1,3.74,2C889.74,531.38,888.48,530.7,887.16,530.05Z" fill="#f9ca94"/><path d="M876.93,445.41,878,456.25q-.32-5-1.1-10.95M878,456.37q.19,3.5.21,6.83c0,.64,0,3.33-.2,8.06v2.66c0,1.87.09,3.71.23,5.53a58.18,58.18,0,0,0,2.51,13.73,45,45,0,0,0,6.77,13.26,49.87,49.87,0,0,0,10,10.53s0-.09,0-.21q-1.15-2-4.46-8.35-1.26-2.48-2.25-4.73-7.38-17.58-7.42-18.56a56.33,56.33,0,0,1-1.88-7.65q-3.59-19.53-3.5-21.1" opacity="0.07"/><path d="M951,555.52a62.27,62.27,0,0,0-12.84,1.28,70.77,70.77,0,0,0-14.61,5.12l-2.93.08a25.84,25.84,0,0,0,6.71,5.06,10,10,0,0,0,5,1.33,1.51,1.51,0,0,0,.55-.19,28.33,28.33,0,0,1,4.71-2.77,41.71,41.71,0,0,1,6.14-2.1,44.69,44.69,0,0,1,12.44-1,38.87,38.87,0,0,1,9.57,1.95c1.27.41,2.89,1,4.87,1.84l8.77,3.76,1.83.71a33.23,33.23,0,0,0-6.39-6.49,44.92,44.92,0,0,0-8.23-5.44q-6.06-3.21-15.57-3.17" opacity="0.07"/><path d="M916.89,605a60.7,60.7,0,0,1-13.26,5,58.86,58.86,0,0,1-14,1.36c0,.37.87,1.1,2.67,2.17a14.85,14.85,0,0,0,3.86,1.49,18.54,18.54,0,0,0,8.69.1q5-1.22,11.49-6.63c.91-.76,1.7-1.47,2.4-2.14l-1.79-1.37" opacity="0.07"/><path d="M940.59,563.84a8.36,8.36,0,0,0-1.79,1l-8.13,5.75a75.12,75.12,0,0,1,9.56,10.71,53,53,0,0,1,5.85,11.93,32.5,32.5,0,0,0-1.56-7.62,30,30,0,0,0-1.18-2.91q-.3-.71-2.28-4.49c-.25-.5-.49-1-.72-1.58a19.63,19.63,0,0,1-1.2-3.83,12.89,12.89,0,0,1,.07-4.9,16.43,16.43,0,0,1,.54-2.49,6.58,6.58,0,0,1,.3-.71,5.12,5.12,0,0,1,.54-.8c0-.05,0-.09,0-.1" opacity="0.07"/><path d="M966.8,562l-8,1q9.74,5.51,12.34,10,4.67,7.21,5.49,9.49a87,87,0,0,1,3.67,11.65,54,54,0,0,0-1.14-11.18,48.33,48.33,0,0,0-2.78-9.69,23.61,23.61,0,0,0-3.6-6.13A33,33,0,0,0,966.8,562" opacity="0.07"/><path d="M973.51,574.27q-.5,1.29-1.08,2.46c-.09.25-.88,1.69-2.37,4.35l-.83,1.57-.69,1.44q-1.81,4-2.28,5-.72,1.52-2.74,5.32c-.14.27-.2.42-.18.46s.06,0,.13-.07a15.35,15.35,0,0,1,1.87-1.75q0-.09,4.09-2.87a25,25,0,0,0,2.24-1.91,12.72,12.72,0,0,0,3.1-4.57,15.34,15.34,0,0,0,.66-6.95l-1.91-2.48" opacity="0.07"/><path d="M970,458q2.4,14.43,1.39,20.67a95.17,95.17,0,0,1-6.57,24.46q-4,10.21-13.54,23.62a57.66,57.66,0,0,1-14.59,13.63,85.53,85.53,0,0,0,19.11-16.82,102.16,102.16,0,0,0,13.36-23.32A50.13,50.13,0,0,0,973.29,481a116.16,116.16,0,0,0-1.52-18.31l-.53-3.65L970,457.91" opacity="0.07"/><path d="M962.55,460.45a58.4,58.4,0,0,1,2.56,12.33,36.54,36.54,0,0,1,.12,4.15l-.41,10.64a124.21,124.21,0,0,1-1.33,14.7A94.19,94.19,0,0,1,960,515.92a41.89,41.89,0,0,0,4-11,69.39,69.39,0,0,0,2.12-14.05c0-.88.07-2.66,0-5.33,0-2.13-.06-4-.13-5.72-.06-1.28-.15-2.58-.26-3.92l-.7-7.66-2.53-7.78" opacity="0.07"/><path d="M957.4,491.11q-3.69,11.73-15,24.1a61.84,61.84,0,0,1-7.62,7.2Q933,524,921,531.89a11.2,11.2,0,0,0-2.47,2c-.08.12,0,.16.22.13l1.66-.48a40.53,40.53,0,0,0,3.93-1.5,64.05,64.05,0,0,0,7.71-4,46.1,46.1,0,0,0,11.06-9q4.22-4.32,10.35-15.89,1.17-2.28,2.15-4.62l1.76-7.39" opacity="0.07"/><path d="M994.18,601.91q-3.55,21.24-8.52,57.84a144.27,144.27,0,0,1-4.24,18.69q5.31-8.43,16.08-67.18l-3.32-9.35M908.44,731.79q4,2.28-.06,0m73-53.15q-8.65,21.21-35.48,43.11A68.73,68.73,0,0,1,925.31,733q-9.87,3.32-14.77,0,18,12,38.48-4.47,21.74-17.76,32.37-50" opacity="0.07"/><path d="M988.76,690.85l-5.06,19.83q-3.39,10.4-4.51,13.14a91.09,91.09,0,0,1-11.26,20.73q-13.24,18.78-37.13,26,2.09,2.82,8.32,4.27a22.18,22.18,0,0,0,10.9-.5q11-3.47,19.45-15.38Q977,748.9,981.61,733a126.18,126.18,0,0,0,2.95-13.52q.11.21,4.23-28.75" opacity="0.07"/><path d="M862.33,637.72c-.36,3.35-.75,6.61-1.16,9.76l-2.94,21.44q-1,7.51-1.28,10.72-.35,3.54-.54,6.85l-.59,13.06q-.18,3.63-.5,7.91c-.16,2.12-.36,4.45-.62,7l-1.45,13.76a25.37,25.37,0,0,0-.22,2.87q.24,2.17,1.05.69a131.12,131.12,0,0,0,5.39-13.14,91.88,91.88,0,0,0,3.79-17.78,81,81,0,0,0,.49-10.06c0-1.13-.06-2.59-.15-4.4q-.87-15.14-.93-18.43a135.66,135.66,0,0,1,.46-16.41l-.79-13.89" opacity="0.07"/><path d="M881.92,402.65c-.71,2-1.24,3.53-1.57,4.6l-2.19,7.4q-2.73,8.16-3,9.51a59.43,59.43,0,0,0-1.87,10.76,43.9,43.9,0,0,0,.48,10.94c.37,2.42.88,5,1.51,7.73.27,1.19.76,3,1.47,5.51.13.44.23.64.29.6a.42.42,0,0,0,0-.16c-.2-3.48-.33-6-.39-7.63-.08-1.91-.13-3.77-.16-5.58a49,49,0,0,1,.2-6.19l1-10.21c.1-1,.21-1.91.32-2.71a60.22,60.22,0,0,1,1.42-6.85l2.43-17.73" opacity="0.07"/><path d="M878.12,460.37l-6.29,40.48q1.36,3.47,7.49-23.33,1.15-5.67-1.19-17.3Z" opacity="0.07"/><path d="M856.75,511.09l-.35.25c-.07.39-.15.79-.26,1.21l-.71,2.65a10.28,10.28,0,0,0-.24,1.08,6.71,6.71,0,0,0,.14,2.89,25.51,25.51,0,0,0,2.82,5.57,11.36,11.36,0,0,0,3.13,3.47s0-.06,0-.15c-.57-1.55-1-3.06-1.43-4.53-.13-.48-.25-.95-.35-1.41q-1.21-5.31-1.26-5.42l-1.48-5.62" opacity="0.07"/><path d="M878.94,544.7c-.3,0-.35.18-.18.39a11.2,11.2,0,0,0,1.73,1.72,15.27,15.27,0,0,0,1.35,1c1.91,1.16,3,1.87,3.35,2.12a10.22,10.22,0,0,1,1.68,1.35A6.41,6.41,0,0,1,888,552.9a8.46,8.46,0,0,1,.67,2.06,2.66,2.66,0,0,0,.27.53,23.8,23.8,0,0,0,2.24,2.57l1.52,1.9a8.76,8.76,0,0,0,1.25,1.18l3.15,2.21a13.15,13.15,0,0,1,1.61,1.34l-1.06-1.05a18.15,18.15,0,0,1-1.19-1.93,11.64,11.64,0,0,1-.51-1.14q-1-2.9-1.32-3.48c-1-2.13-1.55-3.37-1.76-3.71a15.9,15.9,0,0,0-2.19-2.8,10,10,0,0,0-2.35-1.75c-.49-.31-1.75-1-3.79-1.9l-2-1.06A11.1,11.1,0,0,0,879,544.7" opacity="0.07"/><path d="M877.05,536.07a1.74,1.74,0,0,0-.63.11c-1.36.51-2,.77-1.94.75l-3.66,1.84c-1.75,1-2.59,1.71-2.54,2.12a.26.26,0,0,0,.19,0,28.91,28.91,0,0,1,4.17-.69,11.58,11.58,0,0,1,2.42,0,16.36,16.36,0,0,1,2.37.42l.93.25c.95.29,2,.6,3.1.9.46.13,1,.27,1.75.42.49.12,1.65.32,3.49.59a6.61,6.61,0,0,0,1.17.09,4.23,4.23,0,0,0,1.22-.17c.23-.09.36-.2.38-.32s-.52-.54-1.7-1.34a12.92,12.92,0,0,0-1.43-.79L881.46,538c-.47-.21-1.19-.58-2.15-1.08l3.26,3.09a9.55,9.55,0,0,1-1.92-1.21,16.63,16.63,0,0,1-1.89-2l-.44-.38a2,2,0,0,0-1.25-.41" opacity="0.07"/><path d="M875.58,529.4a2.45,2.45,0,0,0-.88.16l-2.39.86-2.42.71a7.48,7.48,0,0,0-1.09.44,4.49,4.49,0,0,0-2.31,2.4,1.76,1.76,0,0,0,.55-.06q.53-.12.93-.24l1.63-.46,2.06-.53a10.54,10.54,0,0,1,1.39-.26,14.24,14.24,0,0,1,4.27.18,13,13,0,0,1,3.19.9l3.13,1.28q2.33,1.14,6.3,2.89l.3-.66c-.27-.28-1.63-1.28-4.06-3-.57-.41-1-.73-1.41-.94a13.63,13.63,0,0,0-1.87-.9s-1-.34-2.91-.94a11.19,11.19,0,0,1-1.1-.41,26.79,26.79,0,0,1-2.54-1.27,1.81,1.81,0,0,0-.76-.14" opacity="0.07"/><path d="M879.45,525.28c-.18.12-.16.52.06,1.19a4,4,0,0,0,.83,1.43l.8-.4c.67.31,1.34.59,2,.84l.78.28,2.08.66c.41.15.84.31,1.28.49q3.56,1.53,4.64,2.16a12.62,12.62,0,0,0-3.33-2.34A20.5,20.5,0,0,0,886,528.4c-.44-.18-.8-.31-1.07-.4-1.2-.39-1.87-.61-2-.67a6,6,0,0,1-.76-.31,10.57,10.57,0,0,1-1.35-.78,9.14,9.14,0,0,1-1.17-.91c-.05,0-.09-.06-.11-.05" opacity="0.07"/><path d="M893.32,523l-.4.29a.7.7,0,0,0-.47-.07.64.64,0,0,0-.41.25,1.66,1.66,0,0,0-.18.69,3.94,3.94,0,0,0,0,1.18,1,1,0,0,0,.25.5,5.46,5.46,0,0,0,.76.73,2.33,2.33,0,0,0,1.33.66s0,0,0-.12,0-.38,0-.5-.08-.59-.16-1a22.31,22.31,0,0,0-.75-2.64" opacity="0.07"/><path d="M883.52,550.76a3,3,0,0,1-2,1.57,6.11,6.11,0,0,1-1,.15,49.76,49.76,0,0,0-5.51.33,4.86,4.86,0,0,0-2,.64,2.62,2.62,0,0,0-.78.94,13.42,13.42,0,0,0-1,2.21l1.22-.79a14.53,14.53,0,0,0,.9,2,4.54,4.54,0,0,1-.41-1.79,1.87,1.87,0,0,1,.75-1.3,3.52,3.52,0,0,1,1.3-.42l1.87-.19,2.45-.33c.19,0,.68,0,1.46-.07l.36,0a3.6,3.6,0,0,0,.9-.22c1.47-.7,2-1.59,1.58-2.66" opacity="0.07"/><path d="M883.89,550.9l-2.38,1.39a2.13,2.13,0,0,1-1.11.94,8,8,0,0,1-1.58.32l-1.11.11c-1.16.06-1.73.09-1.71.1a6.57,6.57,0,0,0-.83.13,3.15,3.15,0,0,0-1.71.89s0,0,0,0c.46,0,.86,0,1.21.08l.91.1q1.7.22,2,.24a19.64,19.64,0,0,0,2.11.13,6.44,6.44,0,0,0,3-.7c1.53-1,1.93-2.27,1.19-3.77" opacity="0.07"/><path d="M970.77,571.15q-10.34-13.67-21.16-12.08H949q-10.77-3.18-17.85,12.17-8.62-8.41-22.07-20.53l0,.19q.63,9.63-11.39,16.45,10.34,18,46.27,48.23,6.38,5,29.15-40.71C972,572.19,971.24,571,970.77,571.15Z" fill="#c8f3fb"/><path d="M899.18,567l-.88.86q4.34,6.09,5.33,7.19,3.84,4.68,11.79,13.85l18.17,19.89q4.68,4.54,8.22,5.79c2.77,1,4.82.84,6.18-.55a4.83,4.83,0,0,0,1.48-5q-6.66-.84-16.13-8.74l-5.74-5.13q-4.7-4.39-10.12-9.7-7.17-6.47-10.75-9.91a78.31,78.31,0,0,1-7.55-8.56" opacity="0.07"/><path d="M966.47,565.46a17.6,17.6,0,0,1-.22,13q-.78,2.46-3.75,9.13c-2.34,5.37-4.09,9.11-5.27,11.19a33,33,0,0,1-2.33,3.77l-5.48,7.19a21.4,21.4,0,0,0-1.8,3.07c-.27.68-.3,1-.09,1a4.91,4.91,0,0,0,2.7,0,10.93,10.93,0,0,0,5.59-4.28c.78-1,1.63-2.15,2.57-3.56l5.49-8.79,3.5-5.08q3.35-5.29,4.43-6.7c.42-.57,1-1.33,1.7-2.26h1.55l.13-.3a11.22,11.22,0,0,0-1.12-8.6q-3.63-6.74-7.57-8.75" opacity="0.07"/><path d="M905.62,581.33a18.68,18.68,0,0,1-4.56,1.89,25.38,25.38,0,0,1-5.92.9,32.5,32.5,0,0,1-4.95-.49c-.53-.09-1.14-.21-1.83-.35q-4.56-1-5.42-1.18-1.73-.35-3-.51a19.42,19.42,0,0,0-2.68-.16c-1.07,0-1.62.1-1.65.22q7.88,2.36,10.75,5.16a4.52,4.52,0,0,1,1.57,2.57c.16.54-.14,1.54-.89,3,0,.15,0,.22.14.23a24.38,24.38,0,0,0,5.22.79c.74,0,1.54,0,2.39,0l4.94-.19,1.59,0c1.22,0,3,.13,5.46.35,1.82.18,3.47.38,5,.62.33,0,3.11.54,8.36,1.55a1.35,1.35,0,0,0,.64,0c.09,0,.09-.1,0-.22q-6.56-8-6.86-8.14a21.64,21.64,0,0,0-4.7-3.91,5.81,5.81,0,0,0-3.28-.94,5,5,0,0,0-1.09.28l-4.06,1.54,4.9-3.07" opacity="0.07"/><path d="M992.1,705.3l-1.5.89q.14,8.1.07,15.66.81-12.14,1.48-16.57M990.66,722a65.31,65.31,0,0,1-1.86,10.91q-1,4.17-4.39,13.22-4.38,11.86-7.45,19c-.72,1.68-1.48,3.37-2.27,5q-7.08,14.49-7.06,14.87c-.24,1.23.42.89,2-1a97.22,97.22,0,0,0,8-10.25A67.62,67.62,0,0,0,985.07,759q5.43-14.34,5.6-37.08" opacity="0.07"/><path d="M862.12,507.87a49.61,49.61,0,0,0-3.3-4.49,25.31,25.31,0,0,0-5.29-4.94,21.7,21.7,0,0,0-12.15-3.76s-23.92,2-30.54,3.59a19.83,19.83,0,0,0-8.47,5.7,42.77,42.77,0,0,0-4.61,5.81,60.28,60.28,0,0,0-3.51,6.43l-1.17,1.86a13.65,13.65,0,0,1-3.11,3.26q-.18.23-.09.3a1.14,1.14,0,0,0,.73.23c.55,0,1.48,0,2.8-.05q12.72-.7,21.08-1c1.33-.07,3.22-1.43,5.68-4.06,1-1,1.84-2.07,2.66-3.13,1.09-1.52,2.09-2.88,3-4.09a15.88,15.88,0,0,1,1.44,1.16,27.71,27.71,0,0,1,3.82,4.59,1.54,1.54,0,0,0,1.06.65l4.4-.81q6.18-1.29,9.32-2.06c5.09-.92,8.72-1.64,10.88-2.13,1.55-.35,3.14-.78,4.78-1.31a1.25,1.25,0,0,0,.8-.59A1.19,1.19,0,0,0,862.12,507.87Z" fill="#84dbc0"/><path d="M843.15,496.09q-6.64-1-17.18,12.45L846.45,501q3.42-.77,10.52,3.73-5.44-8.29-13.79-8.61Z" opacity="0.07"/><path d="M824.86,506.25l-.64.53c-1.41,1-2.25,1.64-2.53,1.91s-.56.48-.93.84l-2.41,2.36a16.66,16.66,0,0,1-1.8,1.39c-.33.21-.72.43-1.16.66l-3.18,1.53-1.76,1a3.71,3.71,0,0,1-.57.2l-1.68.39a6.5,6.5,0,0,0-1,.38,3.66,3.66,0,0,0-1.41,1.2c-.34.48-.32.76.08.83a18,18,0,0,0,3.33-.22,57.11,57.11,0,0,0,6.32-1.31,6.16,6.16,0,0,0,2.42-1,2.45,2.45,0,0,0,.46-.62c1-1.77,1.51-2.78,1.7-3l4.74-7.12" opacity="0.07"/><path d="M802.89,508a9.9,9.9,0,0,1-1,1.55l-.5.64-1.32,1.55c-.27.33-.51.65-.73,1a14.7,14.7,0,0,0-1.29,2.29,10.16,10.16,0,0,0-.87,2.92,7.36,7.36,0,0,0-.05,1.62c0,.39.11.6.23.62a.18.18,0,0,0,.1,0c.48-.42.84-.71,1.08-.89l1.58-1.18c.31-.24.58-.47.81-.68a6,6,0,0,0,1.4-1.87,3.28,3.28,0,0,0,.28-.9,12.42,12.42,0,0,0,.14-1.4,1.76,1.76,0,0,1,.09-.44,1.31,1.31,0,0,1,.12-.27,4.43,4.43,0,0,0,.58-.82,2.42,2.42,0,0,0,.23-.76,1.81,1.81,0,0,0-.22-1,3.25,3.25,0,0,0-.94-1l.26-.88" opacity="0.07"/><path d="M819.05,499.06a15.63,15.63,0,0,0-4,.52,49.34,49.34,0,0,0-5.93,1.94,7.68,7.68,0,0,0-1.23.62l1.76.91a32.42,32.42,0,0,1,7.41-2.16,47.92,47.92,0,0,1,4.78-.45c.81,0,1.54-.05,2.16-.05s1.57,0,2.46.06h.09c0-.07-.36-.22-1.17-.47-.65-.18-1.35-.35-2.12-.49a23.81,23.81,0,0,0-4.18-.42" opacity="0.07"/><path d="M832,510.06l-.85.93a2.4,2.4,0,0,0-.56.5.86.86,0,0,0-.25.7,6.19,6.19,0,0,0,1.33,1.7,4.73,4.73,0,0,0,1.53,1.1,1.57,1.57,0,0,0,.56,0c.5-.07,1-.15,1.44-.25a18,18,0,0,0,2.37-.66,12.42,12.42,0,0,0,3.56-1.8q.17-.21.09-.3s-.11-.06-.4-.08-.65,0-1,0l-2.08.15c-.37,0-.68,0-.94,0a8.37,8.37,0,0,1-1.79-.21,6.46,6.46,0,0,1-3-1.78" opacity="0.07"/><path d="M817.56,425.49a57,57,0,0,0-11.65,1.69q-3.18.72-13.64,4.23c-.26.09-.35.25-.27.46q.24.86,5.38,4.35,1.1.81,14.53,8.74,2,1.21,3.91,2.55a71,71,0,0,1,8.11,6.55,51,51,0,0,1,13.46,20.15l16.32-5.13c.08,0,.09-.07,0-.22L851.82,464q-6.89-17-14.39-25.05a68.09,68.09,0,0,0-12.28-10.75,18.38,18.38,0,0,0-3.94-2.29,11.93,11.93,0,0,0-3.59-.4" fill="#84dbc0"/><path d="M821.77,427.57l-4.57.63-4.65.83a1.06,1.06,0,0,0-.48.15l2.16.17a9.26,9.26,0,0,1,1.44.3,3.94,3.94,0,0,1,.7.25,14.54,14.54,0,0,0,2.76,1.42,8.25,8.25,0,0,0,1.18.32c1.42.2,2.14.31,2.16.34a4.45,4.45,0,0,1,1.08.41,19.43,19.43,0,0,1,2.38,1.71l3.25,3q1.1,1,2,1.68l5.42,3.94c.24.17.37.24.38.21a41.91,41.91,0,0,0-6.76-9.2,36.46,36.46,0,0,0-8.41-6.15" opacity="0.07"/><path d="M801.23,432.06l.8,1.61a7.86,7.86,0,0,0-1.86-.12,5,5,0,0,0-.94.14c-.21.06-.27.12-.19.18a6,6,0,0,0,1.25.21c.53.05,1,.08,1.54.08a8.49,8.49,0,0,0,2.4-.28,2.9,2.9,0,0,0,.49-.17.35.35,0,0,0,.16-.19c0-.21-.16-.4-.49-.58a7.38,7.38,0,0,0-3.16-.88" opacity="0.07"/><path d="M820.4,440.79c-1.1,0-1.61.23-1.53.58l3.35,4.9a13.07,13.07,0,0,0,1.73,2,6.59,6.59,0,0,0,1.12.86l2.07,1a13.14,13.14,0,0,1,1.43.89,10.55,10.55,0,0,1,.89.75q1.86,1.9,2.37,2.31a14.54,14.54,0,0,0,1.77,1.32,8.81,8.81,0,0,0,4.35,1.47c.88,0,1.43-.23,1.64-.61s.09-.92-.32-1.79a26.48,26.48,0,0,0-5.87-7.59,23.16,23.16,0,0,0-5.48-3.81s0,0,0,0l-.08,1a9.94,9.94,0,0,0-7.38-3.31" opacity="0.07"/><path d="M842.5,455.89a19.08,19.08,0,0,1,2.37,6.12,16,16,0,0,1,.31,2.75,18.86,18.86,0,0,1-.24,3.31c0,.16,0,.25.09.26a16.73,16.73,0,0,0,3.16-2.3,4.23,4.23,0,0,0,.76-.94,1,1,0,0,0,.08-.71,28.18,28.18,0,0,0-3.34-6.9l-3.18-1.59" opacity="0.07"/><path d="M834.16,459l.52,1.41c.72,2.14,1.12,3.28,1.18,3.4.32.84.68,1.65,1.07,2.43.9,1.78,1.74,2.84,2.5,3.2.13,0,.19-.15.2-.39a8.8,8.8,0,0,0-.19-1.5,11,11,0,0,0-1-2.71,30.75,30.75,0,0,0-4.3-5.84" opacity="0.07"/><path d="M1002.64,485.83a49.35,49.35,0,0,1-7.59,2c-1.06.18-2.21.31-3.46.41a95.64,95.64,0,0,0-10.65.61,56.09,56.09,0,0,0-9.73,2.2q-12.68,4.47-19.82,11.52a70,70,0,0,0-8.18,9.81L945,522q4,8.63,7.73,12.35,4.42-10,21.75-15.67a75.19,75.19,0,0,1,13.73-2.85c1.75-.2,3.71-.35,5.86-.43l14.77-.39q6.15-.54,6.07-1a1.23,1.23,0,0,0,.28-1.1c-.42-2.08-1-4.6-1.77-7.59a67.72,67.72,0,0,0-3.39-10.45q-3.49-7.85-7.28-9" fill="#84dbc0"/><path d="M1004,488.25q-9.3,2.12-9.22,2.26c-3.24,1.12-5,1.92-5.32,2.41a9.88,9.88,0,0,0,2.94.11c.78,0,2.86-.27,6.23-.7a17.68,17.68,0,0,1,1.89-.11,5.83,5.83,0,0,1,3.21.75,32.27,32.27,0,0,1,2.1,5.73,17.15,17.15,0,0,1,.86,4.86,3.13,3.13,0,0,1-.12.8,13,13,0,0,0-.79,2,8.33,8.33,0,0,0-.26,1.32,6.49,6.49,0,0,0,0,1.32,9.27,9.27,0,0,0,.37,1.74.82.82,0,0,1,0,.46,1.23,1.23,0,0,1-.65.55l-2.42.9a21.57,21.57,0,0,0,5.93-.45,16.47,16.47,0,0,0,3.24-1.12q.63-.3.45-.81a22.87,22.87,0,0,0-.84-3.18q-3.21-9.74-3.29-9.7-.66-1.95-4.27-9.16" opacity="0.07"/><path d="M973.33,497a4.31,4.31,0,0,0-1.88.47,3,3,0,0,0-.6.41l-.92.89a1.92,1.92,0,0,1-.52.29c-.29.11-.67.24-1.15.37-1.46.32-2.3.53-2.54.62a7.26,7.26,0,0,0-1.45.62,6.72,6.72,0,0,0-2.54,3.17,10.36,10.36,0,0,0-.13,7.18q1.62,4,4.12,4.16a1.22,1.22,0,0,0,.81-.28,14.38,14.38,0,0,1,2.66-3.13,9,9,0,0,1,2.43-1.4,9.9,9.9,0,0,1,2.55-.59s1.45-.09,4.27-.12a14.11,14.11,0,0,0,1.61-.15,7.47,7.47,0,0,0,2.47-.77,5.27,5.27,0,0,0,1.46-1.12l1.65-2.22a9.76,9.76,0,0,1,1.42-1.34,3,3,0,0,0,.48-.72c.41-.61.23-1.54-.55-2.78a7.75,7.75,0,0,0-3.23-2.79,8.4,8.4,0,0,0-2.83-.68,13.83,13.83,0,0,0-2.85.13l-4.69-.22" opacity="0.07"/><path d="M954.48,504.48a12.07,12.07,0,0,0-2.83,1.61,16.09,16.09,0,0,0-2.55,2.18,22.55,22.55,0,0,0-2.3,3.09,11.42,11.42,0,0,0-1.16,2.68,5.92,5.92,0,0,0-.19,3.33,7,7,0,0,0,.29.93l1.68,4.37.84,2.14c.09.2.15.3.17.3a.26.26,0,0,0,0-.18q-.6-3.16-1-5.58c-.15-1-.26-1.9-.32-2.69a12.57,12.57,0,0,1,.29-4.32,2.55,2.55,0,0,1,.77-1.44q2.87-1.89,5.19-3.55c.55-.38,1.07-.79,1.56-1.2l-.48-1.67" opacity="0.07"/><path d="M963.09,519a12.88,12.88,0,0,0-5.42,2.37,23.4,23.4,0,0,0-2.49,2.09c-.36.35-.77.77-1.22,1.24l-2.15,2.32a8,8,0,0,0,1.26,1.92,7.55,7.55,0,0,0,1,.92.63.63,0,0,0,.4.14.78.78,0,0,0,.71-.48,6.73,6.73,0,0,0,.43-.71c.61-1.29,1-2.13,1.25-2.51a13.07,13.07,0,0,1,1.11-1.64,49.53,49.53,0,0,1,5.08-5.21q.4-.47.09-.45" opacity="0.07"/><path d="M954.43,815.13l-2.37.39-1.21-.19q-16.08.79-37.65.24a399.26,399.26,0,0,1-54.68-4.18c-.93.06-1.84.06-2.74,0q-18.39,9.52,31.35,10.71c.89.81,4.31.11,10.21-2.08,1.13,1.23,3.14,2.38,6.09,3.47a38.7,38.7,0,0,0,13.23,1.8c1.36,0,3.06,0,5.1-.13l12-.7c1,0,4.59-.2,10.89-.43q3.69-.18,5.57-.46a51.49,51.49,0,0,0,10.47-2.92,4.88,4.88,0,0,0,2.9-2,14.11,14.11,0,0,0,1.85-4.46C962,814.59,958.36,814.89,954.43,815.13Z" fill="#639ba6"/><g id="layer10"><path d="M895.56,433.25a10.3,10.3,0,0,0-6.89,2.46,14,14,0,0,0-2.65,3.55,11.27,11.27,0,0,0-1.35,3.88,8.31,8.31,0,0,0,1.13-1.52c.2-.26.36-.46.48-.59a10.88,10.88,0,0,1,1.63-1.47,16.24,16.24,0,0,1,4.8-2.32,17.15,17.15,0,0,1,4.91-.77,14.29,14.29,0,0,1,5.56,1.14l1.05-.38a16.62,16.62,0,0,0-4.41-3.09,9.56,9.56,0,0,0-4.24-.89" fill="#414141"/><path d="M935.52,434.07a11.23,11.23,0,0,0-6,1.82,19.11,19.11,0,0,0-3.49,2.63l-1.15,1.76a12.82,12.82,0,0,1,2.16-.92,24.35,24.35,0,0,1,3.86-1,14.65,14.65,0,0,1,5.39,0,20,20,0,0,1,5.51,2.05,29.08,29.08,0,0,1,2.72,1.72c1,.73,2.21,1.65,3.49,2.74.13.1.22.14.28.13a10,10,0,0,0-1.74-4,19.33,19.33,0,0,0-3.43-3.74,11,11,0,0,0-7.58-3.21" fill="#414141"/><path d="M945.73,450.91c-.4,0-.86.07-1.37.1s-.88,0-1.26,0a16,16,0,0,1-2.16-.18c-.51-.08-1-.19-1.49-.31a8.65,8.65,0,0,0-1-1.08,4.79,4.79,0,0,0,1.45-.46,4.16,4.16,0,0,0,.84-.57,3.67,3.67,0,0,0,.43-.46c.06-.08.07-.12,0-.12h0a10.53,10.53,0,0,1-2.5.41c-.61,0-1.18,0-1.72,0a10,10,0,0,0-1.77-.94,7.33,7.33,0,0,0-2.72-.49h0a12.4,12.4,0,0,0-4.56,1,17.16,17.16,0,0,0-2.07,1l-.31.84a13.24,13.24,0,0,1,8.09-.29,17.24,17.24,0,0,1,4,1.86,11.82,11.82,0,0,1,1.43,1.07l.67.61,1.19,1.16a6.39,6.39,0,0,0-.87-2.53l.39.09a8.89,8.89,0,0,0,2.52,0,10.61,10.61,0,0,0,2.78-.7Z" fill="#414141"/><path d="M898.45,448.13a8.41,8.41,0,0,0-1.58-.65,4.6,4.6,0,0,0-1.32-.17h0a8.1,8.1,0,0,0-2.22.34,7,7,0,0,0-1.55.65,7.58,7.58,0,0,1-1-.31,9,9,0,0,1-2.15-1.23h0a2.26,2.26,0,0,0,.52.59,5.75,5.75,0,0,0,.84.63,6.56,6.56,0,0,0,.75.38,6.84,6.84,0,0,1-.79-.12A9.59,9.59,0,0,1,889,448l-.37-.15-.49-.23a.16.16,0,0,0-.09,0h0s0,.09.28.24a5.94,5.94,0,0,0,.59.38,9.33,9.33,0,0,0,1.24.58,6.45,6.45,0,0,0,.62.21,5.53,5.53,0,0,0-2.1,2.88.27.27,0,0,0,.13-.07,18.77,18.77,0,0,1,1.54-1.21,8.43,8.43,0,0,1,1.2-.7,9.68,9.68,0,0,1,3-.84,9.55,9.55,0,0,1,6,1.36h.89A11.64,11.64,0,0,0,898.45,448.13Z" fill="#414141"/><path d="M899.75,479.51a2.51,2.51,0,0,0-.14,1.6,32,32,0,0,0,.87,4.4,15.84,15.84,0,0,0,2.45,5.32,17.49,17.49,0,0,0,9.55,6.35q4.07,1.15,9.51-1.91,6.09-3.64,8.24-8.27a7.22,7.22,0,0,0,.62-3.62,3.26,3.26,0,0,0-1.26-2.48.94.94,0,0,0-.47.05c-2.42.72-4.14,1.2-5.18,1.44s-2,.44-2.83.57a42,42,0,0,1-7.53.29,28.36,28.36,0,0,1-6.2-.9,25.72,25.72,0,0,1-6.35-2.77l-1.27-.08" fill="#414141"/><path d="M931.88,452.15l-.29.12-.35.37h0a2.37,2.37,0,0,0-1.48,1.8.28.28,0,0,0,0,.09l-.11.24a3.83,3.83,0,0,0,.78,5.08,2.68,2.68,0,0,0,.39.45l-.21.12a2.81,2.81,0,0,0,1.35,1.13,1.91,1.91,0,0,0,1.17.07q.51.25,1.08.48Q936.61,457.26,931.88,452.15Z" fill="#414141"/><path d="M894.15,451.45H894c-.24.26-.44.52-.64.78h-.44c-.06.25-.11.48-.16.71l-.06.05,0,.17s0,.07,0,.11q-2.22,4.23,3.77,7.93Q901.48,456.16,894.15,451.45Z" fill="#414141"/><path d="M932,453.31l-.86,0a.52.52,0,0,0-.13.12,1.16,1.16,0,0,0,0,.58,3,3,0,0,0,.17.62,2.46,2.46,0,0,0,.81,1,2.28,2.28,0,0,0,1.23.44q.24,0,.24-.33a2.31,2.31,0,0,0-.22-.92,3.19,3.19,0,0,0-.45-.79,5.29,5.29,0,0,0-.76-.79" fill="#fff"/><path d="M895.12,452.66a1.64,1.64,0,0,0-.58.09,1.15,1.15,0,0,0-.42.34,1.08,1.08,0,0,0-.22.5,1.23,1.23,0,0,0,.08.56,3.1,3.1,0,0,0,.95,1.39,2.07,2.07,0,0,0,1.36.63c.29,0,.46-.1.5-.3a2.18,2.18,0,0,0-.13-1.11,4.64,4.64,0,0,0-.73-1.35c-.11-.15-.25-.33-.42-.53l-.39-.22" fill="#fff"/></g><path d="M857.7,551Q827,614.69,839.25,622.56,855.17,640.2,882.59,591q-1.26-4.39-15.17-8.6l3.5-14.13q-15.13-1.56-13-17.81Z" fill="#c8f3fb"/><path d="M869.54,580.93l-2.6,1.66a82.92,82.92,0,0,1-2.2,8.66,110.45,110.45,0,0,1-4,11,41,41,0,0,1-7,11.15q4.79-3.54,9-12.33a90.51,90.51,0,0,0,4.36-11,60.92,60.92,0,0,0,2.43-9.25" opacity="0.07"/><path d="M880.86,588.06c-1.22-.15-2.2.52-2.93,2a19.14,19.14,0,0,0-.95,2.48l-1.46,5.27c-.32,1-.68,2-1.08,3a53.56,53.56,0,0,1-4.13,8.18,112.51,112.51,0,0,1-11.44,14.25,32.89,32.89,0,0,0,6.19-4.71c.83-.78,1.7-1.62,2.58-2.53l7.73-8.09q2.13-2.25,4-4.49l5.59-7.17L887.6,593l-4.68-4.61a7.47,7.47,0,0,0-2.06-.31" opacity="0.07"/><g id="layer5"><path d="M319.55,519.8a12.53,12.53,0,0,0-.81-4.62,4.38,4.38,0,0,0-1.41-2.11c0-.63.08-1.26.1-1.9a6.45,6.45,0,0,0-.92-3.51,2.72,2.72,0,0,0-2.37-1.33c0-.2-.05-.43-.08-.61a8,8,0,0,0-1.18-3.41c-.81-1.11-1.56-1.65-2.25-1.6h0q-1.64.23-2,2.49a14.34,14.34,0,0,0-.13,2.25c0,.17,0,.39,0,.63q-.17.6-.69,8.65a28.08,28.08,0,0,1-.67,3.88,13.57,13.57,0,0,1-3.52,6.62c-2.17,1.86-3.76,2.25-4.79,1.2a6.92,6.92,0,0,1-.27-3.43,27.35,27.35,0,0,1,1.44-5,2.92,2.92,0,0,0,.13-1.08,5.78,5.78,0,0,0-1.74-3.51l-.13-.1a3.24,3.24,0,0,0-.46-.37c-.39-.25-.87,0-1.44.7q-4.46,5.22-4.92,6.49a4.93,4.93,0,0,0-.31,3.93,96.93,96.93,0,0,0,3.13,11.62,34.72,34.72,0,0,1,.78,4.12,13.4,13.4,0,0,1-.47,6.1c-.44,1.55-1.82,3.65-4.12,6.28q-1.69,2-3.32,3.62-6.45,6.15-7.74,7.57a42.36,42.36,0,0,0-3.61,4.38c-.31.44-.6.89-.89,1.35-.5-1.45-1-2.92-1.63-4.43a102,102,0,0,0-6.78-14.12l0,0L249.23,565.6l1.82,3.28,3.69,7.46c.53,1,1.13,2.08,1.81,3.17a29.89,29.89,0,0,0,3.77,5,2.06,2.06,0,0,0,.42,1.58,83.54,83.54,0,0,0,5.69,8q4.65,5.8,7.13,6.58c1.36.58,2.44.54,3.22-.1a47.63,47.63,0,0,0,7.4-6.79,76.21,76.21,0,0,0,7.65-10.2q1.31-1.77,7.73-15.08a41.13,41.13,0,0,1,2.21-3.75q2.4-4,9.9-12.07a18.69,18.69,0,0,0,1.83-3,31.87,31.87,0,0,0,1.74-5.05q3-10.6,3.07-12.12a25.44,25.44,0,0,0,.41-6.69C319.09,523.82,319.37,521.8,319.55,519.8Z" fill="#f9ca94"/><path d="M151.54,599.29,152,587l.42-29.43a35.46,35.46,0,0,1-8.07-5.42,29,29,0,0,1-3.88-4.13c-1,3.54-1.52,5.77-1.66,6.67l-3.56,20.82q-.47,3,1.67,7.42a41.92,41.92,0,0,0,9.57,12C148,596.26,149.66,597.73,151.54,599.29Z" fill="#f9ca94"/><path d="M223,780.62q-6.89.64-8.36,3.14a17.64,17.64,0,0,0-.85,6.23,10.55,10.55,0,0,0,1.13,4.5,7.47,7.47,0,0,0,5,3.56,19.15,19.15,0,0,0,2.38.32l5.1.25a36.81,36.81,0,0,0,4.87-.14c4.1-.36,7.71-.77,10.86-1.25a32.12,32.12,0,0,0,5.88-1.67q5.17-2.32,3.85-5.95c-1.08-1.66-3.42-3.23-7-4.69l.69,4q-3-6.39-7.7-8.15a14.82,14.82,0,0,0-3.73-.43l-8.27,0c-1.25,0-2.52.09-3.8.2" fill="#f9ca94"/><path d="M176.93,780.38a13,13,0,0,1-1.4,5.54,8.46,8.46,0,0,1-1.18,1.64l-2.21,2.1a12.29,12.29,0,0,0-1,1.08,6.84,6.84,0,0,0-1.24,2.43,3.27,3.27,0,0,0,.4,2.67,5.79,5.79,0,0,0,2.28,2.42,22.33,22.33,0,0,0,8.72,2.69q8.48,1.44,11.69,1,8-.87,8.51-6.11a9.17,9.17,0,0,0-.63-3.43,65.62,65.62,0,0,0-2.65-6l-.91-2.47-20.4-3.52" fill="#f9ca94"/><path d="M301.59,480.93a2,2,0,0,0-1.89,1.73l-2,38.24q9.62,17.21,13,15,1.53,1.1,2.57-7.29L316,492.71q-5.53-9.22-14.09-11.86Z" fill="#b9b9b9"/><path d="M301.07,483.13l-3,33.28a15.24,15.24,0,0,0,.06,2.16,5,5,0,0,0,1,2.72l7.25,8.86a12.35,12.35,0,0,0,1.67,1.65c.16.15.26.12.29-.08l1.15-10.12c.56-6.86.86-10.34.91-10.46l.71-6.42c.67-4.71,1-7.6,1.08-8.65.21-2,0-3.4-.49-4.15l-10.69-8.82" fill="#ede8e3"/><path d="M301,493.38l-2.84,22a4.3,4.3,0,0,0,.74,1.59l3.62,5.14c.33.47.7.94,1.1,1.42q3.27,3.81,4.56,3.88v-.13c0-.37-.1-.7-.14-1L307.3,522c-.24-1.41-.47-2.63-.68-3.64,0-.13-.47-2.14-1.41-6q-1.05-4.9-1.52-7c-.47-2.06-1.19-5.19-2.17-9.41-.22-1-.4-1.83-.55-2.59" fill="#bfe9e1"/></g><path d="M270.21,732.51l-.29-8.78-6-76.23q-.53-9.57-4.26-36.42-1.09-22.77-1-26.67a134.39,134.39,0,0,1,.92-18.1c0-.64.22-1.95.5-3.88a17.22,17.22,0,0,0,5.69-2.86q5.19-4.08,5.41-7.58a33.22,33.22,0,0,0-1.19-5.7q-1.63-5.68-3.15-9.61c-.9-2.18-1.68-4.08-2.37-5.72,0-1.59-.11-3.2-.28-4.82q-1.05-9.17-5-13.84-3.89-4.36-7.62-5.53a41.63,41.63,0,0,0-6.3-1.67L240,501q-13.57-4.2-19.49-7.94l-39.34-1.55H181a26.66,26.66,0,0,0-12.25,4,9.64,9.64,0,0,0-2.5-.62h-.05l-6.91,2.84-6.81.83q-1.71.78-2.1,4.29a25,25,0,0,0,0,3.61q-1.48,2.87-4.08,8.26-1.25,2.6-3.74,9.18a80,80,0,0,0-2.51,8.44q-.69,2.73-2,9.12a4.52,4.52,0,0,0-.06,1.27q.65,4.31,6.37,9.42a35.46,35.46,0,0,0,8.07,5.42L152,587l-.82,21.89q-1.71,23.08-3.71,39.67l-.69,12,.36,33.89-1.48,38.83c.11,2.24.3,4.25.56,6.1-.05.58-.09,1.14-.14,1.73l0,6.91q.36,10.82,3.39,13.1,7.51,2.14,8.52,2.22,7.81.88,12.29,1.44c.06,2.41.13,3.82.19,4.21.19,2.86.45,5.57.78,8.11a25.54,25.54,0,0,0,1,4.89h0a50.11,50.11,0,0,0,11.44,2.31,73.45,73.45,0,0,0,11-.11l.51,0a54.75,54.75,0,0,0,5.85-1h0a8.26,8.26,0,0,0,.32-3l-.34-9a56.93,56.93,0,0,0,6.26-.52c1.45-.19,3.26-.47,5.4-.83.72,9.15,1.34,13.68,1.87,13.55q2.25,1.23,11.39.52,13.65-2.05,19.37-4a99,99,0,0,0,.12-13.07H246q2.2-.1,4.35-.42,18.1-2.16,20.83-9.83Q271.94,751.72,270.21,732.51Z" fill="#fff"/><g id="layer7-2" data-name="layer7"><path d="M249.92,394.9l-77.78,2.64,0,.18a177.8,177.8,0,0,0-2.46,28.64c-.25-.14-.51-.3-.77-.43a4.54,4.54,0,0,0-2.71-.53h0q-5.11.89-7,8.08A19.28,19.28,0,0,0,161,447.32a29,29,0,0,0,8.88,9.88,58,58,0,0,0,5.72,3.6,56.61,56.61,0,0,0,13.53,20.07c.48.35,1,.67,1.49,1,0,.64,0,1.21,0,1.68a37.2,37.2,0,0,0,.88,8.09,9.75,9.75,0,0,0,2.58,4.88,21.06,21.06,0,0,0,6.47,5.43,14.56,14.56,0,0,0,9.6,1.33,16.93,16.93,0,0,0,9.15-4.63,5.42,5.42,0,0,0,1.53-3.45l.38-9.63c1.76-.27,3.55-.58,5.41-1q22-6.76,23.69-21Q257,410.14,249.92,394.9Z" fill="#f9ca94"/><path d="M190.74,480.14a23.18,23.18,0,0,0,5.74,5.6,40.67,40.67,0,0,0,5.09,2.55,22.2,22.2,0,0,0,3.81,1.22,19.76,19.76,0,0,0,8.43,0,10.51,10.51,0,0,0,3.28-1.35,4.79,4.79,0,0,0,2-1.91c.09-.05-.08-.08-.53-.08-1.89,0-3.24,0-4-.1q-6-.36-6.45-.44a68.45,68.45,0,0,1-7.54-1.15q-7-1.59-9.78-4.34" fill="#d7b287"/><path d="M168,439.29l.63,1.8.85.34a6.63,6.63,0,0,0-1.48-2.14m-4.54-4.89a3.58,3.58,0,0,0-2.31,1.23,4.9,4.9,0,0,0-1.14,2.7,7.91,7.91,0,0,0,.44,3.23,14.85,14.85,0,0,0,1.83,3.86s0-.09,0-.35c-.09-1.41-.13-2.35-.14-2.82a10.62,10.62,0,0,1,.07-1.4,4.12,4.12,0,0,1,.84-2.3,2.57,2.57,0,0,1,2.31-.59,5,5,0,0,1,2.6,1.31,11.61,11.61,0,0,0-2-3.94,3,3,0,0,0-2.52-.93" fill="#d7b287"/></g><g id="layer8"><path d="M243.78,776.32l-.87.2-4.42.74-3.44.67-1.66.3q-1.09.21-5.34.78-1.89.25-6.69.6l-2.56.16c-3.24.13-4.83.21-4.76.22l.48,5.27a14.15,14.15,0,0,0,1.79,0c2.56-.25,3.92-.37,4.07-.37l6-.33,1.63-.13c.91-.09,1.74-.18,2.49-.28l4.27-.57,3.86-.43c.47-.06.88-.12,1.25-.19a15.85,15.85,0,0,0,4.49-1.38,4,4,0,0,0,1.64-1.27,5.39,5.39,0,0,0,.23-2.46c-.09-.67-.2-1-.32-1.08a.61.61,0,0,0-.25-.06,5.45,5.45,0,0,1-1-.07,2.15,2.15,0,0,1-.73-.26h-.13" fill="#a0dde9"/><path d="M201.29,780.25c-.19-.48-.38-.71-.59-.7h0l-.49.06a.87.87,0,0,0-.23-.16h-.1l-1.32.28-.78.11s-1.06.07-3.27.17a65.3,65.3,0,0,1-6.92-.17c-.86,0-2-.16-3.33-.35q-2.48-.42-9.32-1.32l-3.54-.55h0l.63,5.71a3.47,3.47,0,0,0,1,.34l3.91.89a51.17,51.17,0,0,0,6.05.84c.76.05,1.33.08,1.69.08,3.37,0,5.26.06,5.66,0a66.42,66.42,0,0,0,7.6-.42,5.73,5.73,0,0,0,2.54-.86l0,0a1.35,1.35,0,0,0,.68-.51,11.15,11.15,0,0,0,.3-1.92A4.31,4.31,0,0,0,201.29,780.25Z" fill="#a0dde9"/><path d="M171.45,797.11l-1.86,1.19a5.62,5.62,0,0,0,.5,3.15,2,2,0,0,0,1,1,15.46,15.46,0,0,0,3.92,1.16,82.21,82.21,0,0,0,16.18.6,30.83,30.83,0,0,0,5.44-.71,10.78,10.78,0,0,0,3.35-1.36,4.15,4.15,0,0,0,2-2.52,3,3,0,0,0-1.78-2.36,4.37,4.37,0,0,0-1,0q-4.35.47-8.33.75c-1.75.11-3.66.17-5.73.16a71.39,71.39,0,0,1-13.64-1.12" fill="#6c9aa3"/><path d="M185,785.67a32.8,32.8,0,0,0-6,1.1,29.34,29.34,0,0,0-5.09,2.11,16.8,16.8,0,0,0-3.79,2.78,5.86,5.86,0,0,0-.95,1.45l.6.46q3.09-1.61,11.68-4a27.5,27.5,0,0,1,7.32-1.22,19.23,19.23,0,0,1,12.89,5.25,12,12,0,0,0-2.81-3.48,16.63,16.63,0,0,0-4.12-2.92,18.59,18.59,0,0,0-9.74-1.58" fill="#6c9aa3"/><path d="M251,793.65a4.66,4.66,0,0,0-2-.08c-.54.09-1.17.23-1.86.4l-3.45.89c-.6.15-1.56.35-2.86.61q-2.69.51-5.68.81-3.76.3-7.73.41c-1,0-2.67.06-5.16.08a45.24,45.24,0,0,1,5.89-5.37,21.73,21.73,0,0,1,5.63-3.13,27.46,27.46,0,0,1,15.34-1l.95-1.17a14.1,14.1,0,0,0-3.56-2.3,20.12,20.12,0,0,0-4.69-1.38,12.12,12.12,0,0,0-3.87-.2h0a27.27,27.27,0,0,0-8.36,2.09,28.68,28.68,0,0,0-7.8,4.75,11.75,11.75,0,0,0-2.3,2.86,13.53,13.53,0,0,0-1.74,4c0,.24.23.47.8.68l.64.18h-2.44l3.93,1.53-6.13-1.82a14.63,14.63,0,0,0-2.43-.52h0c-.17,0-.2.12-.08.24l1.27,1a21.76,21.76,0,0,0,2.95,1.77,48.9,48.9,0,0,0,8,3.09,41.92,41.92,0,0,0,7.11,1,53,53,0,0,0,7.62-.4,46.6,46.6,0,0,0,7.23-1.25,12.86,12.86,0,0,0,4.28-2,5.83,5.83,0,0,0,2.52-3.73C253.13,794.78,252.48,794.09,251,793.65Z" fill="#6c9aa3"/><path d="M138.81,538a19.83,19.83,0,0,0-.87,3.2,5.2,5.2,0,0,0-.11,1.79,12.83,12.83,0,0,0,2.24,4.9,23.65,23.65,0,0,0,3,3.27,55.28,55.28,0,0,0,4.58,3.68c2.37,1.89,4.12,2.77,5.24,2.66l.74-4c.11-.65.18-1.14.2-1.46a4.39,4.39,0,0,0-.45-2.35,39.86,39.86,0,0,1-9.22-5.1,17.18,17.18,0,0,1-5.3-6.64" fill="#a0dde9"/><path d="M270.66,547.7a8.17,8.17,0,0,1-1.17,2.1,12.59,12.59,0,0,1-2.06,2.34,17.58,17.58,0,0,1-2.2,1.55,25.13,25.13,0,0,1-2.8,1.3c-.41.2-.71.36-.91.48a3.59,3.59,0,0,0-1,.93.62.62,0,0,0-.13.34c0,2.35-.1,4.18-.21,5.5l.17.29a12,12,0,0,0,2.11-.86,23.88,23.88,0,0,0,2.9-1.73,31,31,0,0,0,2.45-2.07,14.77,14.77,0,0,0,2.17-2.35,7.19,7.19,0,0,0,1.27-3.29,14.27,14.27,0,0,0-.17-2.62,6.84,6.84,0,0,0-.39-1.91" fill="#a0dde9"/><path d="M229.27,499.81q-.09-3.93-4.63-6.74l0,0-.45.44-3-2.23v0a24,24,0,0,1-.54,4.14,5.32,5.32,0,0,1-1.17,2.11,21.5,21.5,0,0,1-8.92,5.78c-.1.05-.19.24-.27.53a1.68,1.68,0,0,0-.19-.38q0-.11-.51-.12-3.36,0-3.84-.12a12.43,12.43,0,0,1-1.95-.31,12.58,12.58,0,0,1-4.55-2.14,21.94,21.94,0,0,1-2.63-2.28,34.35,34.35,0,0,1-3.32-3.66,10.89,10.89,0,0,1-2.1-5h0l-3,1.25v0l-4.21-.1,0,0a45,45,0,0,1,3.63,7.89c.63,1.81,1.09,3.23,1.38,4.24q1,3.89,2.49,8.74c.2.7.39,1.44.57,2.2q1.62,7.18,3.34,18.59c.5,3.35,1,7.45,1.59,12.33l.86,6,.24,2.11.41,4.6c.12,1.15.26,2.12.41,2.89.05.25.1.51.16.76l-3.68.47c-.69.09-1.28.18-1.76.27l-1.34.25-5.64,1.14a1.11,1.11,0,0,0-.46.23,4.91,4.91,0,0,0-1.09,2.81c-.17,2.07-.1,3.21.22,3.4.11.27.84.49,2.17.66a17.24,17.24,0,0,0,3.59-.09c.91-.1,1.88-.25,2.91-.46.43-.08.88-.18,1.37-.3,2.21-.55,3.58-.88,4.12-1,.69-.15,1.41-.28,2.14-.41l0,.3a1.92,1.92,0,0,0,.14.37.64.64,0,0,0,.17.24.38.38,0,0,0,.13.06l1.49-.32.16,0h0q7.33-1.54,8.71-1.32a7.93,7.93,0,0,1,1.57.2,25,25,0,0,1,3.84,4.28,14.89,14.89,0,0,1,2.29,4.66q1,9.56-1.37,13a10.82,10.82,0,0,1-3.57,2.85q-1.76.9-7.61,3.29L203.8,598a7,7,0,0,1-2.17.54,4.18,4.18,0,0,1-3.22-1.09c-.8-.52-2.38-2.25-4.72-5.18a4.09,4.09,0,0,0-1.31-.93,4.27,4.27,0,0,0-4.88,1.08c0,.18.18.39.5.63q9.6,6.74,9.66,6.51a17.27,17.27,0,0,0,6.87,2.3,10.49,10.49,0,0,0,3.75-.85q1.28-.37,7.12-3.09l4.62-1.74a8.13,8.13,0,0,0,3.63-3.09,14.29,14.29,0,0,0,1.91-6.82l.22-10.2q1-14.48,1-16.14c0-1,0-1.93,0-2.85a80.65,80.65,0,0,0,.87-9.3l.35-11.19,1-20.27.31-13.41C229.32,501.58,229.31,500.55,229.27,499.81Zm-26.51,60.68a2,2,0,0,0-.25.26v0c-.07-.58-.13-1.15-.2-1.73-.58-5.8-1-9.82-1.29-12.07q-1.61-12.48-2.4-18.17c-.71-6.39-1.1-9.73-1.15-10a72.28,72.28,0,0,0-1.32-7.22c-.55-2.34-1.22-4.72-2-7.16l-.26-.7h0v0h0a21.38,21.38,0,0,0,7.35,4.38,15.68,15.68,0,0,0,4.17.77l0,.23-.16,3.94,0,1.8c0,.85.07,1.69.15,2.54q.42,3,.76,6.81l.1,2.16,0,2.17c0,.72-.09,1.79-.26,3.21l-.14.8c-.07.73-.14,1.23-.19,1.52l-.28,1.4a2.7,2.7,0,0,1-.52.94c0,.06,0,.11,0,.13a6.59,6.59,0,0,0,1.69.19l3.55.66.75.07c.27.09.45-.08.55-.5a27,27,0,0,0,.13-3.29l-.18-4.17c0-.15,0-.57,0-1.28l0-1.49c.1-2.12.14-3.8.13-5l.1-1.42.05-3.24.19-2.22c.24-1.33.36-2.18.38-2.55l.16-3.06c0-.46,0-.9,0-1.32a9.17,9.17,0,0,0,1.21.05,13.47,13.47,0,0,0,4.82-1.12,10.51,10.51,0,0,0,3.34-2.83l.33-.4a62.12,62.12,0,0,1-.47,8.31c-.28,2.5-.67,5.09-1.14,7.78q-1.59,8.81-3.85,20-.48,2.51-1.06,6.42-.77,5.65-.65,5.48-.09.69.06,6.77Q213.39,560.18,202.76,560.49Z" fill="#a0dde9"/><path d="M206.63,585.27c.22.11.39.19.5.23a.63.63,0,0,0,.3,0,.36.36,0,0,0,.21-.11l.4-.44a4.15,4.15,0,0,0,1.18-3.5q-.18-1-3-4.17h0l-1.82,2.14c-.16.22-.31.45-.45.68a8.88,8.88,0,0,0-.7,1.42,1.74,1.74,0,0,0-.13.85.73.73,0,0,0,.2.35,16,16,0,0,0,1.21,1.09A13,13,0,0,0,206.63,585.27Z" fill="#a0dde9"/></g><g id="layer10-2" data-name="layer10"><path d="M198.06,417.78a13.81,13.81,0,0,0-3.27.65,14,14,0,0,0-3,1.61c-1.15.8-1.71,1.29-1.69,1.46-.46.87-.49,1.46-.1,1.76a.65.65,0,0,0,.33.09c.14,0,.46,0,1-.07s2.08-.23,4.85-.58c.67-.08,1.24-.13,1.7-.16a21.21,21.21,0,0,1,2.77,0,20.14,20.14,0,0,1,7.9,1.81l.91-4.23a23.39,23.39,0,0,0-5.69-2,19.53,19.53,0,0,0-5.65-.28" fill="#414141"/><path d="M237.56,417.08q-11.37,1.14-7.78,6.45,9-3.3,20.1,1.32-2.61-8.66-12.13-7.79Z" fill="#414141"/><path d="M208.78,433.14a13,13,0,0,0-3-1.69,15.75,15.75,0,0,0-7.28-.9h0a17.89,17.89,0,0,0-5.38,1.33,29.34,29.34,0,0,0-2.92,1.37l0,.62a27.67,27.67,0,0,1,5.12-1.2,23.83,23.83,0,0,1,5.28-.13l.84.09-.31.1-.16.07a5.28,5.28,0,0,0-1.4.9,2.41,2.41,0,0,0-.67,1.14,3.39,3.39,0,0,0-.13,1.57,5,5,0,0,0,2.27,3.2,4.16,4.16,0,0,0,3.57.48,4.61,4.61,0,0,0,2.34-1.46,3.51,3.51,0,0,0,.7-2.61,4.15,4.15,0,0,0-1.53-2.55h0a17.45,17.45,0,0,1,1.91.67c.92.38,1.9.85,2.95,1.39a.46.46,0,0,0,.25.07A9.49,9.49,0,0,0,208.78,433.14Z" fill="#414141"/><path d="M247.6,433.32a1.79,1.79,0,0,0,.42.16,11.67,11.67,0,0,0-4.35-3.4,10.66,10.66,0,0,0-5.43-.9h0a17.26,17.26,0,0,0-4.54,1.24,22.2,22.2,0,0,0-4.39,2.42l.41.09a26.86,26.86,0,0,1,5.27-1.77,13.88,13.88,0,0,1,3.68-.37,17.31,17.31,0,0,1,2.73.33h-.09a4.18,4.18,0,0,0-1.2.48,2.56,2.56,0,0,0-1.27,2.12,3.13,3.13,0,0,0,.53,1.5,5.72,5.72,0,0,0,1.31,1.47,3.83,3.83,0,0,0,5-.1,2,2,0,0,0,.58-1.64,4.49,4.49,0,0,0-1.45-2.9,2.34,2.34,0,0,0,.24.09C245.72,432.44,246.58,432.83,247.6,433.32Z" fill="#414141"/><path d="M197.67,461.14a27.93,27.93,0,0,0,6,6.86,19.28,19.28,0,0,0,7.67,4,21.68,21.68,0,0,0,8.78.09,27,27,0,0,0,4.51-1.27,21.29,21.29,0,0,0,4.84-2.31l1-.67.68-1.22a28,28,0,0,1-8.73,2.49,31.68,31.68,0,0,1-9.78-.76,38.33,38.33,0,0,1-14.9-7.22" fill="#414141"/><path d="M180.11,469.19a25.77,25.77,0,0,0,10.29,12.37,21.4,21.4,0,0,0,6.38,2.86,52.41,52.41,0,0,0,10.19,1.9q11.11,1.06,18.68-1.15a84.12,84.12,0,0,0,11.17-4.34,23.75,23.75,0,0,0,6.45-4.75l0,0a16.85,16.85,0,0,1-2.12.7,11.77,11.77,0,0,1-1.87.31,6,6,0,0,1-2.86-.44,3.93,3.93,0,0,1-1.76-1.32l-2-3.6q.51,7.41-5,9.88a11.09,11.09,0,0,1-3,.71,15.74,15.74,0,0,1-4-.1,6.66,6.66,0,0,1-1.91-.62l-3.42-2.1a2.84,2.84,0,0,0-1.28-.32,2.91,2.91,0,0,0-1.3.34L210,481.19a8.46,8.46,0,0,1-1.1.52,4.1,4.1,0,0,1-2.11.19,26.59,26.59,0,0,1-7-2,16.5,16.5,0,0,1-5.23-3,4.42,4.42,0,0,1-1.41-2.68l0-4.92c0-.63-.06-.93-.16-.92a15,15,0,0,1-2.72,4.45,4.7,4.7,0,0,1-3.17,1.38,6.73,6.73,0,0,1-4.13-1.31l-2.87-3.75" fill="#414141"/><path d="M224.18,436.58l-.65.4q.32.93.66,1.83,1.68,4.33,2,5.17c.13.33.81,2.31,2,5.93a9.31,9.31,0,0,1,.75,3.79,4.24,4.24,0,0,1-1.94,3.15,12.78,12.78,0,0,1-5.36,1.7c4.13-.29,6.48-.7,7-1.23q2.35-1.27,1.64-4.89a19.24,19.24,0,0,0-.95-2.92c-.14-.35-.3-.71-.46-1.08l-1.43-3.12q-1.62-3.71-2.11-5a31.93,31.93,0,0,1-1.16-3.71" fill="#d7b287"/><path d="M269,387.53a40.22,40.22,0,0,0-13.53-22,29.66,29.66,0,0,0-10.16-4.9,30.3,30.3,0,0,0-4.68-.86l-9.07-.58A121.55,121.55,0,0,1,245,346.32v-.13l-1.18,0c-1.85,0-3.7.14-5.53.28h-.09a28.59,28.59,0,0,0-12.06,3.56q-2.19,1.41-4.15,2.86a22.44,22.44,0,0,0,.59-2.28A13,13,0,0,0,218.32,339l-.06.08q1.61,9.64-14.46,16.83-8.18,3.35-12.92,3.76l-.75.05a39.66,39.66,0,0,1,3.14-4.47l5.62-5.92c.28-.29.34-.44.17-.44h0q-13.35,2.31-19,6.57-7.16,4.62-15.16,21.46-1.43-5.52,2.72-15.91h0a26.71,26.71,0,0,0-8.38,8.68,19.11,19.11,0,0,0-2.48,10,27.35,27.35,0,0,0,.49,4.28l2.27,8.33a10.51,10.51,0,0,1,.28,3.11A48.34,48.34,0,0,0,155.63,416a98.43,98.43,0,0,0,3.44,28.1q-2.92-11.93,3.8-15.82a7.53,7.53,0,0,1,2-.5,3.63,3.63,0,0,1,3.42,1.43q1.13.68,2.64,10-.21-9.84,2.06-16.49a33.59,33.59,0,0,1,2.26-5.62l4.61-7.44q1.07-1.86,2.27-4.55a17.52,17.52,0,0,0,1.22-4.16q15.9,2.18,27.7,18.07Q209,409.63,200,403q30.51,2.7,33.73,1.48-4.66-1.58-5.22-2.59l2.28.2a30.24,30.24,0,0,1,4,.77q3.36.76,9.89,4.4c.24.05.29,0,.17-.33-.73-1.46-1.5-2.93-2.3-4.39q-1.48-2.78-4.8-7.89c0-.13,0-.15.17-.06.72.31,1.43.64,2.15,1a29.46,29.46,0,0,1,9.81,8.19,26.59,26.59,0,0,1,2.7,4.12q1,1.68,3.42,7.56c.23.55.43.86.6.91q2.58-4.78,2.72-12.95a28,28,0,0,0-.52-5q-.21-1.69-2.34-9.75c-.34-1.66-.44-2.58-.3-2.74s1.8.89,4.9,3.57a29.16,29.16,0,0,1,4,4.44,36.42,36.42,0,0,1,5.5,11.73Q272,398.35,269,387.53Z" fill="#414141"/><path d="M201.52,433.77l-1.26.17a1.85,1.85,0,0,0-.61,1.41,1.79,1.79,0,0,0,.69,1.24,2,2,0,0,0,1.46.45,1.51,1.51,0,0,0,.94-.52,1.31,1.31,0,0,0,.34-.94,2.09,2.09,0,0,0-.49-1.13,2.29,2.29,0,0,0-1.06-.68" fill="#fff"/><path d="M240.69,432.32l-.16,0-.21.06-.46.1a1.42,1.42,0,0,0-.19,1.13,1.7,1.7,0,0,0,.57,1,1.39,1.39,0,0,0,1,.32,1,1,0,0,0,.79-.48,1.42,1.42,0,0,0-1.33-2.13" fill="#fff"/></g><g opacity="0.07"><path d="M214.43,549.56q0-1.2,1.52-10.31.51-2.84,1.22-5.52l3.94-14.22q.64-2.58,1-4.92a48.33,48.33,0,0,0,.22-12.16h0l-4.38,2-.12.59a6.3,6.3,0,0,0-.08.89c0,2.39,0,3.95,0,4.7,0,1.06-.16,2.26-.34,3.62s-.62,4.44-1.16,8.87l-.58,3.93q-.23,1.53-.72,4.35L213,542c-.28,1.75-.49,3.41-.6,5a36.35,36.35,0,0,0,.16,6.85,27.78,27.78,0,0,0,1.37,6.36C214,556.09,214.14,552.55,214.43,549.56Z"/><path d="M203.6,557.14l-.69-5.52c0-.35-.35-2.38-.95-6.09-.12-.79-.22-1.55-.29-2.26s-.19-2-.31-3.87l-.46-8c-.1-1.5-.21-2.84-.32-4-.37-4-.8-7.39-1.29-10.07a61.56,61.56,0,0,0-8.67-21.19h0l11.87,64,1.14-1.24a1,1,0,0,0,.09-.68C203.68,557.8,203.64,557.48,203.6,557.14Z"/><path d="M155.32,532.12c0-.84,0-1.57,0-2.19q-.22-6.39-1.06-13.44h0l-2.13,4.62a62.88,62.88,0,0,1-.14,8.93q.09-.31-1.11,12.19l-.86,8.2c-.18,2-.31,3.64-.37,4.94a114.29,114.29,0,0,0,.1,12.56c.06,1.24.14,2.52.24,3.82-.06.32-.09.67-.16,1s-.38,1.84-.94,4.22c-.11.5-.2,1-.27,1.37a21.57,21.57,0,0,0-.25,3.24,28.52,28.52,0,0,0,.79,6.65c.18.87.68,2.6,1.51,5.16.59,1.55.92,2.21,1,2l.22-2.46c.29-2.69.43-4.13.43-4.32.06-.62.14-2.28.25-5l.23-3.67c0-.43,0-.88,0-1.35,0-1.83,0-3.64,0-5.43l-.06-2.52c0-2.62,0-3.93,0-3.93s0-.22,0-.33c.32-1.5.54-2.53.64-3.08.26-1.38.51-3,.76-4.74q1.08-8.73,1.25-12.52c.06-1.24.09-2.5.08-3.78C155.33,538.53,155.32,535.16,155.32,532.12Z"/><path d="M263,580.7c-.1-.86-.17-1.64-.2-2.32,0-.41,0-.91,0-1.51l0-8.07,0-4.23c0-2.92-.12-4.91-.26-6s-.26-2-.44-3.14l-.86-4.56c-.1-.54-.21-1.21-.32-2-.09-.58-.26-2-.52-4.27q-.54-5.43-.61-5.89c-.11-1-.28-2.17-.51-3.56-.27-1.67-.53-3-.77-4.11q-.06-.4-1.37-5.48v.49q-.71-5.31-1.48-9.18l-2.5-2.76v0a28.15,28.15,0,0,1,1.26,5.71c.13.95.22,2,.29,3.14.13,2.17.2,3.89.22,5.15q0,.95,0,1.86-.09,5.64-.07,6.59l0,9.16.05,7.41c0,1.34,0,2.65,0,3.94q.06,0-.5,19.93l-.12,6.53c0,1.07,0,1.64,0,1.69q1.09-4.29,2.23-11.11c.1-.58.18-1.13.27-1.69,0,.51,0,1-.05,1.6a18.14,18.14,0,0,0,.1,2c.14,1.19.38,2.49.68,3.84v.26c.05,1.4.1,2.89.16,4.46a8.55,8.55,0,0,0,.06,1c.11-1.39.21-2.65.31-3.78a8.39,8.39,0,0,0,.52,1.09,14.09,14.09,0,0,0,1.88,2.55,16.65,16.65,0,0,0,3.57,3.39l-.35-3.26C263.19,582.62,263,581,263,580.7Z"/><path d="M314.92,522q-.36-4.1-.33-4.56h0l-.51,2.4a33.19,33.19,0,0,1-.52,5.29,33.83,33.83,0,0,1-.86,3.9,9,9,0,0,1-2.85,4.7,1.71,1.71,0,0,1-2.21,0,80.53,80.53,0,0,1-6.39-6.24c-.3-.27-.46-.38-.47-.31a27.69,27.69,0,0,0,1.92,5.31,18.86,18.86,0,0,0,3,4.1,11.78,11.78,0,0,0,4.21,2.92c1.34.53,2.36.5,3.08-.08q1-1.2,1.92-10.95a46.37,46.37,0,0,0,.13-4.87C315,523.11,315,522.58,314.92,522Z"/><path d="M298.41,513.67h0l-.33,2.86-.44,1.56c-.06.21-.11.42-.15.62a6.92,6.92,0,0,0-.15,1.34,22.25,22.25,0,0,0,.42,6.16c0,.08.05.07.08,0a15.68,15.68,0,0,1,.64-3.11c.15-.48.31-.93.48-1.36,0-.12.29-.67.74-1.65.08-.2.16-.38.22-.56a5.26,5.26,0,0,0,.31-1.26,5,5,0,0,0-.35-2.42A6.45,6.45,0,0,0,298.41,513.67Z"/><path d="M261.51,695q-1.15-14.38-1.4-18.55-.41-6.29-.56-11.23-.12-3.94-.14-7.28l.06-15.59q-.06-6.29-.17-10.88v-.22l-5.54-15.94v0a121.88,121.88,0,0,1,2.86,17q.7,6.46,1.27,23.12.14,3,.38,16.43l.49,13.62c.1,3.52.17,6.74.2,9.63q0,6.71,0,13.58l-.37,26.62q0,13.62.26,15.9c.11,1,.49-.05,1.14-3.07A77.7,77.7,0,0,0,261.5,740a113.25,113.25,0,0,0,.85-15.16q0-12.13-.49-23.87C261.75,698.72,261.64,696.74,261.51,695Z"/><path d="M189.48,656.08c-.19-1.66-.34-3.18-.47-4.55q-.24-2.55-.4-5.75,0-.09-.33-10.07c-.08-1.77-.15-3.17-.22-4.18s-.17-2.18-.3-3.54l-.81-7.73-.41-4.84h0q-.27,2.6-.37,7.15l-.07,13.21-.07,5.13c0,1.38-.06,2.72-.1,4q0,2.49-.79,16.47c-.08,1.69-.14,3.42-.17,5.17q-.17,6.52.19,16.94.14,3.93.29,7.55l1.14,26.65.56,17.5q.17,3.9.34,5.78a54,54,0,0,0,1.39,8.85L190.7,756c.17.39.38.42.62.08q2.76-5.26,3.92-15.23.39-3.6.47-7.47.07-.67-.12-11.26,0-2.39.11-6.34l.45,21.8q.1-9.6-.18-18.77-.28-8.75-1.14-16.68-.6-5.65-1.47-13.1-2-16-1.91-15.43Z"/><path d="M163,708c-.19-1.62-.32-2.34-.41-2.15h0c-.1,0-.2.33-.31.87q-1.36,8.38-2,11.18-1.25,5.8-3.4,14.66c-.3,1.34-.55,2.79-.75,4.36a59,59,0,0,0-.33,9.33,54,54,0,0,0,1,8.94l5.58-5.76q.25-6.55.43-10l.69-11.87q.15-3.27.16-6.45,0-5-.25-8.77C163.24,710.51,163.1,709.07,163,708Z"/><path d="M180,770.37a63.59,63.59,0,0,0,11.16,1.22q4.51-.11,6.75-1.55c.12-.15.07-.25-.16-.3-1-.1-1.8-.2-2.43-.29-3.48-.48-5.47-.76-5.95-.85l-5.09-.81-5.89-1.06a51.08,51.08,0,0,1-6.92-1.77h0l-1.56,1.57a27,27,0,0,0,4.41,2.29A32.75,32.75,0,0,0,180,770.37Z"/><path d="M219.36,774.4a10.64,10.64,0,0,1,1.9-.26c.24,0,.54,0,.9,0,1.82.07,2.86.09,3.11.07a14.59,14.59,0,0,0,2.07-.19,16.67,16.67,0,0,0,1.77-.4c.1,0,1.2-.34,3.32-1,.61-.17,1.16-.31,1.63-.42s1.22-.25,1.89-.35c0,0,1.17-.16,3.43-.42.58-.08,1.07-.16,1.48-.24a11.11,11.11,0,0,0,2.71-.84c.15-.08.22-.17.2-.26l-.41-1c-.47-1-.85-1.57-1.13-1.65a2.11,2.11,0,0,0-.56,0q-.1,0-6.21.27c-.68,0-1.35.08-2,.14h0q-.84.08-2.61.3-4.87.72-6.32.87l-2.62.28q-6.06.57-8.46.86l-.35,1.08.07.84q.47,5,1,5.4C215.07,776.15,216.82,775.15,219.36,774.4Z"/><path d="M196.76,789.92l-2.77-.83a12.31,12.31,0,0,0-2.68-1.36,14.58,14.58,0,0,0-6.28-.54h0a24.43,24.43,0,0,0-8.14,2.41,11.48,11.48,0,0,0-2.55,1.67,3.9,3.9,0,0,0-1.34,1.81,11.07,11.07,0,0,0,1.41-.28l.81-.22,2-.58,1.23-.34q1.22-.31,2.58-.6a30.47,30.47,0,0,1,4.78-.6,20.06,20.06,0,0,1,3.43.14c.5.06,1,.14,1.56.24q4.32.87,4.71.9a28.56,28.56,0,0,0,3.34.34c.26,0,.32-.11.16-.25A21.29,21.29,0,0,0,196.76,789.92Z"/><path d="M196.76,796c-.28,0-1.36,0-3.23,0h-1.12l-1.25,0-3.68-.17c-.82,0-1.57,0-2.26,0q-3.81,0-9.11.49h0l-4.58.42,1.09,1.66a20.44,20.44,0,0,0,2.36,1.1,15.19,15.19,0,0,0,2.6.74c.85.17,2.44.39,4.77.67a28.79,28.79,0,0,0,6.15.15,23.91,23.91,0,0,0,7.5-2,7.08,7.08,0,0,0,2.13-1.45c.73-.86.95-1.34.66-1.43A14.1,14.1,0,0,0,196.76,796Z"/><path d="M239,785.79h0a25.36,25.36,0,0,0-5.55,1.21,26.55,26.55,0,0,0-5.09,2.21A12.56,12.56,0,0,0,225,792a5.83,5.83,0,0,0-1,1.63c-.24.66-.23,1,0,.94a4.24,4.24,0,0,0,.79-.4c1.53-.93,2.77-1.64,3.7-2.13s2.12-1.09,3.28-1.62a21.46,21.46,0,0,1,4.82-1.59,29.1,29.1,0,0,1,6.55-.43c.89,0,1.69.1,2.42.19.35,0,.71.1,1.08.16,1.59.32,2.43.47,2.52.48a4,4,0,0,0,1.24.08c.1-.07.07-.17-.08-.33a13,13,0,0,0-1.45-1.2,8.06,8.06,0,0,0-2.29-1.2,13.44,13.44,0,0,0-2.81-.43,37.52,37.52,0,0,0-4.13-.13l4.11-.22A26.13,26.13,0,0,0,239,785.79Z"/><path d="M250.87,795a14.14,14.14,0,0,0-4-.51,27.52,27.52,0,0,0-3.21.2c-.68.08-1.36.17-2,.27-3,.48-4.65.74-4.93.76-1.13.15-2.23.25-3.29.32a51.11,51.11,0,0,1-9-.13,13.14,13.14,0,0,1-9.08-4.44h0l-.45,1.55a2.7,2.7,0,0,0-1.54,1.71,3,3,0,0,0,1.12,2.4c.72.7,2.51,1.54,5.38,2.5a31.82,31.82,0,0,0,6.27,1.51,45.27,45.27,0,0,0,8,.26,65.25,65.25,0,0,0,9.73-.89q6.09-1.21,7.25-4.39C251.21,795.49,251.15,795.12,250.87,795Z"/><path d="M171.28,514.52l.18,1.16c.26,2,.46,3.53.6,4.46s.32,2.05.57,3.57q.1.74,1.22,6.62c.15.78.28,1.54.4,2.27s.25,1.64.37,2.58.25,2.06.4,3.55c0,.22,0,.3,0,.25l.38-12.06c0-1.77.05-3.41,0-4.91a62.25,62.25,0,0,0-1.13-10.73,84.28,84.28,0,0,0-3.7-12.28l-4.13-2.22h0a10,10,0,0,1,1.61,3.27q1.13,3.92,2,8T171.28,514.52Z"/><path d="M244.32,527q0,.39.28,6.76c.16,3.31.25,5.14.25,5.48.07,1.77.13,3.7.17,5.8,0,.2,0,.28,0,.23.44-4.78.68-9.7.71-14.73q.06-6.82,0-9.16c-.07-2.38-.22-4.54-.46-6.46a62.45,62.45,0,0,0-1.57-9l-3.45-2.41h0q2,3.56,2.95,10.67c.06.53.1,1,.14,1.4.14,2.11.24,3.4.28,3.85,0,0,.17,1.74.52,5.19C244.21,525.52,244.27,526.3,244.32,527Z"/><path d="M187.56,407.51a77.08,77.08,0,0,0,18.51,4.36q2,1.75-.45-4.11,4.26,3.3,31.9.88l10.21-5.13q-.73.45,7.57,5.34-8.36-23.06-25-23.26l-.27,0q-3.25,5.11-16.82,5.07l1.24,5.49q-14,1.63-32.76-2.54a12,12,0,0,0-7,1.88q-7.14,31.17-3.3,34Q176.82,413.39,187.56,407.51Z"/><path d="M234.39,481.46q14-6.1,14.11-17.31c-.13-.65-.25-.87-.35-.66-1.33,2.49-3.75,5.11-7.29,7.86a32,32,0,0,1-7.56,4.32q-11.22,4-20,2.34a19.83,19.83,0,0,1-2.53-.81c-5.12-2.16-7.8-3.25-8-3.26q-8.38-2.22-9.35-2.77a14.94,14.94,0,0,1-4.65-2.62q-6.36-5.34-13.6-15.91l-1.26-6.17h0a68.82,68.82,0,0,0,2.37,14.78q2.46,8.42,5.6,12.61,5.75,8,19.35,10.89a51.25,51.25,0,0,0,17,.67A58.39,58.39,0,0,0,234.39,481.46Z"/><path d="M205.74,421l-8.4-.08h0a4.34,4.34,0,0,0-1.7.75c-.61.5-.86.85-.76,1.06a3.47,3.47,0,0,0,.66.35c2.5,1,4.1,1.73,4.83,2.12a18.06,18.06,0,0,1,2.95,1.89,19.81,19.81,0,0,1,3,2.9c.39.48.77,1,1.11,1.47l1.84,2.77a10.93,10.93,0,0,0,1,1.2,3.25,3.25,0,0,0,2.34,1.27,3.33,3.33,0,0,0,1.45-2.08,8.4,8.4,0,0,0,.22-3.46,11.86,11.86,0,0,0-3.2-6.84A12.44,12.44,0,0,0,205.74,421Z"/></g></g></g></g></svg>