<svg xmlns="http://www.w3.org/2000/svg" xmlns:xlink="http://www.w3.org/1999/xlink" viewBox="0 0 1080 1080"><defs><radialGradient id="radial-gradient" cx="632.59" cy="910.93" r="150" gradientTransform="matrix(1.95, 0, 0, 0.09, -789.07, 807.91)" gradientUnits="userSpaceOnUse"><stop offset="0" stop-opacity="0.3"/><stop offset="1" stop-opacity="0"/></radialGradient></defs><g id="Layer_2" data-name="Layer 2"><g id="Layer_1-2" data-name="Layer 1"><rect width="1080" height="1080" fill="none"/><path d="M1007.88,755.75c-19,42.87-45.26,76.84-76.71,103.49C894.85,890,851.65,911,804.94,924.69c-152,44.47-341.15,11.18-451.78-16.43-22.43-5.6-41.64-11-56.64-15.41a244.42,244.42,0,0,1-71-34.09l-.34-.24C77,754.53,14,605.9,63.28,465.13,64,462.93,209.39,15.86,554,163.51c151.3,64.82,95.65,119.9,263.35,188.79C895.78,384.51,999.53,442,1028,577.49,1038.14,625.85,1034.72,695.07,1007.88,755.75Z" fill="#ffebcf"/><ellipse cx="442.76" cy="891.03" rx="303.55" ry="16.5" fill="url(#radial-gradient)"/><path d="M700.12,546.89l-.06,0A131.19,131.19,0,0,0,692,565c-1,2.71-1.84,5.32-2.58,7.84l-.09,0q-27.23,6.54-28.26,6.32a72.77,72.77,0,0,1-9.31,1l-6.51.24-6.64,0q.27.35.22,10.81c.19,1.34.44,2,.76,2a24.17,24.17,0,0,0,4,1.07l2.08.23,19.35,2.89a86,86,0,0,0,11.4,1.12c.78,0,1.56,0,2.33,0l6.79-.43,7-.67c2-.33,3.19-.54,3.5-.62a26.7,26.7,0,0,0,5.84-2.48l.39-.24a12.53,12.53,0,0,0,4.51-2.53,30.88,30.88,0,0,0,6.46-8.33c.81-1.41,1.54-2.77,2.17-4.08l4.39-9.58,2.17-4.22Z" fill="#f9ca94"/><path d="M644.94,489.16l.33,1.74a7.39,7.39,0,0,0-.11-.9c0-.11,0-.23-.07-.35l-.14-.49" fill="#f9ca94"/><path d="M760.74,837.34c-1.6-.1-3.18-.14-4.73-.13l-10.32.2a17.94,17.94,0,0,0-4.64.67q-5.77,2.37-9.37,10.58l.75-5.13q-6.69,3-8.62,6.17-1.56,4.63,5,7.42a39.41,39.41,0,0,0,7.39,1.93q5.9.76,13.57,1.24a44.2,44.2,0,0,0,6.08,0l6.35-.48a23.51,23.51,0,0,0,3-.48c3-.9,5.08-2.47,6.16-4.68a13.6,13.6,0,0,0,1.28-5.74,22.64,22.64,0,0,0-1.24-7.87q-1.91-3.12-10.51-3.72" fill="#f9ca94"/><path d="M818.28,835.57l-25.34,5.1-1.06,3.17c-1.54,3.46-2.59,6-3.14,7.75a12.29,12.29,0,0,0-.69,4.37q.75,6.63,10.79,7.48,4,.46,14.55-1.63c4.66-.76,8.25-2,10.8-3.69A7.37,7.37,0,0,0,827,855a4.2,4.2,0,0,0,.41-3.39,8.58,8.58,0,0,0-1.61-3,15.73,15.73,0,0,0-1.25-1.34l-2.83-2.6a10.47,10.47,0,0,1-1.5-2,16.61,16.61,0,0,1-1.91-7" fill="#f9ca94"/><path d="M832.43,532.08l.47,2.9q1.54,5.85,1.93,7.91a43.65,43.65,0,0,1,.67,4.76q.11.58.24,6.07l-.06,16.64q0,3.48.81,20.86l.57,7.42,1.71,13.9q1.68,20.67,2.25,23.79a72.74,72.74,0,0,0,1.34,7.51q.74,3.24,2.59,9.76l1.34,6q0,.69,2.73,5.64.35.3,1.72-4.52a32,32,0,0,1,.8-3.43l.51-3.32,1.58-7.46a23.65,23.65,0,0,0,0-4.78l-.44-2.14-.74-5.34.36-5.38c.12-1.64.45-4,1-7L857.58,591q.63-5.81.8-9.69c.49-4,.8-7,.93-9.07l.21-3.86-.19-2.36-1.69-12c-.18-1.12-.48-2.54-.91-4.24l-.38-3.14-.42-1.35a11.52,11.52,0,0,0-.52-2.87,5.13,5.13,0,0,0-.58-1.45l-22.36-8.88" fill="#f9ca94"/><g id="layer6"><path d="M859.64,538.86a19.57,19.57,0,0,1-1.37-3.09l-2.11-6.34-1-2.16-4.4-11.88-1.06-2.59c-1-1.94-1.64-3.37-2-4.31l-2-5.53q-2.34-4.72-4.52-10.3c-.52-.93-1.24-2.4-2.18-4.44l-.38-.61c-1.5-9.5-6.48-14.34-15-14.46l-.2,0a13.71,13.71,0,0,0-2.9.78,4,4,0,0,0-1.08-2.51,1.33,1.33,0,0,0-.24-.11l-3.08-1a7.64,7.64,0,0,0-1.45-.28,4.31,4.31,0,0,0-1.05,0s-.58.11-1.77.38c-.75-.18-1.53-.36-2.34-.5a2.74,2.74,0,0,0-.32-.42,1.47,1.47,0,0,0-.44-.35l-1.73-.48-1.67-.61a4.46,4.46,0,0,0-.79-.14h0a5.31,5.31,0,0,0-3.86,1.66l-45,2.95a75.15,75.15,0,0,1-13.42,6.73l3-1.5a7,7,0,0,0-.79-.09h0a12.42,12.42,0,0,0-3.12.25q-2,.39-4.26.9a6.06,6.06,0,0,0-1.4.46,3,3,0,0,0-1,1,6.55,6.55,0,0,0-.49.75l-.47.84a4.42,4.42,0,0,0-1.64-.34h0a10.72,10.72,0,0,0-4.19.61c-.4.15-.86.35-1.37.6-1.95,1-3.13,1.67-3.55,1.85l-3.3,1.45a8.16,8.16,0,0,0-3.89,3.74,19.41,19.41,0,0,0-1.1,2.44,26.84,26.84,0,0,0-6.58,5.93q-4.86,6.06-5.91,17.73Q702,518.93,702,522l-2.79,7.33q-1.77,5-3.65,12.29a42.9,42.9,0,0,0-1.32,7.27q.38,4.43,6.95,9.44a21.27,21.27,0,0,0,7.19,3.45c.41,2.45.65,4.09.73,4.91a173,173,0,0,1,1.66,22.93c.12,2.28.09,8.45-.1,18.47q-6.09,66.36-9.74,165-2,28.54-.8,35.18,3.63,9.65,26.26,11.81c1.8.22,3.61.35,5.44.39l.61,0a126.81,126.81,0,0,0,.53,16.57q7.18,2.36,24.26,4.53c7.62.4,12.34.06,14.19-1q1,.21,2-17.26c2.69.39,4.94.69,6.75.88a69.07,69.07,0,0,0,7.83.47l-.18,11.42a11.12,11.12,0,0,0,.49,3.73h0a68.34,68.34,0,0,0,7.33,1.08l.63,0a90.59,90.59,0,0,0,13.75-.21,61.07,61.07,0,0,0,14.21-3.29h0a34.43,34.43,0,0,0,1.13-6.23q.51-4.86.75-10.32c.06-.5.1-2.28.11-5.34,3.71-.57,8.8-1.3,15.28-2.22A107.89,107.89,0,0,0,852,810.22q3.72-3,3.85-16.72l-.24-8.77c-.08-.73-.14-1.43-.22-2.16.26-2.34.44-4.94.52-7.79q-4.17-52.51-3.47-92.18-7.37-50.16-10.62-130.29l.53-.28-.07-1.49,3-1.14c1.37-.57,2.71-1.21,4-1.91l8-4.71,2.21-1.68a1.37,1.37,0,0,0,.47-.91Z" fill="#fff"/><path d="M857.74,534.15a14.12,14.12,0,0,1-2.68,3.13l-1,.84-.55.35-3,1.73c-.38.15-1.4.68-3,1.57l-3,1.42-1.82.78a18.09,18.09,0,0,1-2.22.78h-.12l-.06-.09-.36-.16c.1.38.22,1,.37,1.88l1.25,4.69,0,.7a.28.28,0,0,0,.1.2,3.26,3.26,0,0,1,.86-.6l4.3-1.55c.93-.45,1.73-.8,2.4-1.06l4.13-2.16,3.38-2.11,1-.82,1.39-1.29.94-.77a.58.58,0,0,0,.15-.51l-.56-2.12-1.25-3.57-.53-1.27" fill="#a0dde9"/></g><g id="layer7"><path d="M792.52,455.15q-3.35,3.57-12.07,5.82a82.3,82.3,0,0,1-9.37,1.7c-.36.07-3,.33-8,.76-1,.1-2.68.19-5,.25-.56,0-.78.07-.66.13a6,6,0,0,0,2.53,2.36,13.06,13.06,0,0,0,4.13,1.6,24,24,0,0,0,10.52-.26,26,26,0,0,0,4.72-1.66,51.52,51.52,0,0,0,6.26-3.4,28.84,28.84,0,0,0,7-7.28" fill="#d7b287"/><path d="M819.66,402.63a8.76,8.76,0,0,0-1.78,2.76l1-.45.74-2.31m5.51-6.35a3.71,3.71,0,0,0-3.12,1.27,14.72,14.72,0,0,0-2.38,5.06,6.14,6.14,0,0,1,3.2-1.74,3.13,3.13,0,0,1,2.89.66,5.34,5.34,0,0,1,1.13,2.9,15.38,15.38,0,0,1,.11,1.77c0,.6,0,1.8-.09,3.58,0,.33,0,.48.05.44a19,19,0,0,0,2.18-5,10.24,10.24,0,0,0,.45-4.11,6.16,6.16,0,0,0-1.5-3.38,4.46,4.46,0,0,0-2.91-1.5" fill="#d7b287"/><path d="M829.24,391.32v.05a11.26,11.26,0,0,0-3.44-2.93,9.6,9.6,0,0,0-2.57-.57,4.49,4.49,0,0,0-4.22,1.92q-1.41.9-3,12.81,0-12.48-3-20.85a43.68,43.68,0,0,0-3-7.06l-6-9.3q-1.38-2.31-3-5.69a22.36,22.36,0,0,1-1.64-5.24q-19.77,3.26-34,23.81,2.37-12,13.41-20.65-38,4.39-42,2.95,5.78-2.13,6.43-3.44l-2.83.32a36.18,36.18,0,0,0-5,1.11q-4.15,1.06-12.2,5.89c-.3.07-.37-.06-.23-.41.88-1.88,1.79-3.77,2.74-5.65q1.66-3.33,5.28-9.34H729.5l-.89.47q-6.17,3.15-12,10.7a33.34,33.34,0,0,0-3.24,5.31c-.18.33-.39.77-.63,1.29q-1.66,23.73,4.94,69.28,2.55,18,30.14,25.86c2.32.43,4.57.77,6.77,1.05l.75,12.2a6.94,6.94,0,0,0,2,4.34,21,21,0,0,0,11.54,5.57,17.9,17.9,0,0,0,11.94-2c2.39-1.19,5-3.56,7.92-7.09a12.6,12.6,0,0,0,3.07-6.28,47.14,47.14,0,0,0,.86-10.28c0-.6,0-1.32,0-2.13q.95-.61,1.83-1.29a72.28,72.28,0,0,0,16.3-25.89,71.85,71.85,0,0,0,7-4.75,36.8,36.8,0,0,0,10.79-12.81,24.86,24.86,0,0,0,2-17.61A23.28,23.28,0,0,0,829.24,391.32Z" fill="#f9ca94"/></g><g id="layer8"><path d="M776,578.91c-2.27,2.72-3.46,4.51-3.59,5.38a5.3,5.3,0,0,0,1.57,4.4l.51.55a.5.5,0,0,0,.26.13.73.73,0,0,0,.38,0,5.27,5.27,0,0,0,.62-.3,16.7,16.7,0,0,0,2.55-1.89c.59-.52,1.08-1,1.48-1.43a1,1,0,0,0,.24-.45,2.36,2.36,0,0,0-.19-1.07,12,12,0,0,0-.91-1.78c-.19-.29-.38-.58-.58-.85L776,578.91" fill="#a0dde9"/><path d="M734.8,832.55a.35.35,0,0,0-.16,0,2.91,2.91,0,0,1-.9.35,5.91,5.91,0,0,1-1.24.11.93.93,0,0,0-.3.09c-.15.08-.28.53-.37,1.38a7,7,0,0,0,.35,3.12,5.11,5.11,0,0,0,2.08,1.56,19.62,19.62,0,0,0,5.64,1.61c.46.07,1,.13,1.56.19l4.83.43,5.34.59,3.12.27c.78.05,1.46.09,2,.11l7.44.23c.19,0,1.88.11,5.09.34a16.76,16.76,0,0,0,2.23,0l.46-6.7q.12,0-6-.13l-3.19-.11q-6-.28-8.36-.56c-3.54-.39-5.76-.66-6.68-.82l-2.08-.32-4.31-.74-5.53-.8-1.08-.23" fill="#a0dde9"/><path d="M825.1,831.9l-4.39.81q-8.51,1.37-11.59,2c-1.68.28-3.06.47-4.14.55a80.18,80.18,0,0,1-8.62.43c-2.77,0-4.13-.09-4.08-.11-.33,0-.66-.07-1-.12l-1.65-.31h-.13c-.52.24-.88,1-1.08,2.18a7.74,7.74,0,0,0,.2,3.6,6.17,6.17,0,0,0,3.61,1.32,79.56,79.56,0,0,0,9.49.29q.75,0,7-.22c.46,0,1.16-.06,2.12-.15a63.61,63.61,0,0,0,7.51-1.26l4.85-1.25a4.55,4.55,0,0,0,1.22-.47l.62-7.26" fill="#a0dde9"/><path d="M788.62,835.27c-.26,0-.5.3-.72.92a5.52,5.52,0,0,0-.16,2,14.87,14.87,0,0,0,.43,2.42,1.65,1.65,0,0,0,.86.63l5.84-5.41a12.52,12.52,0,0,0-1.31-.19l-.55,0c-1,0-1.56,0-1.66-.06l-2.73-.29" fill="#a0dde9"/><path d="M825.58,856.62a88.5,88.5,0,0,1-17,1.85q-3.87.1-7.14,0c-3.32-.15-6.8-.38-10.42-.69a4.81,4.81,0,0,0-1.28,0,3.8,3.8,0,0,0-2.15,3,5.24,5.24,0,0,0,2.54,3.13,13.44,13.44,0,0,0,4.23,1.63,38.23,38.23,0,0,0,6.8.72A100.49,100.49,0,0,0,821.34,865a18.73,18.73,0,0,0,4.86-1.59,2.52,2.52,0,0,0,1.21-1.31,7.17,7.17,0,0,0,.53-4l-2.35-1.46" fill="#6c9aa3"/><path d="M808.32,842.54a22.71,22.71,0,0,0-12.1,2.31,20.51,20.51,0,0,0-5.06,3.83,15.07,15.07,0,0,0-3.4,4.5q7.17-6.79,15.92-7.07a34,34,0,0,1,9.16,1.32q10.78,2.72,14.68,4.65l.74-.6a7.55,7.55,0,0,0-1.24-1.81,20.58,20.58,0,0,0-4.8-3.4,35.11,35.11,0,0,0-6.41-2.52,41.22,41.22,0,0,0-7.48-1.21" fill="#6c9aa3"/><path d="M775,856.49h0a17.32,17.32,0,0,0-3,.74l-7.59,2.5,4.85-2.07-3,.07.78-.25c.71-.28,1-.58,1-.88a16.69,16.69,0,0,0-2.28-5.08,14.9,14.9,0,0,0-2.94-3.56,35.67,35.67,0,0,0-9.88-5.78,33.59,33.59,0,0,0-10.47-2.39h0a15.61,15.61,0,0,0-4.82.38,24.4,24.4,0,0,0-5.81,1.91,17.65,17.65,0,0,0-4.38,3l1.23,1.46a33.65,33.65,0,0,1,19.16.83,26.71,26.71,0,0,1,7.11,3.8,55.61,55.61,0,0,1,7.49,6.61c-3.1.06-5.25.08-6.43.07q-5,0-9.66-.28c-2.49-.18-4.86-.47-7.1-.85-1.64-.29-2.83-.51-3.58-.67l-4.33-1c-.87-.2-1.65-.34-2.34-.45a5.7,5.7,0,0,0-2.52.18c-1.87.59-2.66,1.5-2.37,2.7a7.37,7.37,0,0,0,3.26,4.65,15.63,15.63,0,0,0,5.39,2.39,56.56,56.56,0,0,0,9.06,1.36,65.52,65.52,0,0,0,9.51.27,53.16,53.16,0,0,0,8.84-1.48,61.85,61.85,0,0,0,9.87-4.18,28.15,28.15,0,0,0,3.63-2.34l1.55-1.34C775.21,856.63,775.18,856.53,775,856.49Z" fill="#6c9aa3"/><path d="M694.77,543.41a8.75,8.75,0,0,0-.42,2.44,18.35,18.35,0,0,0-.14,3.32,9.25,9.25,0,0,0,1.67,4.13,18.81,18.81,0,0,0,2.78,2.92c.77.71,1.81,1.56,3.11,2.54a29.35,29.35,0,0,0,3.67,2.11,14.75,14.75,0,0,0,2.65,1l.21-.37c-.18-1.67-.31-4-.42-7a.77.77,0,0,0-.17-.42,4.13,4.13,0,0,0-1.32-1.14,11.42,11.42,0,0,0-1.14-.58,30.23,30.23,0,0,1-3.53-1.57,21.31,21.31,0,0,1-2.78-1.89,16.2,16.2,0,0,1-2.64-2.9,10.57,10.57,0,0,1-1.52-2.63" fill="#a0dde9"/><path d="M802.05,564.8a6.21,6.21,0,0,0-1.44-3.53A1.2,1.2,0,0,0,800,561L793,559.73c-.71-.13-1.27-.22-1.67-.28-.61-.09-1.34-.19-2.21-.28l-4.59-.49c.06-.32.12-.64.17-1,.16-1,.31-2.22.44-3.69l.38-5.84.23-2.69.9-7.7q.84-9.3,1.64-15.68,1.82-14.52,3.63-23.69c.21-1,.42-1.92.65-2.82q1.68-6.19,2.85-11.16.5-1.93,1.61-5.42a57.19,57.19,0,0,1,4.3-10.12l0,0-5.25.26a.43.43,0,0,0,0-.05l-3.77-1.49h0a14,14,0,0,1-2.48,6.38,42.31,42.31,0,0,1-4,4.75,28.35,28.35,0,0,1-3.22,3,15.66,15.66,0,0,1-5.62,2.85,15.16,15.16,0,0,1-2.41.46c-.4.07-2,.16-4.79.27-.4,0-.61.08-.63.16a3.17,3.17,0,0,0-.23.49c-.11-.36-.22-.59-.35-.66a26.64,26.64,0,0,1-11.29-7,7,7,0,0,1-1.52-2.65,32.72,32.72,0,0,1-.78-5.23v0l-3.67,2.92-.57-.54,0-.05q-5.58,3.71-5.58,8.69,0,1.43.06,3.93l.77,17L747.74,528l.75,14.18a103.17,103.17,0,0,0,1.35,11.76c0,1.18,0,2.38,0,3.62q0,2.13,1.66,20.45l.57,12.93a18.29,18.29,0,0,0,2.57,8.59,10.13,10.13,0,0,0,4.62,3.8l5.81,2.07q7.36,3.24,9,3.69a13.05,13.05,0,0,0,4.7,1,21.4,21.4,0,0,0,8.49-3.14q.09.28,11.87-8.57c.4-.31.59-.58.6-.81q-2.41-2.57-6.12-1.22a5.52,5.52,0,0,0-1.6,1.22q-4.26,5.7-5.74,6.73a5.2,5.2,0,0,1-4,1.49,9,9,0,0,1-2.71-.62l-4.76-2.29q-7.37-2.85-9.58-3.93a13.48,13.48,0,0,1-4.54-3.51q-3.11-4.29-2.08-16.45a19.36,19.36,0,0,1,2.72-6,32.3,32.3,0,0,1,4.67-5.55,9.55,9.55,0,0,1,2-.3q1.71-.33,10.89,1.39h0l.2,0,1.86.35a.38.38,0,0,0,.17-.08.84.84,0,0,0,.21-.31,2.17,2.17,0,0,0,.15-.47l0-.38c.92.14,1.82.29,2.68.46.67.12,2.4.49,5.17,1.12l1.71.34c1.29.23,2.51.39,3.64.49a20.82,20.82,0,0,0,4.49,0c1.65-.26,2.55-.57,2.68-.91Q802.47,568.75,802.05,564.8ZM764.69,555q0-7.72-.12-8.59c.1.15-.23-2.16-1-6.92q-.84-5-1.5-8.12-3.14-14.15-5.37-25.26-1-5.09-1.65-9.83a82.65,82.65,0,0,1-.82-10.53l.42.5a13.09,13.09,0,0,0,4.26,3.48,16.57,16.57,0,0,0,6,1.27,11.19,11.19,0,0,0,1.5-.1c0,.55,0,1.09,0,1.63l.29,4c0,.38.09.74.15,1.09l.39,2.13.3,2.74.15,4.18.17,1.73q0,2.45.3,6.54v1.74l.06,1.63-.1,5,0,1.61c0,1,.11,1.88.2,2.77.13.51.27.77.44.77a4.12,4.12,0,0,0,1.14-.09,55.64,55.64,0,0,1,6.6-1.29.21.21,0,0,0,0-.15,3.61,3.61,0,0,1-.66-1.12l-.39-1.77c-.08-.35-.17-1-.28-1.92l-.2-1q-.37-2.67-.42-4l-.1-2.75.06-2.82q.33-4.84.76-8.58c.07-1,.1-2,.12-3.23l0-2.36-.31-5,0-.26a19.6,19.6,0,0,0,5.18-1.12,26.82,26.82,0,0,0,9-5.78h0v0h0l-.3.9c-.93,3.12-1.7,6.16-2.32,9.14s-1.11,6.17-1.43,9.21q-.11.52-1.16,12.73-.84,7.24-2.47,23.13-.42,4.29-1.27,15.34c-.06.74-.13,1.47-.2,2.2a1.69,1.69,0,0,0-.32-.27Q766.55,557.41,764.69,555Z" fill="#a0dde9"/></g><g id="layer10"><path d="M781.6,376.3a23.9,23.9,0,0,0-7,.54,29,29,0,0,0-7,2.76l1.25,5.34a24.7,24.7,0,0,1,9.8-2.54,23.71,23.71,0,0,1,3.45-.07q.87,0,2.13.15c3.46.36,5.48.56,6.07.58l1.21.06a.91.91,0,0,0,.41-.12c.48-.4.42-1.14-.18-2.23,0-.22-.7-.83-2.14-1.8a17.23,17.23,0,0,0-3.81-2,16.74,16.74,0,0,0-4.1-.72" fill="#414141"/><path d="M732.11,376.65q-11.9-.79-14.91,10.26,13.72-6.21,25-2.31,4.34-6.86-9.88-7.94Z" fill="#414141"/><path d="M805.48,440.91,802,445.75a8.35,8.35,0,0,1-5.11,1.8,5.79,5.79,0,0,1-4-1.66,18.71,18.71,0,0,1-3.53-5.55c-.13,0-.19.37-.17,1.16l.09,6.26a5.75,5.75,0,0,1-1.69,3.44,20.85,20.85,0,0,1-6.43,4,32.53,32.53,0,0,1-8.64,2.75,5,5,0,0,1-2.63-.17,10.49,10.49,0,0,1-1.39-.62L765,455.07a3.25,3.25,0,0,0-3.23,0l-4.2,2.77a8.09,8.09,0,0,1-2.36.85,19.06,19.06,0,0,1-4.94.26,13.65,13.65,0,0,1-3.76-.81q-6.88-2.94-6.47-12.38l-2.34,4.64a5.07,5.07,0,0,1-2.17,1.73,7.35,7.35,0,0,1-3.55.64,12.22,12.22,0,0,1-2.34-.33,19.72,19.72,0,0,1-2.66-.82l-.05,0a29.38,29.38,0,0,0,8.18,5.82,103.76,103.76,0,0,0,14,5.15q9.51,2.56,23.33.86a64.75,64.75,0,0,0,12.66-2.72A27.16,27.16,0,0,0,793,457q8.35-5.47,12.48-16" fill="#414141"/><path d="M749.57,401a38.6,38.6,0,0,1-1.34,4.73q-.56,1.69-2.49,6.46l-1.68,4q-.3.72-.54,1.38a25,25,0,0,0-1.11,3.74q-.79,4.61,2.18,6.15,1.06,1,8.8,1.34a15.76,15.76,0,0,1-6.73-2,5.43,5.43,0,0,1-2.51-3.93A12,12,0,0,1,745,418q2.12-7,2.36-7.6.31-1.05,2.3-6.62c.26-.77.51-1.55.76-2.34l-.82-.49" fill="#d7b287"/><path d="M831.6,332.08a34.94,34.94,0,0,0,.5-5.45,24.48,24.48,0,0,0-3.38-12.54A33.36,33.36,0,0,0,818,303.35h0q5.47,13,3.85,20.09-10.47-21.1-19.51-26.73-7.2-5.23-23.93-7.73h0c-.21,0-.14.19.23.55l7.17,7.33a51.23,51.23,0,0,1,4.05,5.57l-.94,0Q783,302,772.7,298q-20.24-8.61-18.51-20.89l-.07-.11a16.63,16.63,0,0,0-5,14.88,23.6,23.6,0,0,0,.8,2.88q-2.49-1.79-5.26-3.49-5.88-3.45-15.15-4.14h-.1c-2.29-.12-4.6-.19-6.91-.18h-1.47v.16c3.61,2.93,6.91,5.82,10,8.67a60.23,60.23,0,0,0-8.28-1.29h0a41.09,41.09,0,0,0-16.52,2.35,59.67,59.67,0,0,0-16.28,8.7c0,.05.18.05.46,0l4.24-.83c.94-.15,1.91-.28,2.89-.39,2.51-.27,5-.42,7.6-.45a35.1,35.1,0,0,1,11,1.39,14.17,14.17,0,0,1,2.31,1,36.45,36.45,0,0,0-9.92,5.64,51.24,51.24,0,0,0-16.25,28.28q-3.46,13.83-1.42,23.14,2.52-9.44,6.54-15.05a36.33,36.33,0,0,1,4.86-5.76c3.8-3.51,5.8-5.07,6-4.69.17.21.07,1.37-.3,3.49q-2.41,10.28-2.65,12.44a37.25,37.25,0,0,0-.5,6.3q.39,10.35,3.77,16.34c.2-.07.44-.46.71-1.17q2.9-7.53,4.06-9.7a33.34,33.34,0,0,1,3.24-5.31q5.83-7.54,12-10.7c.88-.49,1.77-.94,2.66-1.35.15-.11.22-.09.21.08q-4,6.58-5.77,10.15c-1,1.88-1.86,3.77-2.74,5.65-.14.35-.07.48.23.41q8-4.83,12.2-5.89a36.18,36.18,0,0,1,5-1.11l2.83-.32q-.66,1.31-6.43,3.44,4.05,1.46,42-2.95-11,8.69-13.41,20.65,14.25-20.58,34-23.81a22.36,22.36,0,0,0,1.64,5.24q1.58,3.38,3,5.69l6,9.3a43.68,43.68,0,0,1,3,7.06q3,8.37,3,20.85,1.61-11.91,3-12.81a4.49,4.49,0,0,1,4.22-1.92,9.6,9.6,0,0,1,2.57.57,11.26,11.26,0,0,1,3.44,2.93l.82-5.48c.19-1.45.35-2.94.47-4.47q.4-5.52.36-11.51c.08-2-.12-6.29-.57-12.94-.14-1.83-.28-3.31-.41-4.43l-.65-4.75h0c-.17-.37-.34-.75-.52-1.12a14,14,0,0,1,.26-3.95Z" fill="#414141"/><path d="M788.22,394a22,22,0,0,0-6.76-1.52h0a19.38,19.38,0,0,0-9.06,1.38,16.26,16.26,0,0,0-3.7,2.23q-2.72,2.36-3,3.22a.58.58,0,0,0,.31-.1c1.29-.72,2.5-1.34,3.64-1.86a23.23,23.23,0,0,1,2.36-.91,32.67,32.67,0,0,1,3.62-.86,5.84,5.84,0,0,0-.9,1.23,5.34,5.34,0,0,0-.48,5.17,4,4,0,0,0,1.4,1.61,6,6,0,0,0,2.38,1,7.23,7.23,0,0,0,3.1-.2,5.47,5.47,0,0,0,2.14-1.1,4.77,4.77,0,0,0,1.85-2.61,4.54,4.54,0,0,0-.3-3.38,5.2,5.2,0,0,0-3-2.39,36.73,36.73,0,0,1,3.67.18,34.43,34.43,0,0,1,6.41,1.36l0-.78A36.64,36.64,0,0,0,788.22,394Z" fill="#3d3d3d"/><path d="M743.11,396.39a27.66,27.66,0,0,0-5.54-2.93,21.12,21.12,0,0,0-5.7-1.42h0a13.21,13.21,0,0,0-6.75,1.32,14.13,14.13,0,0,0-2.92,1.9,13.24,13.24,0,0,0-2.4,2.55,1.7,1.7,0,0,0,.53-.21c1.25-.66,2.31-1.18,3.19-1.57a22,22,0,0,1,2.14-.81,26.19,26.19,0,0,1,4.35-1,6,6,0,0,0-1.94,3.53,5.58,5.58,0,0,0-.06,1.88,4.64,4.64,0,0,0,.76,2.07,2.82,2.82,0,0,0,1.25,1,6,6,0,0,0,.9.36,8,8,0,0,0,1.45.24,14.83,14.83,0,0,1,1.51,0,2.27,2.27,0,0,0,.43-.05l1.46-.49a3.08,3.08,0,0,0,.68-.34,4.45,4.45,0,0,0,1.29-1.33,5.44,5.44,0,0,0,1-2,10.82,10.82,0,0,0,.14-2,6.85,6.85,0,0,0-.58-1.76l-.35-.44,0,0a31.63,31.63,0,0,1,4.74,1.63Z" fill="#3d3d3d"/><path d="M781,396.25a1.59,1.59,0,0,0-1.4.55,1.29,1.29,0,0,0-.29,1.24,3.33,3.33,0,0,0,.9,1.63c.1.11.21.21.32.31l.8.6a1.34,1.34,0,0,0,.58.2,1.13,1.13,0,0,0,1.06-.62,1.84,1.84,0,0,0,.24-.79,2.25,2.25,0,0,0,0-.82,4.52,4.52,0,0,0-.66-1.48l.1.27a3.64,3.64,0,0,0-.5-.62,1.27,1.27,0,0,0-.35-.27,2.07,2.07,0,0,0-.79-.2" fill="#fff"/><path d="M734.8,395.17a1.66,1.66,0,0,0-1.32.48,1.73,1.73,0,0,0-.25,1.33,2.83,2.83,0,0,0,.21.82,6.21,6.21,0,0,0,.67,1.22,1.82,1.82,0,0,0,1.2.77,1.59,1.59,0,0,0,1.35-.79,2.78,2.78,0,0,0,.46-.89,1.83,1.83,0,0,0,.13-.88,1.33,1.33,0,0,0-.29-.72,1.47,1.47,0,0,0-.23-.26.65.65,0,0,0-.16-.13h0l0,.09a2.49,2.49,0,0,0-.42-.44,2.37,2.37,0,0,0-1.36-.59" fill="#fff"/><path d="M777,434.37h0m-.05.05a15.36,15.36,0,0,1-2.8,1.66q-4.49,2.28-5.76,2.76-3.6,1.49-4.48,1.73a42.51,42.51,0,0,1-5.22,1.45,46.4,46.4,0,0,1-10.86.42,35.94,35.94,0,0,1-4-.34c-.74-.16-1.16-.35-1.27-.55s.07-.25.63-.29l-2.55-.23a5,5,0,0,0,.8.55c2.7,1.43,4.08,2.13,4.12,2.1.42.17.84.32,1.27.46.18.07.71.2,1.58.4a25.64,25.64,0,0,0,2.71.87,21.1,21.1,0,0,0,7.45-.18q1.71-.32,2.79-.54l2.93-.8a16.28,16.28,0,0,0,3.41-1.58,26.31,26.31,0,0,0,3-2.09q1-.84,3.86-3.66l2-1.64.39-.49" fill="#414141"/></g><path d="M714.71,583.66c.46-.63.91-1.29,1.35-2h0l.27,6.68a18.64,18.64,0,0,1,0,2.15q-.81-3-1.66-6.87Zm48.47-50.48h0c1.15,6.29,1.75,9.88,1.78,10.8q.67,5.67,1,13.48a35.51,35.51,0,0,0,1.53-8.11,46.81,46.81,0,0,0,0-8.7c-.09-.94-.2-1.91-.34-2.9h0A51.19,51.19,0,0,0,763.18,533.18Zm29.94-57.79a78.91,78.91,0,0,0-10.21,27.14q-.79,5.12-1.33,12.81c-.1,1.51-.19,3.21-.28,5.11l-.17,5,1.4,2.06,1.91,2.38,8.69-54.54Zm-14.43,80,.48.51-.61-1h0A.9.9,0,0,0,778.69,555.35Zm-67,32c.13,1.17.26,2.44.4,3.81h0c0-.06,0-.5,0-1.31,0-1,0-2,0-3h0l-.48.52Zm-.37,61.95q0,5.84.1,13.81l.52,19.78q.07,4.22,0,9.23,0,6.28-.38,14.26-.2,5.31-1.21,23.57-.17,3.34-.27,7.56-.32,14.91.06,30.3a147.87,147.87,0,0,0,1.5,19.21,102.21,102.21,0,0,0,2.16,10.33q1.36,5.71,1.51,3.85.23-2.9-.12-20.18L714,747.26q-.27-8.71-.42-17.23-.06-5.5,0-12.22l.22-17.3q-.07-17,0-20.85.22-21.15.93-29.36a158.22,158.22,0,0,1,3.07-21.66v0L711.33,649ZM793.53,776.6c.13,3.27.4,6.42.79,9.45q1.74,12.6,5.32,19.2c.31.42.57.38.78-.13l2.1-7.88A70.16,70.16,0,0,0,804,786q.16-2.4.25-7.35l.2-22.22.67-33.83q.09-4.61.14-9.6.15-13.23-.24-21.48c-.09-2.23-.21-4.41-.35-6.56q-1.36-17.72-1.46-20.86c-.09-1.67-.17-3.37-.24-5.12l-.24-6.5-.46-16.76c-.17-3.85-.39-6.86-.66-9.05h0l-.37,6.14-.79,9.84q-.2,2.6-.27,4.5t-.15,5.31q-.1,12.66-.14,12.78-.11,4.06-.33,7.3-.18,2.63-.45,5.79l-2,22.33q.11-.76-1.95,19.63-.87,9.48-1.45,16.67-.84,10.08-1,21.19-.1,11.64.31,23.81L793,754.27q.26,5,.32,8Q793.41,775.74,793.53,776.6Zm49.5,3.19c-.3-2-.65-3.82-1.06-5.51q-2.94-11.16-4.66-18.49-.85-3.52-2.79-14.11c-.15-.68-.29-1-.42-1.1h0c-.11-.23-.26.68-.45,2.74-.15,1.36-.28,3.2-.4,5.52q-.22,4.83-.06,11.13.1,4,.38,8.18l1.2,15q.33,4.37.82,12.67l7.13,7.14a71.63,71.63,0,0,0,1-11.37A77.24,77.24,0,0,0,843,779.79Zm-18.38,36.06a62.38,62.38,0,0,1-8.58,2.45l-7.31,1.55L802.43,821c-.6.12-3.06.55-7.39,1.27-.78.13-1.79.28-3,.44q-.42.1-.18.39,2.82,1.75,8.46,1.75A78.2,78.2,0,0,0,814.16,823a39.81,39.81,0,0,0,7.06-2.12,34.48,34.48,0,0,0,5.43-3.06l-2-1.93Zm-52.15,7.84-24.69-2.28h-.15Q731.91,819.11,735,825l36.88,7.92Q773.59,824.65,772.5,823.69Zm28.83,25.6c.66-.14,1.31-.26,1.94-.36a25.14,25.14,0,0,1,4.27-.29,37,37,0,0,1,6,.62c1.15.2,2.23.43,3.24.68l1.55.38,2.5.68,1,.24a12.71,12.71,0,0,0,1.77.32,5,5,0,0,0-1.73-2.25,13.44,13.44,0,0,0-3.22-2,29.93,29.93,0,0,0-10.22-2.8h0a18,18,0,0,0-7.81.88,14.94,14.94,0,0,0-3.3,1.82l-3.43,1.13a26,26,0,0,0-2.71,2.5c-.19.18-.12.28.2.31a34.91,34.91,0,0,0,4.16-.54Q796,850.52,801.33,849.29Zm18.43,6.41q-6.63-.42-11.39-.33c-.85,0-1.78,0-2.81.12l-4.58.33c-.47,0-1,.07-1.57.09-.41,0-.88,0-1.39.06q-3.49,0-4,.09a19.08,19.08,0,0,0-2.48.25c-.36.12-.07.72.86,1.8a8.91,8.91,0,0,0,2.7,1.77,29.45,29.45,0,0,0,9.41,2.23,35.19,35.19,0,0,0,7.66-.38c2.91-.43,4.88-.77,5.93-1a18.59,18.59,0,0,0,3.22-1,23.41,23.41,0,0,0,2.91-1.47l1.32-2.14-5.72-.39Zm-93-6.63q17.72-4.79,33.11,6-1.8-8.07-18.7-10.65h-.05a32.57,32.57,0,0,0-5.48.1q10.73-.19-4.35,1.23A12.59,12.59,0,0,0,726.8,849.07ZM771,851.6l-.22-.72q-3.27,4.39-10.19,5.78-9.18,1.7-29.33-.93-6.66.24-4.91,2.31,3.35,7.69,30.43,5.58Q779.23,859.29,771,851.6Zm-42.4-363a10.49,10.49,0,0,1,2.12-.56h0c.23-.56.48-1.09.74-1.58h0Zm2.88-2.15h0Zm40.41-122.6c-1.17,3.08-1.65,5-1.45,5.61a152,152,0,0,0,24.42-6.29q13,7.2,20.72,26.89,4-6-5.59-42.86l-48.83,2.27.8-6.81q-18.16-.27-21.07-6.12v0q-21.06.51-30.82,30.23l9.52-6.84,13.35,6.1Q766.5,368.11,771.88,363.85Zm-33.75,94.38q7.89,3.3,20.27,4.51a63.13,63.13,0,0,0,21.21-1.39q16.88-4.14,23.82-14.43,3.8-5.42,6.63-16.18a90.13,90.13,0,0,0,2.53-18.81h0l-1.4,7.86q-8.75,13.65-16.5,20.61a18.65,18.65,0,0,1-5.74,3.47q-1.17.75-11.57,3.82-.4,0-9.9,4.39a23.32,23.32,0,0,1-3.13,1.1q-10.92,2.37-25-2.33a39.81,39.81,0,0,1-9.55-5.23q-6.74-5.07-9.31-9.74c-.14-.28-.27,0-.42.85Q720.54,450.93,738.13,458.23Zm44.48-78h0l-10.47.36a15.64,15.64,0,0,0-6.48,4.38,15.28,15.28,0,0,0-3.81,8.79,10.77,10.77,0,0,0,.38,4.37,4.22,4.22,0,0,0,1.87,2.6c.86,0,1.82-.53,2.88-1.69a12.72,12.72,0,0,0,1.19-1.55l2.21-3.57c.42-.64.87-1.28,1.35-1.9a23.82,23.82,0,0,1,3.61-3.77,21.76,21.76,0,0,1,3.62-2.5c.89-.52,2.88-1.46,6-2.84a6,6,0,0,0,.82-.46c.12-.27-.2-.71-1-1.33A5.29,5.29,0,0,0,782.61,380.25Zm24.32,126.84c.17-1.12.34-2.29.5-3.51s.29-2.34.39-3.29c.48-4.66.76-7.44.82-8.36v0l-5.46,8.3c-.34,2.68-.67,5.17-1,7.45-.11.82-.52,3.46-1.22,7.94-.19,1.21-.34,2.29-.46,3.23q-.46,3.6-.89,8.51-.45,4.71-.74,12c-.13,2.76-.17,5.55-.12,8.39,0,.28.07.16.22-.38q.63-2.16,1.33-4.91c1.26-4.91,2.18-8.77,2.77-11.55q.61-2.77,1.43-7.69c.19-1.15.37-2.31.55-3.48l.83-6Zm23.61,19.7q-.67-5.49-.82-7l-1.36-14a25.7,25.7,0,0,1-.05-2.59l.21-4.47h0l-1.41,11.76c-.08,2.52-.43,7.67-1,15.45q-.12,2-.93,9a7,7,0,0,1-.29,1.44l-1.08,2.79a12.28,12.28,0,0,0-.44,1.45,27.48,27.48,0,0,0-.63,4c-.11,1.19-.19,2.57-.22,4.13l-.2,12q0,2.5-.12,4t-.92,11.66c0,.19,0,.18.07,0q.67-3.59,1.18-5.81,1.9-8.51,3-13.12.91-3.89,2.74-11.26c1-3.52,1.58-5.83,1.81-6.93a34.09,34.09,0,0,0,.76-4.41,30,30,0,0,0,0-5.59ZM739.16,558.2q1.35-10,3.7-22.51h0l-5.52,20.81q-2.08,13.15-3,21a119.13,119.13,0,0,0-.88,13,106.33,106.33,0,0,0,.72,13.06q.33,3.5,3.55,29.78,2.21,22.08,2.41,23.22.3,2.76,1.52,11.59-.36-3.33-.56-7.35l-.52-13.22q-.74-13.93-.73-15l-.36-15q-.64-16.83-.64-18.29l-.17-12.7q0-1.14-.33-11c0-1.69,0-3.52,0-5.49A88.79,88.79,0,0,1,739.16,558.2ZM708,603.55c-.26,2.17-.46,3.81-.61,4.92,0,.24-.43,3.17-1.22,8.78q-.4,3-.73,5.59c-.39,3.11-.72,6.18-1,9.19s-.5,6.09-.68,9.31l-.8,15.52c-.05,1.06-.09,2-.11,2.84,0,.29,0,.43,0,.42a30.65,30.65,0,0,0,.68-3.72c.1-.75.27-2,.5-3.66q.56-4.31,1.5-11.19.79-5.91,1.31-11.61c.21-2.26.38-4.89.51-7.92,0-.93.1-2.5.18-4.7s.21-6.74.45-13.72c0-.05,0-.06,0-.05Zm.12-2.93c-.05,1.3-.09,2.23-.1,2.79l.17-1.47-.07-1.32ZM777,675.47q-5.61,23.41-10.77,35.46a99.48,99.48,0,0,1-13.17,23.14q-7.39,9.88-15.8,14.55,21.07-6,35.57-37.42a174.33,174.33,0,0,0,9.54-33.85q.87-5.28,1.35-11.24l1.54-25.8q.29-4.42.82-8.85v-.11l-1.57,3.6Q783.24,651.53,777,675.47Zm45.55-79.17q-.31,3.9-.39,7c0,1.63-.08,3.49-.11,5.58q0,8-.13,12.92,0,1.55,0,2.94c0,1.24,0,2.48.07,3.71q.42,11.16.46,14.22c0,1.73.06,3.47.08,5.2v7.4c0,1.26,0,1.86,0,1.82.24-.08.91-2.83,2-8.27q1-5.23,1.75-11,1.45-11.4,1.72-21.44.08-2.39.09-5l0-9.11.06-8.69,0-3.07q-.2-7.34-.21-8.91c0-1.72,0-3.3,0-4.75l.11-5.16c0-3.46.05-5.72.08-6.8,0-2.06.11-4.25.19-6.57.11-3,.3-5.33.55-7.1h0l-4.76,27.91Q823.48,585.28,822.55,596.3ZM810.24,487.44c.11,0,.25-.22.45-.57q.13-.19,2.48-4.48c.34-.59.73-1.24,1.19-1.95a30.56,30.56,0,0,1,3.15-4.22,13.47,13.47,0,0,1,4.58-3.3,5.6,5.6,0,0,1,1.41-.48,9.59,9.59,0,0,1,1.56.25,2.09,2.09,0,0,0-.92-.3h0a9.48,9.48,0,0,0-5.25,1.1,12.71,12.71,0,0,0-4.15,4.25l2.72-4.65s0,0,0,0a30.56,30.56,0,0,0-5,7.17A20.91,20.91,0,0,0,810.24,487.44Zm-58.66,8.75.66,4.51q.33,5.15,1,10.08c.16,1.06.37,2.15.62,3.3l1.48,6.45q1,5.91,1.09,6.22c.27,1.24.57,2.4.91,3.47,1.22,3.26,2.16,6,2.8,8.23.12.46.25,1,.37,1.54q.88,4.6,1.47,7c.29.62.53.61.72,0a18.37,18.37,0,0,0,.29-3q.15-3.09.09-8c-.06-3.19-.11-5.21-.15-6l-.37-5.26q-.15-4.39-.13-7,.21-9,.42-13.18c0-1.28.05-2.38.05-3.28s-.07-2.08-.2-3.93c-.11-.94-.27-2.86-.48-5.78-.18-3.25-.26-5.07-.26-5.46,0-1.69,0-2.76,0-3.21a8,8,0,0,1,.27-1.6l0-.07L758.17,485c-1-1-2.27-1.1-3.89-.37l-.51-.21c-.13,1.83-.19,3.49-.2,5l-2.08,2,0,.1c.07-.07.1-.05.08.07l-.08,2.81Q751.45,494.77,751.58,496.19Zm-23.66,48.38c0-1.46,0-4.24.16-8.34.08-2,.21-3.71.37-5.25q1.57-14.75,2.06-18.78.59-4.62,1.22-8.55a84.78,84.78,0,0,1,3.8-15.72v-.06l-4.88,3.28c0-.15,0-.2,0-.14a7.93,7.93,0,0,0-1,2,129.6,129.6,0,0,0-4,15.24c-.41,2-.73,3.77-.94,5.34-.05.13-.35,2.7-.89,7.69q-1,10.79-.25,14.8.78,5.73,5.22,17.18A44,44,0,0,1,727.92,544.57Zm2.57,13.19-1.71-4.49v0a29.21,29.21,0,0,0,1.65,5.6C730.91,559.8,730.93,559.43,730.49,557.76Zm-20,35.68c.11-1.65.22-2.94.31-3.86l.21-3.31c.06-.7.13-1.55.23-2.58l.45-4.66c.09-.88.18-1.64.25-2.29l.33-2.69c.2-1.92.36-3.46.46-4.61.26-3.29.41-5.78.47-7.45.15-4,.2-6.56.13-7.69l-.07-1.24-.05-.66.26-.24q.55-.52,1.26-1.11h0c0-.4,0-.8,0-1.2l-.15-9.41-.24-11.62c0-.8-.1-3.58-.28-8.36,0-.77,0-1.56,0-2.35q0-2.42.12-6.55c0-1.44.14-2.78.27-4a37.16,37.16,0,0,1,1.41-7.28v0l-3,3.59q-.86,4.92-1.58,11.68l0-.54v-.07q-1.5,6.47-1.57,7-.39,2-.84,5.24c-.24,1.77-.42,3.28-.53,4.53q-.08.58-.6,7.49c-.25,2.88-.43,4.69-.52,5.43-.12,1-.23,1.86-.34,2.55l-1,5.8c-.19,1.41-.34,2.74-.45,4-.08.78-.13,1.94-.16,3.48a8,8,0,0,1,.61-.7l.41-.41c0,.21,0,.39,0,.52q.33,4.54.79,9.33l.15,3.72c0,1.07.05,2.18,0,3.32,0-.28,0,1.45-.14,5.21,0,.76,0,1.45,0,2.07s0,1,0,1.29c.12,1.09.21,2.2.26,3.36.12.92.24,1.82.37,2.72a16.41,16.41,0,0,1-3.15,1.8h0l-.23,2.81a16.23,16.23,0,0,0,3.54-3.45q.61,4.2,1.38,7.91.21.47.42-.24c.08-.27.23-1.32.44-3.13Z" opacity="0.07"/><path d="M627.45,779V270.47a23.07,23.07,0,0,0-23-23H348.08a23.07,23.07,0,0,0-23,23V830.69c0,13.26,10.35,24.12,23,24.12H604.44c12.66,0,23-10.86,23-24.12Z" fill="#dbedff" fill-rule="evenodd"/><path d="M627.45,779v51.67c0,13.26-10.35,24.12-23,24.12H348.08c-12.66,0-23-10.86-23-24.12V269.88h0c0-.2,0-.39,0-.59h0c0-.19,0-.39,0-.58h0c0-.2,0-.39.05-.58h0c0-.2.05-.39.07-.58h0c0-.19.05-.38.08-.57h0c0-.19.06-.38.1-.57a5.54,5.54,0,0,1,.11-.56h0a5.41,5.41,0,0,1,.12-.55c0-.19.09-.37.13-.55h0l.15-.55h0c.06-.18.11-.37.16-.54h0l.18-.54h0c.06-.18.12-.36.19-.53s.13-.35.2-.53l.21-.51h0l.23-.51h0c.07-.17.15-.34.23-.5l.25-.5h0c.17-.33.35-.66.54-1s.37-.64.57-1h0c.2-.31.41-.62.63-.92l.32-.45.34-.44h0c.34-.43.7-.85,1.07-1.26h0c.12-.14.25-.27.38-.41h0c.38-.4.78-.78,1.19-1.16h0c.54-.49,1.11-1,1.7-1.4l.45-.33a21.25,21.25,0,0,1,1.87-1.2q.72-.42,1.47-.78h0c.34-.17.68-.32,1-.46h0l.52-.22h0l.53-.2.53-.19h0q.79-.27,1.62-.48h0l.55-.14h0c.38-.09.75-.16,1.13-.23h0l.57-.1h0l.57-.08h0l.57-.06h0l.58-.05h0l.59,0h0l.58,0H605l.59,0h0l.58,0h0l.59.05h0l.57.06h0l.58.08h0l.56.1h0l.57.11h0l.55.12h0l.56.14h0l.54.14h0l.55.16h0l.53.17h0l.53.19.53.2h0l.52.22.51.22h0c.17.08.34.15.51.24h0l.5.24h0l.49.25h0l.49.27.47.28h0l.47.3h0l.46.3h0l.46.32.45.33.44.33h0l.43.35h0l.42.36h0l.42.36.4.38h0l.39.39h0l.39.39h0l.38.41h0l.37.41h0l.35.42h0l.35.43h0l.34.44.32.45.32.46h0c.1.15.21.3.31.46h0c.1.16.2.31.29.47h0c.1.16.19.32.28.48s.19.32.28.49h0l.26.49h0c.08.16.17.33.25.5s.16.33.23.5h0c.08.17.16.34.23.51h0l.21.51c.07.18.14.35.2.53s.13.35.19.53h0c.06.18.12.35.17.54h0c.06.17.12.36.17.54h0l.15.55h0c0,.18.09.36.13.55l.12.55h0c0,.19.08.37.11.56s.07.38.1.57h0c0,.19,0,.38.08.57h0c0,.19,0,.38.07.58h0c0,.19,0,.38,0,.58h0l0,.58h0l0,.59h0V779Zm-23-545.42H348.08a37,37,0,0,0-36.87,36.87V831.8a37,37,0,0,0,36.87,36.86H604.44a36.68,36.68,0,0,0,23.91-8.86h0a36.82,36.82,0,0,0,13-28V270.47a37,37,0,0,0-36.87-36.87Z" fill="#1f496b" fill-rule="evenodd"/><path d="M353,271.13v.13c0,.26-.08.38-.24.38h-3.81c-.16,0-.23-.12-.23-.38v-.13c0-.26.07-.37.23-.37h1.49V266l-1.52.24c-.18,0-.24-.41-.24-.62s.07-.19.2-.22l2.3-.47c.14,0,.34.09.34.21v5.64h1.24C352.9,270.76,353,270.87,353,271.13Zm5.41-1.49v.13c0,.26-.07.37-.23.37h-.52v1.27c0,.16-.12.25-.41.25H357c-.28,0-.41-.09-.41-.25v-1.27h-2.73c-.13,0-.28-.45-.28-.66,0-.05,0-.08,0-.1l3-4.31a.54.54,0,0,1,.44-.15h.2c.29,0,.41.08.41.25v4.09h.52C358.32,269.26,358.39,269.38,358.39,269.64Zm-1.81-3.05h0l-1.83,2.68h1.87Zm3,3.82h-.22c-.33,0-.47.09-.47.25v.75c0,.16.14.25.47.25h.22c.33,0,.47-.09.47-.25v-.75C360.06,270.5,359.92,270.41,359.59,270.41Zm0-3.8h-.22c-.33,0-.47.09-.47.25v.75c0,.16.14.24.47.24h.22c.33,0,.47-.08.47-.24v-.75C360.06,266.7,359.92,266.61,359.59,266.61Zm3.09.91h-.39l.11-1.7h2c.17,0,.24-.11.24-.34v-.17c0-.26-.07-.37-.24-.37h-2.66c-.24,0-.33.09-.35.32l-.16,2.81c0,.23.05.33.3.33h.91c1,0,1.49.43,1.49,1.2a1.17,1.17,0,0,1-1.28,1.22,4.22,4.22,0,0,1-1.41-.34c-.15,0-.41.42-.41.6s.76.62,1.83.62,2.37-.46,2.37-2.11S363.9,267.52,362.68,267.52Zm7.65.77c0,2.28-.95,3.41-2.23,3.41s-2.21-1.13-2.21-3.41.95-3.42,2.21-3.42S370.33,266,370.33,268.29Zm-1.09,0c0-1.79-.52-2.54-1.14-2.54s-1.13.75-1.13,2.54.51,2.53,1.13,2.53S369.24,270.08,369.24,268.29Z" fill="#1f496b" fill-rule="evenodd"/><path d="M560.88,267.46h2.3V274h-2.3Zm4,6.57h2.3v-8.2h-2.3Zm4,0h2.3v-9.85h-2.3Zm4-11.49V274h2.3V262.54Z" fill="#1f496b" fill-rule="evenodd"/><path d="M584.83,264.93h15.92v6.71H584.83Zm17.63,0v6.71H604v-6.71Z" fill="#1f496b" fill-rule="evenodd"/><rect x="347.17" y="334.44" width="258.17" height="45.08" rx="10.93" fill="#689fce"/><rect x="364.76" y="349.97" width="223" height="14" fill="#1f496b"/><path d="M374.32,357H576.49V692.08H399.71c-21.85,0-25.39-47.92-25.39-74.7Z" fill="#fff" fill-rule="evenodd"/><rect x="381.84" y="401.98" width="187.14" height="5.63" rx="1.79" fill="#bbc6d0"/><rect x="381.84" y="414.53" width="187.14" height="5.63" rx="1.79" fill="#bbc6d0"/><rect x="381.94" y="451.94" width="113.92" height="5.63" rx="1.79" fill="#bbc6d0"/><rect x="381.94" y="467.72" width="113.92" height="5.63" rx="1.79" fill="#bbc6d0"/><rect x="381.94" y="483.49" width="113.91" height="5.63" rx="1.79" fill="#bbc6d0"/><rect x="381.94" y="499.27" width="113.91" height="5.63" rx="1.79" fill="#bbc6d0"/><rect x="528.09" y="451.94" width="40.89" height="5.63" rx="1.79" fill="#bbc6d0"/><rect x="528.09" y="467.72" width="40.89" height="5.63" rx="1.79" fill="#bbc6d0"/><rect x="528.09" y="483.49" width="40.89" height="5.63" rx="1.79" fill="#bbc6d0"/><rect x="528.09" y="499.27" width="40.89" height="5.63" rx="1.79" fill="#bbc6d0"/><path d="M573.34,437.16h-4.11a1,1,0,0,1,0-2.05h4.11a1,1,0,0,1,0,2.05Zm-10.26,0H559a1,1,0,0,1,0-2.05h4.11a1,1,0,0,1,0,2.05Zm-10.26,0h-4.1a1,1,0,1,1,0-2.05h4.1a1,1,0,0,1,0,2.05Zm-10.26,0h-4.1a1,1,0,1,1,0-2.05h4.1a1,1,0,1,1,0,2.05Zm-10.26,0h-4.1a1,1,0,1,1,0-2.05h4.1a1,1,0,1,1,0,2.05Zm-10.26,0h-4.1a1,1,0,0,1,0-2.05H522a1,1,0,1,1,0,2.05Zm-10.26,0h-4.1a1,1,0,0,1,0-2.05h4.1a1,1,0,1,1,0,2.05Zm-10.25,0h-4.11a1,1,0,0,1,0-2.05h4.11a1,1,0,0,1,0,2.05Zm-10.26,0h-4.1a1,1,0,1,1,0-2.05h4.1a1,1,0,0,1,0,2.05Zm-10.26,0h-4.1a1,1,0,1,1,0-2.05H481a1,1,0,1,1,0,2.05Zm-10.26,0h-4.1a1,1,0,1,1,0-2.05h4.1a1,1,0,1,1,0,2.05Zm-10.26,0h-4.1a1,1,0,1,1,0-2.05h4.1a1,1,0,1,1,0,2.05Zm-10.25,0h-4.11a1,1,0,0,1,0-2.05h4.11a1,1,0,0,1,0,2.05Zm-10.26,0h-4.11a1,1,0,0,1,0-2.05H440a1,1,0,0,1,0,2.05Zm-10.26,0h-4.11a1,1,0,0,1,0-2.05h4.11a1,1,0,0,1,0,2.05Zm-10.26,0h-4.1a1,1,0,1,1,0-2.05h4.1a1,1,0,1,1,0,2.05Zm-10.26,0h-4.1a1,1,0,1,1,0-2.05h4.1a1,1,0,1,1,0,2.05Zm-10.26,0h-4.1a1,1,0,1,1,0-2.05h4.1a1,1,0,1,1,0,2.05Zm-10.26,0h-4.1a1,1,0,0,1,0-2.05h4.1a1,1,0,1,1,0,2.05Zm-10.25,0h-4.11a1,1,0,0,1,0-2.05h4.11a1,1,0,0,1,0,2.05Z"/><rect x="381.94" y="515.05" width="113.92" height="5.63" rx="1.79" fill="#bbc6d0"/><rect x="381.94" y="530.82" width="113.92" height="5.63" rx="1.79" fill="#bbc6d0"/><rect x="381.94" y="546.6" width="113.91" height="5.63" rx="1.79" fill="#bbc6d0"/><rect x="381.94" y="562.38" width="113.91" height="5.63" rx="1.79" fill="#bbc6d0"/><rect x="528.09" y="515.05" width="40.89" height="5.63" rx="1.79" fill="#bbc6d0"/><rect x="528.09" y="530.82" width="40.89" height="5.63" rx="1.79" fill="#bbc6d0"/><rect x="528.09" y="546.6" width="40.89" height="5.63" rx="1.79" fill="#bbc6d0"/><rect x="528.09" y="562.38" width="40.89" height="5.63" rx="1.79" fill="#bbc6d0"/><path d="M445.73,512.46H635.21a12.73,12.73,0,0,1,12.69,12.69v246H445.73Z" fill="#fff" fill-rule="evenodd"/><path d="M399.71,692.08c34.69,0,6.69-179.61,46-179.62V692.08Z" fill="#e7eef4" fill-rule="evenodd"/><path d="M399.7,691.21h45.18a.87.87,0,1,1,0,1.73H399.7a.87.87,0,1,1,0-1.73Z" fill-rule="evenodd"/><path d="M445.73,511.59H635.21a.87.87,0,0,1,0,1.73H445.73a.87.87,0,0,1,0-1.73Z" fill-rule="evenodd"/><path d="M446.6,770.25H647a.87.87,0,1,1,0,1.73H446.6a.87.87,0,1,1,0-1.73Z" fill-rule="evenodd"/><path d="M646.48,684.5h-4.11a1,1,0,0,1,0-2h4.11a1,1,0,0,1,0,2Zm-10.26,0h-4.11a1,1,0,0,1,0-2h4.11a1,1,0,0,1,0,2Zm-10.26,0h-4.1a1,1,0,1,1,0-2H626a1,1,0,0,1,0,2Zm-10.26,0h-4.1a1,1,0,1,1,0-2h4.1a1,1,0,1,1,0,2Zm-10.26,0h-4.1a1,1,0,1,1,0-2h4.1a1,1,0,1,1,0,2Zm-10.26,0h-4.1a1,1,0,1,1,0-2h4.1a1,1,0,1,1,0,2Zm-10.25,0h-4.11a1,1,0,0,1,0-2h4.11a1,1,0,0,1,0,2Zm-10.26,0h-4.11a1,1,0,0,1,0-2h4.11a1,1,0,0,1,0,2Zm-10.26,0h-4.1a1,1,0,1,1,0-2h4.1a1,1,0,0,1,0,2Zm-10.26,0h-4.1a1,1,0,1,1,0-2h4.1a1,1,0,1,1,0,2Zm-10.26,0h-4.1a1,1,0,1,1,0-2h4.1a1,1,0,1,1,0,2Zm-10.26,0h-4.1a1,1,0,1,1,0-2h4.1a1,1,0,1,1,0,2Zm-10.25,0h-4.11a1,1,0,0,1,0-2h4.11a1,1,0,0,1,0,2Zm-10.26,0H509a1,1,0,0,1,0-2h4.11a1,1,0,0,1,0,2Zm-10.26,0h-4.1a1,1,0,1,1,0-2h4.1a1,1,0,0,1,0,2Zm-10.26,0h-4.1a1,1,0,1,1,0-2h4.1a1,1,0,1,1,0,2Zm-10.26,0h-4.1a1,1,0,1,1,0-2h4.1a1,1,0,1,1,0,2Zm-10.26,0H468a1,1,0,1,1,0-2h4.1a1,1,0,1,1,0,2Zm-10.26,0h-4.1a1,1,0,0,1,0-2h4.1a1,1,0,1,1,0,2Zm-10.25,0h-4.11a1,1,0,0,1,0-2h4.11a1,1,0,0,1,0,2Z"/><rect x="454.98" y="623.79" width="105.69" height="37.8" rx="1.9" fill="#bbc6d0"/><path d="M646.48,526.33h-4.11a1,1,0,0,1,0-2.05h4.11a1,1,0,0,1,0,2.05Zm-10.26,0h-4.11a1,1,0,0,1,0-2.05h4.11a1,1,0,0,1,0,2.05Zm-10.26,0h-4.1a1,1,0,1,1,0-2.05H626a1,1,0,0,1,0,2.05Zm-10.26,0h-4.1a1,1,0,1,1,0-2.05h4.1a1,1,0,1,1,0,2.05Zm-10.26,0h-4.1a1,1,0,1,1,0-2.05h4.1a1,1,0,1,1,0,2.05Zm-10.26,0h-4.1a1,1,0,1,1,0-2.05h4.1a1,1,0,1,1,0,2.05Zm-10.25,0h-4.11a1,1,0,0,1,0-2.05h4.11a1,1,0,0,1,0,2.05Zm-10.26,0h-4.11a1,1,0,0,1,0-2.05h4.11a1,1,0,0,1,0,2.05Zm-10.26,0h-4.1a1,1,0,1,1,0-2.05h4.1a1,1,0,0,1,0,2.05Zm-10.26,0h-4.1a1,1,0,1,1,0-2.05h4.1a1,1,0,1,1,0,2.05Zm-10.26,0h-4.1a1,1,0,1,1,0-2.05h4.1a1,1,0,1,1,0,2.05Zm-10.26,0h-4.1a1,1,0,1,1,0-2.05h4.1a1,1,0,1,1,0,2.05Zm-10.25,0h-4.11a1,1,0,0,1,0-2.05h4.11a1,1,0,0,1,0,2.05Zm-10.26,0H509a1,1,0,0,1,0-2.05h4.11a1,1,0,0,1,0,2.05Zm-10.26,0h-4.1a1,1,0,1,1,0-2.05h4.1a1,1,0,0,1,0,2.05Zm-10.26,0h-4.1a1,1,0,1,1,0-2.05h4.1a1,1,0,1,1,0,2.05Zm-10.26,0h-4.1a1,1,0,1,1,0-2.05h4.1a1,1,0,1,1,0,2.05Zm-10.26,0H468a1,1,0,1,1,0-2.05h4.1a1,1,0,1,1,0,2.05Zm-10.26,0h-4.1a1,1,0,0,1,0-2.05h4.1a1,1,0,1,1,0,2.05Zm-10.25,0h-4.11a1,1,0,0,1,0-2.05h4.11a1,1,0,0,1,0,2.05Z"/><rect x="454.98" y="540.57" width="187.14" height="5.63" rx="1.79" fill="#bbc6d0"/><rect x="454.98" y="553.12" width="187.14" height="5.63" rx="1.79" fill="#bbc6d0"/><rect x="455.07" y="574.45" width="113.91" height="5.63" rx="1.79" fill="#bbc6d0"/><rect x="455.07" y="590.22" width="113.91" height="5.63" rx="1.79" fill="#bbc6d0"/><rect x="601.23" y="574.45" width="40.89" height="5.63" rx="1.79" fill="#bbc6d0"/><rect x="601.23" y="590.22" width="40.89" height="5.63" rx="1.79" fill="#bbc6d0"/><path d="M480.09,692.08h8.7v74.58h-8.7V692.08Zm120.56,0h12.89v74.58H600.65V692.08Zm-6.08,0h4.35v74.58h-4.35V692.08Zm-6.08,0h4.35v74.58h-4.35V692.08Zm-7.87,0h6.14v74.58h-6.14V692.08Zm-10.42,0h8.69v74.58H570.2V692.08Zm-6.08,0h4.35v74.58h-4.35V692.08Zm-6.08,0h4.35v74.58H558V692.08Zm-10.43,0h8.7v74.58h-8.7V692.08Zm-14.48,0H546v74.58H533.13V692.08Zm-6.08,0h4.35v74.58h-4.35V692.08Zm-6.08,0h4.35v74.58H521V692.08Zm-7.86,0h6.13v74.58h-6.13V692.08Zm-10.43,0h8.7v74.58h-8.7V692.08Zm-6.08,0H501v74.58H496.6V692.08Zm-6.08,0h4.35v74.58h-4.35Z" fill="#bbc6d0" fill-rule="evenodd"/><circle cx="225.35" cy="839.42" r="62.5" transform="translate(-257.86 116.98) rotate(-18.75)" fill="#faba23"/><path d="M274.33,854.77a51.44,51.44,0,1,1-4.76-41.41A51.33,51.33,0,0,1,274.33,854.77Z" fill="#fad332"/><path d="M256.69,798.75,186.6,873.1a51.42,51.42,0,0,1-12.55-35.92l46-48.83a51.52,51.52,0,0,1,36.6,10.4Z" fill="#faee6c"/><path d="M269.57,813.36l-67.64,71.75a51.16,51.16,0,0,1-11.64-8.17l70.44-74.73A51.5,51.5,0,0,1,269.57,813.36Z" fill="#faee6c"/><path d="M228.37,790.6c-6.07-.58-7.18,0-9.85,5.43.62-6,0-7.1-5.43-9.85,6.07.58,7.17,0,9.85-5.43C222.36,786.82,223,787.93,228.37,790.6Z" fill="#fff"/><path d="M207.74,887.21c-5.12-.5-6.05,0-8.31,4.57.53-5.06,0-6-4.58-8.31,5.13.5,6.06,0,8.32-4.57C202.67,884,203.19,885,207.74,887.21Z" fill="#fff"/><path d="M347.48,865.53a6.07,6.07,0,0,0-6.13-6l-5,0a6.06,6.06,0,0,0,5.36-6.08l-.07-8.58a6.06,6.06,0,0,0-3.94-5.62h.15a6.07,6.07,0,0,0,6-6.13l-.07-8.58a6.07,6.07,0,0,0-6.13-6l-10.26.09a6.07,6.07,0,0,0,3.22-5.41l-.07-8.58a6,6,0,0,0-4.45-5.79l11.17-.1a6.07,6.07,0,0,0,6-6.12l-.07-8.58a6.07,6.07,0,0,0-6.13-6h-1.33a6.06,6.06,0,0,0,2.79-5.16l-.07-8.58a6,6,0,0,0-1.47-3.9,6.12,6.12,0,0,0-3.51-2l5.12,0a6.06,6.06,0,0,0,6-6.12l-.07-8.58a6.07,6.07,0,0,0-6.12-6l-104.72.91a6.07,6.07,0,0,0-6,6.12l.08,8.58a6.06,6.06,0,0,0,4.95,5.91l-5.09.05a6,6,0,0,0-6,6.12l.07,8.58a6.06,6.06,0,0,0,.87,3.07A62.5,62.5,0,0,1,236.8,900.86l97.59-.85a6.08,6.08,0,0,0,6-6.12l-.08-8.58a6,6,0,0,0-1.47-3.91,6.26,6.26,0,0,0-1.32-1.14l4,0a6.07,6.07,0,0,0,6-6.12Z" fill="#fad332"/><path d="M346.15,878l-4.54,0-.14-16.42,4.54,0a6.11,6.11,0,0,0-4.56-2.11h-.1l-5.15,0a6,6,0,0,0,4.09-2.15l-4.54,0L335.61,841l4.54,0a6,6,0,0,0-2.48-1.72h.26a6,6,0,0,0,4.52-2.19l-4.53,0-.15-16.41,4.54,0a6.11,6.11,0,0,0-4.56-2.11h-.1l-10.27.09a6.45,6.45,0,0,0,1.84-1.48l-4.54,0-.14-16.42,4.53,0a6,6,0,0,0-3-1.88l8.24-.07,3,0h0a6,6,0,0,0,4.52-2.18l-4.53,0-.15-16.42,4.54,0a6.06,6.06,0,0,0-4.56-2.1h-1.43a5.87,5.87,0,0,0,1.4-1.23l-4.54,0-.14-16.41,4.53,0a6.06,6.06,0,0,0-3.54-2l2.2,0,3,0h0a6,6,0,0,0,4.51-2.18l-4.53,0-.15-16.41,4.54,0a6.1,6.1,0,0,0-4.55-2.11h-3l-9.71.09-3,0-9.71.08-1.85,0-10.91.09h0l-3,0h0l-9.71.08-3.05,0-9.71.08-2.37,0L262,738.3h0l-3.05,0h0l-9.71.09-3,0-9.71.09-3.05,0v0a6.07,6.07,0,0,0-4.35,2.17l4.37,0,.15,16.42-4.37,0a6,6,0,0,0,3.55,2l-5.16.05h-.26v0A6.07,6.07,0,0,0,223,761.4l4.37,0,.14,15.61c1,0,2,.09,3,.18l-.13-15.81,9.71-.09.14,16.42-5.08,0a63.45,63.45,0,0,1,8.83,2.08c1.33.41,2.62.88,3.89,1.37V781l9.71-.09.05,5.06c1,.63,2.06,1.28,3.05,2l-.06-7,9.72-.09.13,15.46a62.72,62.72,0,0,1,4.27,5l8.44-.07.13,15.05a62.11,62.11,0,0,1,3.45,11.94l-.06-7,9.72-.08.14,16.41-8.8.08c0,1.29,0,2.59,0,3.89l6.5-.05.14,16.41-9.4.08a2,2,0,0,1-.07.23c-.43,1.38-.92,2.73-1.44,4l3.87,0,.14,16.42-9.71.08,0-5.22c-1,1.46-1.94,2.89-3,4.26v1H274c-.93,1.15-1.88,2.27-2.87,3.33l9.15-.08.14,16.42-9.71.08-.14-15.84c-1,1-2,2-3,2.95l.11,12.92-9.71.09-.05-5.77c-1,.6-2,1.19-3,1.74l0,4-9.59.09a63.32,63.32,0,0,1-8.51,2.22l30.87-.27h.64l27-.24h.88l9.72-.08h1.26l26.32-.23h1a6.1,6.1,0,0,0,4.52-2.19l-4.54,0-.14-16.42,4.53,0a6.26,6.26,0,0,0-1.32-1.14h1l3,0h0A6,6,0,0,0,346.15,878Zm-11.42-57.32.14,16.42-9.71.09L325,820.81Zm-2.16,20.33.14,16.42-9.71.08-.14-16.41Zm-20.65-23.74-.14-16.42,9.71-.08.15,16.41ZM322,820.84l.14,16.41-9.71.09-.15-16.42Zm-10.14-24-.15-16.42,9.72-.08.14,16.41Zm8,44.33.14,16.42-9.72.08-.14-16.41Zm5.85,20.64.15,16.41-9.72.09L316,861.88Zm8.49-81.58.14,16.41-9.71.09-.14-16.42Zm1.34-40.4.15,16.41-9.72.09-.14-16.42Zm-6.08,20.66.15,16.41-9.72.09-.14-16.42Zm-6.67-20.55.14,16.41-9.71.09L313,740Zm-6.08,20.66.14,16.41-9.71.09L307,760.67Zm-17.59,36.35-.14-16.42,9.71-.08.14,16.42Zm9.8,20.39-9.71.09L299,801l9.71-.08Zm-1.82,23.94.14,16.42-9.71.09-.14-16.42Zm-7.41-3.82L299.51,821l9.71-.08.14,16.41ZM310,740l.15,16.41-9.72.09-.14-16.42Zm-12.75.11.14,16.41-9.71.09-.15-16.42Zm-6.08,20.66.14,16.41-9.71.09-.14-16.42Zm-6.68-20.55.15,16.42-9.72.08-.14-16.42Zm-12.75.11.14,16.42-9.71.08L262,740.46Zm-12.76.11.15,16.42-9.72.08-.14-16.41Zm-22.32,16.61-.15-16.41,9.72-.09.14,16.42Zm6.67,20.55-.14-16.41,9.71-.09.15,16.42Zm12.76-.11-.14-16.42,9.71-.08.14,16.42Zm12.75-.11L268.69,761l9.71-.08.15,16.42Zm4.74,19.74-.14-16.41,9.71-.09.14,16.42Zm22.33-16.61L296,797l-9.71.08-.15-16.41Zm-9.49,37-.14-16.42L296,801l.15,16.41Zm7.93-40.33-.14-16.42,9.71-.08.15,16.41ZM283.45,898.3l-.14-16.41,9.71-.09.14,16.42Zm7.14-19.78-.14-16.42,9.71-.08.15,16.42Zm5.62,19.67-.15-16.41,9.72-.09.14,16.42Zm7.14-19.78L303.21,862l9.71-.08.14,16.41ZM309,898.08l-.14-16.41,9.71-.09.14,16.42Zm12.75-.11-.14-16.41,9.72-.09.14,16.42Zm7.15-19.78-.14-16.42,9.71-.08.14,16.41Z" fill="#faba23"/></g></g></svg>