<?xml version="1.0" encoding="utf-8"?>
<!-- Generator: Adobe Illustrator 27.0.1, SVG Export Plug-In . SVG Version: 6.00 Build 0)  -->
<svg version="1.1" id="Calque_1" xmlns="http://www.w3.org/2000/svg" xmlns:xlink="http://www.w3.org/1999/xlink" x="0px" y="0px"
	 viewBox="0 0 1125 1125" enable-background="new 0 0 1125 1125" xml:space="preserve">
<g>
	<g>
		<path fill="#F4EFBE" d="M167.5,1029.8C15.9,943.9-17.2,466.3,240.7,421.2c11.8-191,150.3-278.1,394.9-223.5
			c408.6,91.3,563.5,618.8,324.9,832C344.4,1029.8,167.5,1029.8,167.5,1029.8z"/>
		<g>
			<path fill="#3E3D51" d="M78.6,1025.5c-1.6,0-2.8,1.9-2.8,4.3c0,2.4,1.3,4.3,2.8,4.3h993.3c1.6,0,2.9-1.9,2.9-4.2c0,0,0-0.1,0-0.1
				c0-2.3-1.3-4.2-2.9-4.2H78.6z"/>
		</g>
	</g>
	<g>
		<g>
			<g>
				<g>
					<g>
						<g>
							<g>
								<g>
									<path fill="#0D5007" d="M701.6,1026.2l-317.3-1.5c-38.2-0.2-69-31.2-68.8-69.4l3.4-795.5c0.2-38.2,31.3-69,69.4-68.8
										l317.3,1.5c38.2,0.2,69,31.2,68.8,69.4L771,957.3C770.9,995.5,739.8,1026.3,701.6,1026.2z"/>
								</g>
							</g>
						</g>
						<g>
							<path fill="#FAFAFA" d="M706.2,119.9l-61.5-0.3L465,118.8l-21.6-0.1l-53.8-0.2c-26.7-0.1-48.5,21.5-48.6,48.2l-3.3,776.4
								c-0.1,26.7,21.5,48.5,48.2,48.6l316.7,1.5c26.7,0.1,48.5-21.5,48.6-48.2l3.3-776.4C754.5,141.8,732.9,120,706.2,119.9z"/>
						</g>
					</g>
				</g>
			</g>
		</g>
	</g>
	<g>
		<g>
			<g>
				<g>
					<path fill="#FF4D57" d="M564.5,876.3L318.2,615.8c-2.6-2.7-2.5-7.1,0.3-9.7l161.7-152.9c2.7-2.6,7.1-2.5,9.7,0.3l246.4,260.6
						c2.6,2.7,2.5,7.1-0.3,9.7L574.2,876.6C571.4,879.2,567.1,879.1,564.5,876.3z"/>
				</g>
			</g>
			<g>
				<g>
					<path fill="#ECECEC" d="M564.5,876.3L318.2,615.8c-2.6-2.7-2.5-7.1,0.3-9.7l161.7-152.9c2.7-2.6,7.1-2.5,9.7,0.3l246.4,260.6
						c2.6,2.7,2.5,7.1-0.3,9.7L574.2,876.6C571.4,879.2,567.1,879.1,564.5,876.3z"/>
				</g>
			</g>
			<g>
				<g>
					<g>
						<path fill="#A6D15A" d="M734.3,712.2L491.6,455.4c-3.6-3.8-9.6-4-13.4-0.4l-45.9,43.4c-0.9,0.9-1.4,2.1-1.1,3.4
							c4.6,25.7,23,48.7,44.9,63.9c26.5,18.4,57.8,28.1,87.6,40.3c29.8,12.3,59.7,28.4,77.6,55.3c16.9,25.3,20.8,56.7,29.4,85.9
							c2.3,7.8,5.2,15.7,8.7,23.2c1.1,2.3,4.2,3,6,1.2l48.7-46C737.8,722,737.9,716,734.3,712.2z"/>
					</g>
				</g>
			</g>
			<g>
				<g>
					<path fill="#FFFFFF" d="M488,530.1c-2.2,2.1-5.1,1.5-8.3-1.8l-6.2-6.6l12.7-12l5.9,6.2c3,3.2,3.2,6.1,1.2,7.9
						c-1.3,1.2-2.9,1.5-4.4,1C489.8,526.7,489.6,528.6,488,530.1z M486.8,514.8l-3,2.8l2.8,2.9c1.4,1.4,2.6,1.7,3.6,0.8
						c1-0.9,0.7-2.2-0.6-3.6L486.8,514.8z M485.5,526.9c1.1-1,0.8-2.3-0.6-3.8l-3.2-3.4l-3.1,3l3.2,3.4
						C483.2,527.6,484.4,527.9,485.5,526.9z"/>
				</g>
				<g>
					<path fill="#FFFFFF" d="M497.3,541.4l-5.6-5.9l-3.8,1.4l-2.8-3l18.1-6.3l2.7,2.9l-7.3,17.7l-2.9-3.1L497.3,541.4z M498.6,538.4
						l3-6.6l-6.8,2.6L498.6,538.4z"/>
				</g>
				<g>
					<path fill="#FFFFFF" d="M523.5,549.2l-12.7,12l-2.3-2.4l1.7-13.6l-7.7,7.3l-2.7-2.9l12.7-12l2.3,2.4l-1.7,13.6l7.7-7.3
						L523.5,549.2z"/>
				</g>
				<g>
					<path fill="#FFFFFF" d="M523,564.1l-3.4,0l-3.2,3l-2.8-2.9l12.7-12l2.8,2.9l-5.9,5.6l11.2,0l3.1,3.3l-10.6,0.1l-1.8,12.2
						l-3.2-3.4L523,564.1z"/>
				</g>
			</g>
			<g>
				<g>
					<path fill="#0D5007" d="M432.9,577.7l-2.2-2.3l-3.1,2.9l-1.1-1.2l3.1-2.9l-6.2-6.6l0.9-0.8l13.6-1.1l1.3,1.3l-13.2,1.2l4.8,5.1
						l2.7-2.5l1.1,1.2l-2.7,2.5l2.2,2.3L432.9,577.7z"/>
				</g>
				<g>
					<path fill="#0D5007" d="M441.3,586c-1.9,1.8-4.8,1.8-7.4-1c-1.6-1.7-2.5-3.8-2.5-5.6l1.5-0.3c-0.1,1.5,0.6,3.4,2.1,4.9
						c1.8,1.9,3.7,2.1,5.2,0.8c1.4-1.3,1.4-3.2-0.7-5.3l-0.8-0.8l0.9-0.8l7.1-0.6l-5.6-6l1.1-1l7.1,7.5l-0.8,0.8l-7.3,0.6
						C443.3,581.7,443.2,584.2,441.3,586z"/>
				</g>
				<g>
					<path fill="#0D5007" d="M450.3,595.3c-2,1.9-4.8,2-7.5-0.9c-1.6-1.7-2.5-3.8-2.5-5.6l1.5-0.3c-0.1,1.5,0.6,3.4,2,4.9
						c1.9,2,3.8,2.1,5.2,0.8c1.5-1.4,1.6-3.2-1.3-6.2l-2.3-2.5l6.4-4.9l6,6.4l-1.1,1l-5-5.3l-4.1,3.1l1.4,1.5
						C452.5,590.7,452.4,593.4,450.3,595.3z"/>
				</g>
				<g>
					<path fill="#0D5007" d="M460.1,605.6c-2.2,2.1-5.2,1.7-7.3-0.6c-2.9-3.1-2.4-6.8,1.3-10.3c4-3.7,8.1-3.5,11.1-0.4
						c1,1,1.7,2.2,2,3.4l-1.4,0.4c-0.2-1-0.8-1.9-1.6-2.8c-2.4-2.5-5.5-2.6-8.7,0.4c-0.3,0.3-0.6,0.6-0.9,0.9
						c1.8-0.6,3.8,0.1,5.4,1.7C462,600.6,462.2,603.5,460.1,605.6z M458.9,604.4c1.5-1.4,1.4-3.5-0.3-5.3c-1.7-1.8-3.9-2-5.4-0.6
						c-1.3,1.2-1.5,3.4,0.4,5.4C455.3,605.6,457.4,605.9,458.9,604.4z"/>
				</g>
				<g>
					<path fill="#0D5007" d="M480.4,634l1-6.2l-6.3,0.7l-1.3-1.3l7.8-0.8l1.1-7.3l1.3,1.3l-0.9,5.9l5.9-0.6l1.2,1.3l-7.4,0.7
						l-1.2,7.7L480.4,634z"/>
				</g>
				<g>
					<path fill="#0D5007" d="M488.8,642.9l1-6.2l-6.3,0.7l-1.3-1.3l7.8-0.8l1.1-7.3l1.3,1.3l-0.9,5.9l5.9-0.6l1.2,1.3l-7.4,0.7
						l-1.2,7.7L488.8,642.9z"/>
				</g>
				<g>
					<path fill="#0D5007" d="M497.2,651.8l1-6.2l-6.3,0.7l-1.3-1.3l7.8-0.8l1.1-7.3l1.3,1.3l-0.9,5.9l5.9-0.6l1.2,1.3l-7.4,0.7
						l-1.2,7.7L497.2,651.8z"/>
				</g>
				<g>
					<path fill="#0D5007" d="M505.6,660.7l1-6.2l-6.3,0.7l-1.3-1.3l7.8-0.8l1.1-7.3l1.3,1.3l-0.9,5.9l5.9-0.6l1.2,1.3l-7.4,0.7
						l-1.2,7.7L505.6,660.7z"/>
				</g>
				<g>
					<path fill="#0D5007" d="M534.7,691.4l1-6.2l-6.3,0.7l-1.3-1.3l7.8-0.8l1.1-7.3l1.3,1.3l-0.9,5.9l5.9-0.6l1.2,1.3l-7.4,0.7
						l-1.2,7.7L534.7,691.4z"/>
				</g>
				<g>
					<path fill="#0D5007" d="M543.1,700.3l1-6.2l-6.3,0.7l-1.3-1.3l7.8-0.8l1.1-7.3l1.3,1.3l-0.9,5.9l5.9-0.6l1.2,1.3l-7.4,0.7
						l-1.2,7.7L543.1,700.3z"/>
				</g>
				<g>
					<path fill="#0D5007" d="M551.5,709.2l1-6.2l-6.3,0.7l-1.3-1.3l7.8-0.8l1.1-7.3l1.3,1.3l-0.9,5.9l5.9-0.6l1.2,1.3l-7.4,0.7
						l-1.2,7.7L551.5,709.2z"/>
				</g>
				<g>
					<path fill="#0D5007" d="M559.9,718.1l1-6.2l-6.3,0.7l-1.3-1.3l7.8-0.8l1.1-7.3l1.3,1.3l-0.9,5.9l5.9-0.6l1.2,1.3l-7.4,0.7
						l-1.2,7.7L559.9,718.1z"/>
				</g>
				<g>
					<path fill="#0D5007" d="M597.6,734.6l-11.7,11l-1.1-1.2l10.6-10l-2.6-2.7l1.1-1L597.6,734.6z"/>
				</g>
				<g>
					<path fill="#0D5007" d="M599.2,753c-1.9,1.8-4.8,1.8-7.4-1c-1.6-1.7-2.5-3.8-2.5-5.6l1.5-0.3c-0.1,1.5,0.6,3.4,2.1,4.9
						c1.8,1.9,3.7,2.1,5.2,0.8c1.4-1.3,1.4-3.2-0.7-5.3l-0.8-0.8l0.9-0.8l7.1-0.6l-5.6-6l1.1-1l7.1,7.5l-0.8,0.8l-7.3,0.6
						C601.2,748.7,601.1,751.2,599.2,753z"/>
				</g>
				<g>
					<path fill="#0D5007" d="M609.9,764.9l-2.2-2.3l-3.1,2.9l-1.1-1.2l3.1-2.9l-6.2-6.6l0.9-0.8l13.6-1.1l1.3,1.3l-13.2,1.2l4.8,5.1
						l2.7-2.6l1.1,1.2l-2.7,2.5l2.2,2.3L609.9,764.9z"/>
				</g>
				<g>
					<path fill="#0D5007" d="M616.4,775.7l-1.1,1l-7.7-8.2l0.8-0.8l9.3,0.4c2.5,0.1,3.6-0.4,4.4-1.2c1.3-1.3,1.3-3-0.4-4.8
						c-1.3-1.4-2.7-2-4.3-2l-0.1-1.5c1.9-0.1,3.9,0.8,5.6,2.6c2.2,2.4,2.5,5,0.5,6.8c-1.1,1.1-2.4,1.6-5.5,1.5l-7.6-0.3L616.4,775.7
						z"/>
				</g>
			</g>
			<g>
				<g>
					<path fill="#0D5007" d="M532.4,773.7c3.5-3.3,7.4-3.3,9.9-0.6c2.5,2.6,2.3,6.5-1.2,9.8c-3.5,3.3-7.4,3.3-9.9,0.6
						C528.7,780.9,528.9,777.1,532.4,773.7z M538.7,780.4c2.4-2.3,2.6-4.1,1.5-5.4c-1.2-1.2-3-1.1-5.4,1.2c-2.4,2.3-2.6,4.1-1.5,5.3
						C534.5,782.8,536.3,782.7,538.7,780.4z"/>
				</g>
				<g>
					<path fill="#0D5007" d="M548.6,794.8c-2.2,2.1-5.3,1.6-7.4-0.7c-2.8-3-2.7-6.5,0.8-9.8c3.7-3.5,7.9-3.2,10.9,0
						c1.1,1.1,1.9,2.5,2.1,3.7l-2.7,0.8c-0.2-1-0.7-1.8-1.4-2.5c-1.7-1.8-3.8-1.9-6-0.1c1.2,0,2.4,0.6,3.5,1.7
						C550.4,790.1,550.6,792.9,548.6,794.8z M546.2,792.5c1-0.9,0.9-2.2-0.1-3.3c-1-1.1-2.4-1.2-3.4-0.3c-0.9,0.9-0.9,2.2,0.2,3.4
						C543.9,793.3,545.2,793.5,546.2,792.5z"/>
				</g>
				<g>
					<path fill="#0D5007" d="M562.8,790.8l2,2.1l-19.2,8.6l-2-2.1L562.8,790.8z"/>
				</g>
				<g>
					<path fill="#0D5007" d="M561.5,811.2l-2,1.9l-7.7-8.1l1.6-1.5l7.8,0.4c1.8,0.1,2.5-0.3,3-0.7c0.8-0.8,0.8-1.8-0.3-3
						c-0.9-0.9-2-1.4-3.2-1.2l-0.5-2.9c2-0.3,4.2,0.4,6,2.4c2.3,2.4,2.5,5.1,0.6,7c-1,1-2.3,1.6-5.1,1.4l-4.7-0.3L561.5,811.2z"/>
				</g>
				<g>
					<path fill="#0D5007" d="M571.8,821.6l-1.6-1.7l-2.3,2.1l-2.3-2.4l2.3-2.1l-5.5-5.8l1.7-1.6l11.6-1.4l2.5,2.6l-10.9,1.4l2.7,2.9
						l2-1.9l2.2,2.3l-2,1.9l1.6,1.7L571.8,821.6z"/>
				</g>
			</g>
			<g>
				<g>
					<g>
						<path fill="#A6D15A" d="M622.1,689.1c6-9.3,3.7-21.6-4.4-29.2c-2.5-2.4-5.4-4.3-8.4-5.5c-7.8-3.2-18-0.9-22.1,6.5
							c-3.3,6-2,13.5,0.3,19.9c2.4,6.8,6.4,13.7,13.1,16.3c6.4,2.5,14.2,0.2,19-4.8C620.5,691.3,621.3,690.2,622.1,689.1z"/>
					</g>
				</g>
			</g>
		</g>
	</g>
	<g>
		<g>
			<g>
				<g>
					<path fill="#FF4D57" d="M697.5,342.9l-267.3,0c-2.8,0-5.1-2.3-5.1-5.1l0-165.8c0-2.8,2.3-5.1,5.1-5.1l267.3,0
						c2.8,0,5.1,2.3,5.1,5.1l0,165.8C702.6,340.6,700.3,342.9,697.5,342.9z"/>
				</g>
			</g>
			<g>
				<g>
					<path fill="#A6D15A" d="M697.5,342.9l-267.3,0c-2.8,0-5.1-2.3-5.1-5.1l0-165.8c0-2.8,2.3-5.1,5.1-5.1l267.3,0
						c2.8,0,5.1,2.3,5.1,5.1l0,165.8C702.6,340.6,700.3,342.9,697.5,342.9z"/>
				</g>
			</g>
			<g>
				<g>
					<g>
						<path fill="#609633" d="M695.6,166.8l-263.4,0c-3.9,0-7.1,3.2-7.1,7.1l0,47.1c0,0.9,0.5,1.8,1.2,2.3
							c16.3,10.7,38.1,12.5,57.6,8.4c23.5-4.9,44.8-16.9,66.7-26.8c21.9-9.9,46-17.8,69.7-13.7c22.3,3.8,41.4,17.7,61.6,28
							c5.4,2.7,11.1,5.2,17,7.2c1.8,0.6,3.7-0.7,3.7-2.7v-49.9C702.6,170,699.5,166.8,695.6,166.8z"/>
					</g>
				</g>
			</g>
			<g>
				<g>
					<path fill="#FFFFFF" d="M470.8,207.1c0,2.3-1.8,3.6-5.2,3.6l-6.7,0l0-13l6.4,0c3.3,0,4.9,1.4,4.9,3.4c0,1.3-0.7,2.3-1.7,2.9
						C469.9,204.3,470.8,205.4,470.8,207.1z M461.9,199.9l0,3.1l3,0c1.5,0,2.3-0.5,2.3-1.5c0-1-0.8-1.5-2.3-1.5H461.9z M467.8,206.7
						c0-1.1-0.8-1.6-2.4-1.6l-3.5,0l0,3.2l3.5,0C467,208.3,467.8,207.9,467.8,206.7z"/>
				</g>
				<g>
					<path fill="#FFFFFF" d="M481.7,207.8l-6,0l-1.2,2.8l-3.1,0l5.8-13l3,0l5.8,13l-3.2,0L481.7,207.8z M480.7,205.5l-2.1-5l-2.1,5
						L480.7,205.5z"/>
				</g>
				<g>
					<path fill="#FFFFFF" d="M499.3,197.6l0,13h-2.5l-6.5-7.9l0,7.9l-3,0l0-13l2.5,0l6.5,7.9v-7.9L499.3,197.6z"/>
				</g>
				<g>
					<path fill="#FFFFFF" d="M507.1,205.5l-1.7,1.8l0,3.3l-3,0l0-13l3,0v6.1l5.8-6.1h3.3l-5.4,5.8l5.7,7.2l-3.5,0L507.1,205.5z"/>
				</g>
			</g>
			<g>
				<g>
					<path fill="#FFFFFF" d="M468.4,261.2H466v3.1h-1.2l0-3.1l-6.7,0v-0.9l6.3-7.9l1.4,0l-6.1,7.7l5.2,0l0-2.8l1.2,0l0,2.8h2.4
						L468.4,261.2z"/>
				</g>
				<g>
					<path fill="#FFFFFF" d="M477.2,260.9c0,2-1.5,3.5-4.3,3.5c-1.7,0-3.4-0.6-4.3-1.5l0.6-1c0.8,0.8,2.2,1.4,3.7,1.4
						c2,0,3.1-0.9,3.1-2.4c0-1.4-1-2.4-3.2-2.4l-0.9,0l0-0.9l3.3-4.2l-6.1,0l0-1.1h7.7l0,0.9l-3.4,4.3
						C475.9,257.7,477.2,259,477.2,260.9z"/>
				</g>
				<g>
					<path fill="#FFFFFF" d="M486.8,260.8c0,2-1.4,3.6-4.3,3.6c-1.7,0-3.4-0.6-4.3-1.5l0.6-1c0.8,0.8,2.1,1.4,3.7,1.4
						c2,0,3.1-1,3.1-2.4c0-1.5-1-2.5-4-2.5l-2.5,0l0.6-6h6.5l0,1.1h-5.5l-0.4,3.8l1.5,0C485.5,257.3,486.8,258.7,486.8,260.8z"/>
				</g>
				<g>
					<path fill="#FFFFFF" d="M497.4,260.8c0,2.2-1.8,3.7-4.1,3.7c-3.2,0-4.9-2.2-4.9-6c0-4.1,2.2-6.2,5.5-6.2c1.1,0,2.1,0.2,2.8,0.6
						l-0.5,1c-0.6-0.4-1.4-0.6-2.3-0.6c-2.6,0-4.2,1.7-4.2,4.9c0,0.3,0,0.6,0.1,1c0.6-1.3,2-2,3.7-2
						C495.7,257.2,497.4,258.6,497.4,260.8z M496.2,260.8c0-1.6-1.2-2.6-3-2.6c-1.8,0-3.1,1.1-3.1,2.6c0,1.3,1.1,2.6,3.2,2.6
						C495,263.4,496.2,262.4,496.2,260.8z"/>
				</g>
				<g>
					<path fill="#FFFFFF" d="M523.2,264.4l-2.9-3.8l-2.9,3.8l-1.4,0l3.6-4.6l-3.4-4.4l1.4,0l2.7,3.5l2.7-3.5l1.3,0l-3.4,4.4l3.6,4.6
						L523.2,264.4z"/>
				</g>
				<g>
					<path fill="#FFFFFF" d="M532.3,264.4l-2.9-3.8l-2.9,3.8l-1.4,0l3.6-4.6l-3.4-4.4l1.4,0l2.7,3.5l2.7-3.5l1.3,0l-3.4,4.4l3.6,4.6
						L532.3,264.4z"/>
				</g>
				<g>
					<path fill="#FFFFFF" d="M541.5,264.4l-2.9-3.8l-2.9,3.8l-1.4,0l3.6-4.6l-3.4-4.4l1.4,0l2.7,3.5l2.7-3.5l1.3,0l-3.4,4.4l3.6,4.6
						L541.5,264.4z"/>
				</g>
				<g>
					<path fill="#FFFFFF" d="M550.6,264.4l-2.9-3.8l-2.9,3.8l-1.4,0l3.6-4.6l-3.4-4.4l1.4,0l2.7,3.5l2.7-3.5l1.3,0l-3.4,4.4l3.6,4.6
						L550.6,264.4z"/>
				</g>
				<g>
					<path fill="#FFFFFF" d="M582.1,264.4l-2.9-3.8l-2.9,3.8l-1.4,0l3.6-4.6l-3.4-4.4l1.4,0l2.7,3.5l2.7-3.5l1.3,0l-3.4,4.4l3.6,4.6
						L582.1,264.4z"/>
				</g>
				<g>
					<path fill="#FFFFFF" d="M591.2,264.4l-2.9-3.8l-2.9,3.8l-1.4,0l3.6-4.6l-3.4-4.4l1.4,0l2.7,3.5l2.7-3.5l1.3,0l-3.4,4.4l3.6,4.6
						H591.2z"/>
				</g>
				<g>
					<path fill="#FFFFFF" d="M600.3,264.4l-2.9-3.8l-2.9,3.8l-1.4,0l3.6-4.6l-3.4-4.4l1.4,0l2.7,3.5l2.7-3.5l1.3,0l-3.4,4.4l3.6,4.6
						H600.3z"/>
				</g>
				<g>
					<path fill="#FFFFFF" d="M609.4,264.4l-2.9-3.8l-2.9,3.8l-1.4,0l3.6-4.6l-3.4-4.4l1.4,0l2.7,3.5l2.7-3.5l1.3,0l-3.4,4.4l3.6,4.6
						L609.4,264.4z"/>
				</g>
				<g>
					<path fill="#FFFFFF" d="M637.7,252.4v12l-1.2,0l0-10.9l-2.8,0v-1.1L637.7,252.4z"/>
				</g>
				<g>
					<path fill="#FFFFFF" d="M648.5,260.9c0,2-1.5,3.5-4.3,3.5c-1.7,0-3.4-0.6-4.3-1.5l0.6-1c0.8,0.8,2.2,1.4,3.7,1.4
						c2,0,3.1-0.9,3.1-2.4c0-1.4-1-2.4-3.2-2.4l-0.9,0v-0.9l3.3-4.2l-6.1,0v-1.1l7.7,0v0.9l-3.4,4.3
						C647.2,257.7,648.5,259,648.5,260.9z"/>
				</g>
				<g>
					<path fill="#FFFFFF" d="M660.4,261.2H658v3.1l-1.2,0l0-3.1l-6.7,0v-0.9l6.3-7.9l1.4,0l-6.1,7.7l5.2,0l0-2.8h1.2l0,2.8h2.4
						L660.4,261.2z"/>
				</g>
				<g>
					<path fill="#FFFFFF" d="M669.6,263.3l0,1.1l-8.4,0l0-0.9l5-4.9c1.4-1.3,1.6-2.1,1.6-3c0-1.4-1-2.2-2.8-2.2
						c-1.4,0-2.5,0.4-3.3,1.3l-0.9-0.8c0.9-1.1,2.4-1.7,4.2-1.7c2.4,0,4,1.2,4,3.2c0,1.1-0.4,2.2-2,3.7l-4.1,4L669.6,263.3z"/>
				</g>
			</g>
			<g>
				<g>
					<path fill="#FFFFFF" d="M451.9,289.2c0-1.7,1.3-3,3.1-3c1,0,1.8,0.4,2.3,1l-0.8,0.8c-0.4-0.4-0.9-0.7-1.4-0.7
						c-1.1,0-1.8,0.7-1.8,1.8c0,1.1,0.8,1.8,1.8,1.8c0.6,0,1.1-0.2,1.4-0.7l0.8,0.8c-0.5,0.7-1.4,1-2.4,1
						C453.2,292.1,451.9,290.9,451.9,289.2z"/>
				</g>
				<g>
					<path fill="#FFFFFF" d="M461.9,290.8h-2.6l-0.5,1.2h-1.4l2.5-5.7h1.3l2.6,5.7h-1.4L461.9,290.8z M461.4,289.8l-0.9-2.2
						l-0.9,2.2L461.4,289.8z"/>
				</g>
				<g>
					<path fill="#FFFFFF" d="M468,292l-1.1-1.6l-0.1,0l-1.1,0l0,1.6l-1.3,0l0-5.7l2.5,0c1.5,0,2.5,0.8,2.5,2.1
						c0,0.9-0.4,1.5-1.2,1.8l1.3,1.8L468,292z M466.7,287.4h-1.1l0,2l1.1,0c0.8,0,1.2-0.4,1.2-1C468,287.8,467.6,287.4,466.7,287.4z
						"/>
				</g>
				<g>
					<path fill="#FFFFFF" d="M469.9,291.5l0.4-1c0.5,0.4,1.2,0.6,1.9,0.6c0.8,0,1.1-0.3,1.1-0.6c0-1.1-3.3-0.3-3.3-2.5
						c0-1,0.8-1.8,2.4-1.8c0.7,0,1.5,0.2,2,0.5l-0.4,1c-0.5-0.3-1.1-0.4-1.6-0.4c-0.8,0-1.1,0.3-1.1,0.7c0,1.1,3.3,0.3,3.3,2.4
						c0,1-0.8,1.8-2.4,1.8C471.3,292.1,470.4,291.9,469.9,291.5z"/>
				</g>
				<g>
					<path fill="#FFFFFF" d="M483.1,286.3l0,5.7l-1.3,0l0-2.3l-2.6,0l0,2.3l-1.3,0v-5.7l1.3,0l0,2.2l2.6,0l0-2.2L483.1,286.3z"/>
				</g>
				<g>
					<path fill="#FFFFFF" d="M484.1,289.2c0-1.7,1.3-3,3.1-3c1.8,0,3.1,1.2,3.1,3c0,1.7-1.3,3-3.1,3
						C485.4,292.1,484.1,290.9,484.1,289.2z M489,289.2c0-1.1-0.8-1.8-1.8-1.8c-1,0-1.8,0.7-1.8,1.8c0,1.1,0.8,1.8,1.8,1.8
						C488.2,291,489,290.3,489,289.2z"/>
				</g>
				<g>
					<path fill="#FFFFFF" d="M491.4,286.3l1.3,0l0,4.6l2.9,0l0,1.1l-4.2,0L491.4,286.3z"/>
				</g>
				<g>
					<path fill="#FFFFFF" d="M496.3,286.3l2.6,0c1.9,0,3.1,1.1,3.1,2.9c0,1.7-1.3,2.9-3.1,2.9l-2.6,0L496.3,286.3z M498.8,291
						c1.1,0,1.9-0.7,1.9-1.8c0-1.1-0.7-1.8-1.9-1.8l-1.2,0l0,3.5L498.8,291z"/>
				</g>
				<g>
					<path fill="#FFFFFF" d="M507.4,291l0,1.1l-4.4,0l0-5.7l4.3,0l0,1.1h-3l0,1.2l2.6,0l0,1l-2.6,0v1.3L507.4,291z"/>
				</g>
				<g>
					<path fill="#FFFFFF" d="M512.1,292l-1.1-1.6l-0.1,0l-1.1,0l0,1.6h-1.3l0-5.7l2.5,0c1.5,0,2.5,0.8,2.5,2.1
						c0,0.9-0.4,1.5-1.2,1.8l1.3,1.8L512.1,292z M510.9,287.4l-1.1,0v2l1.1,0c0.8,0,1.2-0.4,1.2-1
						C512.1,287.8,511.7,287.4,510.9,287.4z"/>
				</g>
			</g>
			<g>
				<g>
					<path fill="#FFFFFF" d="M451.3,311.5l1.4-1.7c0.6,0.8,1.3,1.2,2,1.2c1,0,1.6-0.6,1.6-1.8v-5.2h-3.9l0-2h6.4l0,7.1
						c0,2.7-1.4,4.1-4,4.1C453.4,313.1,452.1,312.5,451.3,311.5z"/>
				</g>
				<g>
					<path fill="#FFFFFF" d="M460.5,311.5c0-0.9,0.7-1.5,1.5-1.5c0.8,0,1.5,0.6,1.5,1.5c0,0.9-0.7,1.5-1.5,1.5
						C461.1,313,460.5,312.4,460.5,311.5z"/>
				</g>
				<g>
					<path fill="#FFFFFF" d="M481.4,301.9l-3.6,11H475l-2.4-7.4l-2.5,7.4h-2.7l-3.6-11l2.6,0l2.5,7.7l2.6-7.7l2.4,0l2.5,7.8l2.6-7.8
						H481.4z"/>
				</g>
				<g>
					<path fill="#FFFFFF" d="M482.4,301.9c0-0.8,0.6-1.4,1.5-1.4c0.9,0,1.5,0.6,1.5,1.3c0,0.8-0.6,1.4-1.5,1.4
						C483.1,303.3,482.4,302.7,482.4,301.9z M482.7,304.4l2.4,0l0,8.4h-2.4L482.7,304.4z"/>
				</g>
				<g>
					<path fill="#FFFFFF" d="M487.5,301.2l2.4,0v11.7l-2.4,0V301.2z"/>
				</g>
				<g>
					<path fill="#FFFFFF" d="M492.2,301.2h2.4l0,11.7l-2.4,0L492.2,301.2z"/>
				</g>
				<g>
					<path fill="#FFFFFF" d="M496.6,301.9c0-0.8,0.6-1.4,1.5-1.4c0.9,0,1.5,0.6,1.5,1.3c0,0.8-0.6,1.4-1.5,1.4
						C497.2,303.3,496.6,302.7,496.6,301.9z M496.9,304.4l2.4,0l0,8.4h-2.4L496.9,304.4z"/>
				</g>
				<g>
					<path fill="#FFFFFF" d="M509.1,308.1v4.8l-2.3,0l0-1.1c-0.5,0.8-1.3,1.2-2.6,1.2c-2,0-3.2-1.1-3.2-2.6c0-1.5,1.1-2.5,3.6-2.5
						l1.9,0c0-1.1-0.6-1.7-1.9-1.7c-0.9,0-1.8,0.3-2.4,0.8l-0.9-1.7c0.9-0.7,2.3-1,3.6-1C507.6,304.3,509.1,305.5,509.1,308.1z
						 M506.7,310.2l0-0.9l-1.7,0c-1.1,0-1.5,0.4-1.5,1c0,0.6,0.5,1,1.4,1C505.7,311.4,506.4,311,506.7,310.2z"/>
				</g>
				<g>
					<path fill="#FFFFFF" d="M525.6,308.1l0,4.8l-2.4,0l0-4.5c0-1.4-0.6-2-1.6-2c-1.1,0-1.9,0.7-1.9,2.2l0,4.2h-2.4l0-4.5
						c0-1.4-0.6-2-1.6-2c-1.1,0-1.9,0.7-1.9,2.2l0,4.2l-2.5,0l0-8.4l2.3,0l0,1c0.6-0.7,1.6-1.1,2.7-1.1c1.2,0,2.2,0.5,2.8,1.4
						c0.7-0.9,1.8-1.4,3-1.4C524.1,304.3,525.6,305.5,525.6,308.1z"/>
				</g>
				<g>
					<path fill="#FFFFFF" d="M526.9,312.1l0.8-1.8c0.8,0.5,1.9,0.8,2.9,0.8c1.1,0,1.6-0.3,1.6-0.8c0-1.4-5.1,0-5.1-3.3
						c0-1.6,1.4-2.7,3.9-2.7c1.2,0,2.4,0.3,3.3,0.7l-0.8,1.7c-0.8-0.5-1.7-0.6-2.4-0.6c-1.1,0-1.6,0.3-1.6,0.8c0,1.4,5.1,0,5.1,3.4
						c0,1.6-1.5,2.7-4,2.7C529.2,313,527.7,312.6,526.9,312.1z"/>
				</g>
			</g>
			<g>
				<g>
					<path fill="#FFFFFF" d="M625.5,307.7c0-3.6,2-5.7,4.7-5.7c2.7,0,4.7,2.1,4.7,5.7c0,3.6-2,5.7-4.7,5.7
						C627.5,313.4,625.5,311.4,625.5,307.7z M632.4,307.7c0-2.5-0.9-3.5-2.2-3.5c-1.3,0-2.1,1-2.1,3.5c0,2.5,0.9,3.5,2.1,3.5
						C631.5,311.3,632.4,310.2,632.4,307.7z"/>
				</g>
				<g>
					<path fill="#FFFFFF" d="M645.2,309.8c0,2.2-1.8,3.7-4.2,3.7c-3,0-4.9-1.9-4.9-5.4c0-3.8,2.3-5.9,5.6-5.9c1.2,0,2.3,0.3,3.1,0.8
						l-0.9,1.9c-0.6-0.4-1.3-0.6-2.1-0.6c-1.8,0-3,1.1-3.1,3.2c0.6-0.6,1.6-1,2.7-1C643.6,306.3,645.2,307.7,645.2,309.8z
						 M642.8,309.9c0-1-0.7-1.6-1.9-1.6c-1.1,0-1.9,0.7-1.9,1.6c0,0.9,0.7,1.6,1.9,1.6C642,311.5,642.8,310.9,642.8,309.9z"/>
				</g>
				<g>
					<path fill="#FFFFFF" d="M650.4,300h2.2l-5.2,14.8h-2.2L650.4,300z"/>
				</g>
				<g>
					<path fill="#FFFFFF" d="M660.7,311.2l0,2.1l-8.3,0l0-1.6l4.2-4c1-0.9,1.1-1.5,1.1-2c0-0.9-0.6-1.4-1.8-1.4
						c-0.9,0-1.7,0.4-2.3,1.1l-1.9-1.2c0.8-1.2,2.4-2,4.4-2c2.5,0,4.1,1.3,4.1,3.3c0,1.1-0.3,2-1.8,3.5l-2.5,2.4L660.7,311.2z"/>
				</g>
				<g>
					<path fill="#FFFFFF" d="M671.6,310.9l-1.8,0l0,2.3l-2.5,0v-2.3l-5.9,0l0-1.7l5.2-7l2.7,0l-4.8,6.6l3,0v-2.1l2.4,0l0,2.1l1.8,0
						L671.6,310.9z"/>
				</g>
			</g>
			<g>
				<g>
					<g>
						<path fill="#A6D15A" d="M625.6,215.8c-1.9-8-9.8-13.1-18.1-12.5c-2.6,0.2-5.1,0.7-7.3,1.7c-5.7,2.5-9.7,9.3-7.8,15.3
							c1.5,4.9,6.3,8,11,10c4.9,2.1,10.7,3.5,15.5,1.3c4.7-2.2,7.4-7.6,7.1-12.7C625.9,217.8,625.8,216.8,625.6,215.8z"/>
					</g>
				</g>
			</g>
		</g>
	</g>
	<g>
		<g>
			<g>
				<g>
					<g>
						<path fill="#905B3C" d="M855.8,729.6c0,0-0.1-10.6-0.6-10.7l-21.8,4.8c-0.2,1.4-3,18.8-2.5,20.4l24.5,6.8
							C855.4,751,855.8,730.2,855.8,729.6z"/>
					</g>
				</g>
				<g>
					<g>
						<g>
							<g>
								<g>
									<g>
										<g>
											<path fill="#805F4E" d="M855.8,749.4c0,0,0.1-0.2,0.1-0.5c0.3-2.4,0.1-12.7-1.2-13.2c-1.4-0.5-5,0.3-5.2,1.7
												c-0.2,1.4,0.6,13,0.6,13s0.2,1.8,3.3,2.3C855.3,753,855.8,749.4,855.8,749.4z"/>
										</g>
									</g>
								</g>
								<g>
									<g>
										<g>
											<path fill="#905B3C" d="M849.6,753.1c0,0,0.1-0.2,0.1-0.5c0.3-2.4,0.1-12.7-1.2-13.2c-1.4-0.5-5,0.3-5.2,1.7
												c-0.2,1.4,0.6,13,0.6,13s0.2,1.8,3.3,2.3C849.1,756.8,849.6,753.1,849.6,753.1z"/>
										</g>
									</g>
								</g>
								<g>
									<g>
										<g>
											<path fill="#805F4E" d="M843.5,755c0,0,0.1-0.2,0.1-0.5c0.3-2.4,0.1-12.7-1.2-13.2c-1.4-0.5-5,0.3-5.2,1.7
												c-0.2,1.4,0.6,13,0.6,13s0.2,1.8,3.3,2.3C843.1,758.6,843.5,755,843.5,755z"/>
										</g>
									</g>
								</g>
								<g>
									<g>
										<g>
											<path fill="#805F4E" d="M837.5,756.8c0,0,0.1-0.2,0.1-0.5c0.3-2.4,0.1-12.7-1.2-13.2c-1.4-0.5-5,0.3-5.2,1.7
												c-0.2,1.4,0.6,13,0.6,13s0.2,1.8,3.3,2.3C837,760.4,837.5,756.8,837.5,756.8z"/>
										</g>
									</g>
								</g>
								<g>
									<g>
										<g>
											<g>
												<path fill="#5C4438" d="M849.5,740.5c0.2,0,0.4,2.3,0.5,5c0.1,2.8,0,5-0.2,5c-0.2,0-0.4-2.3-0.5-5
													C849.2,742.7,849.3,740.5,849.5,740.5z"/>
											</g>
										</g>
									</g>
								</g>
								<g>
									<g>
										<g>
											<g>
												<path fill="#5C4438" d="M843.4,740.5c0.2,0,0.4,3.2,0.6,7.2c0.1,4,0.1,7.2-0.1,7.2c-0.2,0-0.4-3.2-0.6-7.2
													C843.2,743.7,843.2,740.5,843.4,740.5z"/>
											</g>
										</g>
									</g>
								</g>
								<g opacity="0.78">
									<g>
										<g>
											<g>
												<path fill="#5C4438" d="M837.2,741c0.2,0,0.4,3.2,0.6,7.2c0.1,4,0.1,7.2-0.1,7.2c-0.2,0-0.4-3.2-0.6-7.2
													C837,744.2,837,741,837.2,741z"/>
											</g>
										</g>
									</g>
								</g>
							</g>
						</g>
						<g>
							<g>
								<path fill="#805F4E" d="M833.3,724.4c0,0-8.6,19.6-7.4,20.8c1.3,1.2,5.3,3.1,5.3,3.1L833.3,724.4z"/>
							</g>
						</g>
					</g>
				</g>
			</g>
		</g>
		<g>
			<g>
				<g>
					<g>
						<g>
							<g>
								<g>
									<g>
										<g>
											<g>
												<g>
													<g>
														<g>
															<g>
																<g>
																	<g>
																		<g>
																			<path fill="#905B3C" d="M785.6,461.8l-6.3,73.2c0.5,4.7-0.6,7.7-1.6,9.4c-5,8.3-20.7,10.7-38.7,4.1
																				c-1.5-6.5-1.5-11.8-1.2-15.6c0,0,0.4-4.9,5-21.7l0,0c0,0-15.3-2.4-15.4-17.6c-0.1-7.4,1-22.7,2.1-36.5
																				c1.2-15.3,14.5-26.8,29.8-25.9h0C775,432.2,787,446,785.6,461.8z"/>
																		</g>
																	</g>
																</g>
															</g>
														</g>
													</g>
												</g>
											</g>
										</g>
									</g>
								</g>
							</g>
							<g>
								<g>
									<g>
										<g>
											<g>
												<g>
													<g>
														<g>
															<g>
																<g>
																	<g>
																		<g>
																			<path fill="#6C5043" d="M742.7,511.1c0,0,9.6,0.8,19.9-5.7c0,0-4.7,11-19.9,9.6L742.7,511.1z"/>
																		</g>
																	</g>
																</g>
															</g>
														</g>
													</g>
												</g>
											</g>
										</g>
									</g>
								</g>
							</g>
						</g>
					</g>
				</g>
				<g>
					<g>
						<g>
							<g>
								<g>
									<g>
										<g>
											<g>
												<g>
													<g>
														<g>
															<g>
																<g>
																	<g>
																		<g>
																			<g>
																				<g>
																					<g>
																						<path fill="#0D5007" d="M733.4,467.8c0,1.2,0.9,2.1,2.1,2.2c1.2,0.1,2.2-0.8,2.2-2c0-1.1-0.9-2.1-2.1-2.2
																							C734.5,465.8,733.5,466.7,733.4,467.8z"/>
																					</g>
																				</g>
																			</g>
																		</g>
																	</g>
																</g>
															</g>
														</g>
													</g>
												</g>
											</g>
										</g>
										<g>
											<g>
												<g>
													<g>
														<g>
															<g>
																<g>
																	<g>
																		<g>
																			<g>
																				<g>
																					<g>
																						<g>
																							<path fill="#0D5007" d="M732.6,464.8c0.3,0.3,1.9-0.9,4.3-0.9c2.3,0,4.1,1.2,4.3,0.9
																								c0.1-0.1-0.2-0.6-0.9-1.2c-0.7-0.5-2-1.1-3.5-1.1c-1.5,0-2.7,0.5-3.4,1.1
																								C732.8,464.2,732.5,464.7,732.6,464.8z"/>
																						</g>
																					</g>
																				</g>
																			</g>
																		</g>
																	</g>
																</g>
															</g>
														</g>
													</g>
												</g>
											</g>
										</g>
									</g>
									<g>
										<g>
											<g>
												<g>
													<g>
														<g>
															<g>
																<g>
																	<g>
																		<g>
																			<g>
																				<g>
																					<g>
																						<path fill="#0D5007" d="M756.5,467.8c0,1.1,0.9,2.1,2.1,2.2c1.2,0.1,2.2-0.8,2.2-2c0-1.2-0.9-2.1-2.1-2.2
																							C757.6,465.8,756.6,466.7,756.5,467.8z"/>
																					</g>
																				</g>
																			</g>
																		</g>
																	</g>
																</g>
															</g>
														</g>
													</g>
												</g>
											</g>
										</g>
										<g>
											<g>
												<g>
													<g>
														<g>
															<g>
																<g>
																	<g>
																		<g>
																			<g>
																				<g>
																					<g>
																						<g>
																							<path fill="#0D5007" d="M755.7,465.3c0.3,0.3,1.9-0.9,4.3-0.9c2.3,0,4.1,1.2,4.3,0.9
																								c0.1-0.1-0.1-0.6-0.9-1.2c-0.7-0.5-2-1.1-3.5-1.1c-1.5,0-2.7,0.5-3.4,1.1
																								C755.8,464.6,755.5,465.1,755.7,465.3z"/>
																						</g>
																					</g>
																				</g>
																			</g>
																		</g>
																	</g>
																</g>
															</g>
														</g>
													</g>
												</g>
											</g>
										</g>
									</g>
									<g>
										<g>
											<g>
												<g>
													<g>
														<g>
															<g>
																<g>
																	<g>
																		<g>
																			<g>
																				<g>
																					<g>
																						<path fill="#0D5007" d="M747.2,482.6c0-0.1-1.4-0.4-3.8-0.7c-0.6-0.1-1.2-0.2-1.3-0.6
																							c-0.1-0.4,0.1-1.1,0.4-1.8c0.6-1.4,1.2-3,1.8-4.6c2.5-6.5,4.2-11.8,4-11.9c-0.3-0.1-2.5,5.1-4.9,11.6
																							c-0.6,1.6-1.2,3.1-1.7,4.6c-0.2,0.7-0.6,1.5-0.3,2.3c0.2,0.4,0.6,0.8,1,0.9c0.4,0.1,0.7,0.1,1,0.1
																							C745.7,482.8,747.2,482.8,747.2,482.6z"/>
																					</g>
																				</g>
																			</g>
																		</g>
																	</g>
																</g>
															</g>
														</g>
													</g>
												</g>
											</g>
										</g>
									</g>
									<g>
										<g>
											<g>
												<g>
													<g>
														<g>
															<g>
																<g>
																	<g>
																		<g>
																			<g>
																				<g>
																					<g>
																						<path fill="#0D5007" d="M754.1,484.3c-0.4,0-0.4,2.5-2.6,4.3c-2.2,1.8-4.9,1.5-4.9,1.9c0,0.2,0.6,0.5,1.7,0.5
																							c-7-0.2,2.4,0,4.1-1.4c1.3-1.1,1.9-2.6,2-3.6C754.5,484.9,754.2,484.3,754.1,484.3z"/>
																					</g>
																				</g>
																			</g>
																		</g>
																	</g>
																</g>
															</g>
														</g>
													</g>
												</g>
											</g>
										</g>
									</g>
								</g>
							</g>
						</g>
						<g>
							<g>
								<g>
									<g>
										<g>
											<g>
												<g>
													<g>
														<g>
															<g>
																<g>
																	<g>
																		<path fill="#0D5007" d="M755.1,456.1c0.2,0.6,2.6,0.3,5.3,0.7c2.8,0.3,5,1.1,5.3,0.5c0.2-0.3-0.2-0.9-1.1-1.5
																			c-0.9-0.6-2.3-1.2-4-1.4c-1.7-0.2-3.2,0.1-4.2,0.5C755.5,455.3,755,455.8,755.1,456.1z"/>
																	</g>
																</g>
															</g>
														</g>
													</g>
												</g>
											</g>
										</g>
									</g>
								</g>
							</g>
						</g>
						<g>
							<g>
								<g>
									<g>
										<g>
											<g>
												<g>
													<g>
														<g>
															<g>
																<g>
																	<g>
																		<path fill="#0D5007" d="M733.5,458c0.4,0.5,2,0,4,0c1.9-0.1,3.6,0.4,4-0.2c0.2-0.3-0.1-0.8-0.8-1.3
																			c-0.7-0.5-1.9-0.9-3.2-0.9c-1.3,0-2.5,0.5-3.2,1.1C733.5,457.2,733.3,457.8,733.5,458z"/>
																	</g>
																</g>
															</g>
														</g>
													</g>
												</g>
											</g>
										</g>
									</g>
								</g>
							</g>
						</g>
					</g>
				</g>
			</g>
			<g>
				<g>
					<g>
						<path fill="#0D5007" d="M788.9,452.4c-0.9,7.4-2.9,16.8-3.5,24.4c-0.1,0.7-0.1,1.4-0.5,2c-1.1,1.4-3.7,4.6-5,3.3
							c-3.2-3-4.5-11.4-5.1-15.7c-0.6-4.3-0.5-8.8-1.1-13.1c0-0.1,0-0.2,0-0.3c-0.4-3.1-2-5.8-4.4-7.7c-1-0.8-1.8-0.9-1.8-1
							c0.1-0.2,17.2,5.1,16.9,7c-0.5,2.5-32.3-0.2-40-1.1c-0.8-0.1-1.7-0.2-3-0.1c-7,0.6-10.5,6.8-12.7,5.6c-1.1-0.6-1-2.7-1-3.9
							c0.1-3,1.7-5.2,2.4-6.1c15-19.4,30.4-19.2,30.4-19.2C771.6,426.6,791.3,432.5,788.9,452.4z"/>
					</g>
				</g>
			</g>
			<g>
				<g>
					<g>
						<g>
							<g>
								<g>
									<g>
										<g>
											<g>
												<g>
													<g>
														<g>
															<g>
																<path fill="#805F4E" d="M780.5,468.7c0.3-0.1,10.5-3.1,10.1,7.3c-0.3,10.4-10.7,7.9-10.7,7.6
																	C779.9,483.4,780.5,468.7,780.5,468.7z"/>
															</g>
														</g>
													</g>
												</g>
											</g>
										</g>
									</g>
								</g>
							</g>
						</g>
					</g>
				</g>
				<g>
					<g>
						<g>
							<g>
								<g>
									<g>
										<g>
											<g>
												<g>
													<g>
														<g>
															<g>
																<g>
																	<path fill="#6C5043" d="M783.2,479.9c0,0,0.2,0.1,0.5,0.3c0.3,0.1,0.8,0.3,1.4,0.1c1.1-0.4,2.1-2.1,2.2-4
																		c0.1-0.9-0.1-1.9-0.4-2.6c-0.3-0.8-0.8-1.3-1.3-1.4c-0.5-0.1-1,0.2-1.1,0.5c-0.1,0.3-0.1,0.5-0.1,0.5
																		c0,0-0.2-0.2-0.1-0.6c0-0.2,0.2-0.4,0.4-0.6c0.3-0.2,0.6-0.3,1-0.2c0.8,0.1,1.5,0.8,1.8,1.7
																		c0.4,0.8,0.6,1.9,0.5,2.9c-0.1,2.1-1.3,4-2.8,4.4c-0.7,0.2-1.3-0.1-1.7-0.3C783.2,480.1,783.2,479.9,783.2,479.9z"
																		/>
																</g>
															</g>
														</g>
													</g>
												</g>
											</g>
										</g>
									</g>
								</g>
							</g>
						</g>
					</g>
				</g>
			</g>
			<g>
				<g>
					<path fill="#13A031" d="M788.7,453.1c0.1,0.2-3.1,1.9-7.5,2c-4.4,0.1-7.6-1.5-7.5-1.7c0.1-0.2,3.3,1,7.5,0.9
						C785.5,454.2,788.7,452.9,788.7,453.1z"/>
				</g>
			</g>
			<g>
				<g>
					<path fill="#13A031" d="M788.4,456.1c0.1,0.2-2.9,1.9-7.1,2c-4.2,0.1-7.3-1.6-7.2-1.7c0.1-0.2,3.2,1,7.2,0.9
						C785.2,457.2,788.3,455.9,788.4,456.1z"/>
				</g>
			</g>
		</g>
		<g>
			<g>
				<g>
					<g>
						<g>
							<g>
								<g>
									<g>
										<path fill="#051903" d="M715.8,975.6l6.8,31.2c0,0-29.4,17.4-28.7,23.3l61-11l-8.6-49L715.8,975.6z"/>
									</g>
								</g>
							</g>
						</g>
					</g>
				</g>
				<g>
					<g>
						<g>
							<g>
								<g>
									<g>
										<path fill="#13A031" d="M754.8,1019l-1.1-4.9l-58.1,12.3c0,0-2.5,1.7-1.9,3.5L754.8,1019z"/>
									</g>
								</g>
							</g>
						</g>
					</g>
				</g>
			</g>
		</g>
		<g>
			<g>
				<g>
					<g>
						<g>
							<g>
								<g>
									<g>
										<path fill="#0D5007" d="M785.2,979l1,31.9c0,0-32.1,11.7-32.5,17.7l61.9,0.3l0.5-49.8L785.2,979z"/>
									</g>
								</g>
							</g>
						</g>
					</g>
				</g>
				<g>
					<g>
						<g>
							<g>
								<g>
									<g>
										<path fill="#13A031" d="M815.6,1028.8l-0.1-5l-59.3,1.6c0,0-2.8,1.2-2.5,3.1L815.6,1028.8z"/>
									</g>
								</g>
							</g>
						</g>
					</g>
				</g>
			</g>
		</g>
		<g>
			<g>
				<g>
					<g>
						<path fill="#A6D15A" d="M712.5,1002.3c0,0-31.8-155.8-31.8-158.9l56.7-30l22,182.8L712.5,1002.3z"/>
					</g>
				</g>
			</g>
			<g>
				<g>
					<g>
						<path fill="#A6D15A" d="M783.9,1007.5l-43.9-270v-58.2l59.9,5.6c0.8,2.3,20.4,323,20.4,323l-6.2-0.4H783.9"/>
					</g>
				</g>
			</g>
			<g>
				<g>
					<g>
						<polygon fill="#0D5007" points="705.6,675.2 680.7,843.4 736.3,830 759,680.7 						"/>
					</g>
				</g>
			</g>
			<g>
				<g>
					<g>
						<g>
							<path fill="#13A031" d="M757,689.5c0,0,0,0.3,0.1,0.8c0.1,0.6,0.1,1.4,0.3,2.4c0.2,2.2,0.6,5.3,1.1,9.3
								c0.9,8,2.4,19.7,4.3,34.1c3.7,28.7,9.3,68.4,15.4,112.2c3,21.9,5.8,42.8,8.1,61.8c0.6,4.8,1.1,9.4,1.8,13.9
								c0.7,4.5,1.4,8.8,2,13c1.3,8.4,2.5,16.3,3.6,23.4c2.2,14.3,3.9,25.9,5,33.9c0.6,4,1,7.1,1.2,9.2c0.1,1.1,0.2,1.9,0.2,2.4
								c0,0.3,0,0.5,0,0.6c0,0.2-0.1,0-0.1,0c0,0,0,0,0,0c0,0.1,0.1,0,0.1-0.1c0-0.1,0-0.3,0-0.6c0-0.5-0.1-1.4-0.2-2.4
								c-0.2-2.1-0.6-5.3-1.1-9.3c-1-8-2.6-19.7-4.7-34c-1.1-7.2-2.2-15-3.5-23.4c-0.6-4.2-1.3-8.6-2-13.1
								c-0.7-4.5-1.1-9.1-1.7-13.9c-2.3-19-5.1-39.9-8.1-61.8c-6-43.8-11.8-83.4-15.6-112.1c-1.9-14.3-3.4-26-4.5-34
								c-0.5-4-0.9-7.1-1.2-9.3c-0.1-1-0.3-1.8-0.3-2.4C757.1,689.8,757,689.5,757,689.5z"/>
						</g>
					</g>
				</g>
			</g>
			<g>
				<g>
					<g>
						<g>
							<path fill="#13A031" d="M723.6,1000.9c0,0,0-0.3-0.1-0.8c-0.1-0.6-0.2-1.3-0.4-2.3c-0.4-2.1-0.9-5.1-1.5-9
								c-1.4-7.8-3.3-19-5.8-32.9c-5-27.8-11.8-66.2-19.3-108.6c-0.6-2.6-0.7-5.3-0.5-7.9c0.3-2.6,0.8-5.2,1.2-7.8
								c0.8-5.2,1.6-10.3,2.4-15.3c1.6-10,3.1-19.7,4.7-28.9c3.1-18.4,6-35,8.7-48.8c2.6-13.9,5-25,6.7-32.7
								c0.8-3.9,1.6-6.8,2.1-8.8c0.2-1,0.4-1.8,0.5-2.3c0.1-0.5,0.2-0.8,0.2-0.8s-0.1,0.3-0.2,0.8c-0.1,0.5-0.3,1.3-0.6,2.3
								c-0.5,2-1.3,5-2.2,8.8c-1.9,7.7-4.3,18.8-7,32.7c-2.7,13.9-5.7,30.4-8.8,48.8c-1.6,9.2-3.1,18.9-4.7,28.9
								c-0.8,5-1.6,10.1-2.4,15.3c-0.4,2.6-0.8,5.2-1.2,7.9c-0.3,2.7-0.1,5.4,0.5,8.1c7.6,42.4,14.5,80.7,19.5,108.5
								c2.5,13.9,4.6,25.1,6,32.9c0.7,3.9,1.3,6.9,1.7,8.9c0.2,1,0.3,1.8,0.5,2.3C723.5,1000.6,723.6,1000.9,723.6,1000.9z"/>
						</g>
					</g>
				</g>
			</g>
			<g>
				<g>
					<g>
						<g>
							<path fill="#13A031" d="M740.1,735.7c-0.2,0,2.4,17.5,5.8,39c3.4,21.5,6.3,38.9,6.5,38.8c0.2,0-2.4-17.5-5.8-39
								C743.2,753,740.3,735.6,740.1,735.7z"/>
						</g>
					</g>
				</g>
			</g>
			<g>
				<g>
					<g>
						<g>
							<path fill="#13A031" d="M783.4,1007c0,0.1,0.5,0.1,1.4,0.2c0.9,0.1,2.3,0.2,3.9,0.4c3.3,0.3,7.9,0.5,13,0.6
								c5.1,0.1,9.7,0,13.1-0.2c1.7-0.1,3-0.2,4-0.2c0.9-0.1,1.4-0.1,1.4-0.2c0-0.1-2.1-0.1-5.4-0.1c-3.3,0-7.9,0-13-0.1
								c-5.1-0.1-9.7-0.2-13-0.4C785.5,1007,783.4,1006.9,783.4,1007z"/>
						</g>
					</g>
				</g>
			</g>
			<g>
				<g>
					<g>
						<g>
							<path fill="#13A031" d="M712.5,1002.3c0,0.1,0.7,0,1.9-0.1c1.3-0.1,3-0.3,5-0.5c4.3-0.5,10.1-1.2,16.6-2
								c6.5-0.8,12.3-1.6,16.6-2.3c2-0.3,3.7-0.6,5-0.8c1.2-0.2,1.8-0.3,1.8-0.4c0-0.1-0.7,0-1.9,0.1c-1.2,0.1-2.9,0.3-5,0.5
								c-4.3,0.5-10.1,1.2-16.6,2c-6.5,0.8-12.3,1.6-16.6,2.3c-2,0.3-3.7,0.6-5,0.8C713.1,1002.1,712.5,1002.3,712.5,1002.3z"/>
						</g>
					</g>
				</g>
			</g>
		</g>
		<g>
			<g>
				<g>
					<g>
						<path fill="#99BA52" d="M629,575.8l35.8,27.2c0,0,33.3-56.7,36.2-60.3c2.9-3.5,10.4-7.3,10.4-7.3l-4.1,72.8
							c0,0-18,45.9-42.7,43.4c-18.9-1.9-51.6-51.8-51.6-51.8L629,575.8z"/>
					</g>
				</g>
				<g opacity="0.2">
					<g>
						<g>
							<path d="M664.1,602.1c-5,7.6-6.3,17.5-3.6,26.2c0.3,0.9,0.6,1.8,1.4,2.3c1.2,0.7,2.8,0,3.6-1.2c0.7-1.2,0.8-2.6,0.9-4
								c0.7,1.3,1.4,2.6,2.6,3.5c1.2,0.8,3,0.9,4-0.1c1.2-1.3,0.5-3.4-0.2-5c-3-6.9-6.1-13.8-9.1-20.7"/>
						</g>
					</g>
				</g>
				<g>
					<g>
						<g>
							<path fill="#0D5007" d="M638,583.9c0.2,0.1-3.4,6.3-8.2,13.7c-4.7,7.4-8.8,13.3-9,13.2c-0.2-0.1,3.4-6.3,8.2-13.7
								C633.7,589.7,637.8,583.8,638,583.9z"/>
						</g>
					</g>
				</g>
				<g>
					<g>
						<g>
							<path fill="#0D5007" d="M628.9,582.9c-0.1-0.1,0.4-0.6,1.2-0.2c0.4,0.2,0.8,0.5,1,1.1c0.1,0.6-0.3,1.4-0.9,1.6
								c-0.6,0.3-1.4,0.3-1.8-0.2c-0.4-0.5-0.5-1-0.4-1.4C628.2,583,628.8,582.9,628.9,582.9c0,0.2-0.3,0.4-0.3,1
								c0,0.5,0.5,1,1.1,0.7c0.6-0.3,0.5-1,0-1.3C629.4,583,629,583.1,628.9,582.9z"/>
						</g>
					</g>
				</g>
				<g>
					<g>
						<g>
							<path fill="#0D5007" d="M664.8,620.2c-0.2,0.1-1.6-3.7-1.6-8.6c-0.1-4.9,1.1-8.7,1.4-8.6c0.3,0.1-0.5,3.9-0.4,8.6
								C664.2,616.4,665.1,620.2,664.8,620.2z"/>
						</g>
					</g>
				</g>
				<g>
					<g>
						<g>
							<path fill="#0D5007" d="M671.7,620c-0.2,0.1-2.6-3.3-4.6-8c-2-4.7-2.9-8.8-2.7-8.9c0.3-0.1,1.6,3.8,3.6,8.5
								C670,616.2,672,619.8,671.7,620z"/>
						</g>
					</g>
				</g>
			</g>
			<g>
				<g>
					<g>
						<path fill="#F3F4F2" d="M736.8,534.8c-0.3-0.7-1-2.8-2.9-3.6c-1.3-0.5-2.6-0.2-3.5,0.2c-0.4,0-0.8,0-1.2,0l-17.7,4L701,691.2
							c-0.1,2,0.4,3.9,1.4,5.7l95,3.7l3.9,1.6c3.4-2.1,1.3-10.8,1.3-14.9l1.2-77.2l18.8-61.7c-5.5-2.9-12-5.8-19.6-8.4
							c-9.3-3.2-17.8-5-25-6c-3.9,3.4-21.7,18.5-29.8,13.6C746.2,546.3,739,540.3,736.8,534.8z"/>
					</g>
				</g>
				<g>
					<g>
						<g>
							<path fill="#A6D15A" d="M855.9,723.9l-25.6,1.3l-0.1-73.5l-26.5-41.6l18.8-61.7c3.9,1.5,33,74.8,40.5,94.7
								c1.1,2.9,1.5,5.9,1.4,9L855.9,723.9z"/>
						</g>
					</g>
				</g>
				<g>
					<g>
						<g>
							<path fill="#0D5007" d="M711.4,567.6c0.3,0-1,15.1-2.8,33.7c-1.8,18.6-3.5,33.6-3.8,33.6c-0.3,0,1-15.1,2.8-33.7
								C709.4,582.6,711.1,567.5,711.4,567.6z"/>
						</g>
					</g>
				</g>
				<g>
					<g>
						<g>
							<path fill="#0D5007" d="M818.6,550.6c0.1,0.3-5.4,1.8-11.8,4.6c-6.4,2.8-11.2,5.9-11.4,5.7c-0.1-0.1,1-1,3-2.3
								c1.9-1.3,4.7-2.8,8-4.3c3.2-1.4,6.3-2.5,8.5-3.1C817.1,550.7,818.5,550.5,818.6,550.6z"/>
						</g>
					</g>
				</g>
				<g>
					<g>
						<g>
							<path fill="#0D5007" d="M857.3,712.6c0,0.3-6.1,0.2-13.6-0.2c-7.5-0.4-13.5-0.9-13.5-1.1c0-0.3,6.1-0.2,13.6,0.2
								C851.3,711.8,857.3,712.3,857.3,712.6z"/>
						</g>
					</g>
				</g>
				<g>
					<g>
						<g>
							<path fill="#0D5007" d="M834.6,715.5c0.1,0.1,0,0.4,0.1,0.7c0.1,0.4,0.4,0.5,0.8,0.3c0.3-0.3,0.2-0.6-0.1-0.8
								C835,715.4,834.8,715.5,834.6,715.5c0-0.1,0.2-0.6,0.9-0.5c0.3,0.1,0.7,0.2,0.9,0.7c0.2,0.5,0,1.1-0.4,1.5
								c-0.4,0.3-1.1,0.4-1.5,0.1c-0.4-0.3-0.5-0.8-0.5-1.1C834,715.5,834.6,715.4,834.6,715.5z"/>
						</g>
					</g>
				</g>
				<g opacity="0.2">
					<g>
						<g>
							<path d="M804.2,609.9c-2.8-5-5.6-10.1-8.3-15.1c-3.3,26.5-1.4,53.7,5.5,79.5c0.9-21.4,1.7-42.7,2.6-64.1"/>
						</g>
					</g>
				</g>
				<g>
					<g>
						<g>
							<path fill="#0D5007" d="M761.8,582.2c0,0,0.5-0.1,1.5-0.1c1.2,0,2.6-0.1,4.5-0.1c3.9-0.1,9.4-0.2,16.2-0.2l0.5,0l0,0.5
								c-0.4,5.9-0.9,12.7-1.5,20l0,0.3l-0.2,0.1c-0.3,0.2-0.7,0.3-1,0.5c-3.8,2-7.4,3.9-10.8,5.7l-0.3,0.1l-0.2-0.2
								c-3.6-3-7-5.7-10-8.2l-0.2-0.1l0-0.2c0.5-5.4,0.9-9.9,1.2-13.2c0.1-1.4,0.3-2.6,0.4-3.6C761.7,582.6,761.8,582.1,761.8,582.2
								c0,0,0,0.5,0,1.4c0,1-0.1,2.2-0.2,3.7c-0.2,3.3-0.4,7.7-0.7,13l-0.1-0.3c3,2.4,6.4,5.2,10.1,8.1l-0.5,0
								c3.4-1.8,7-3.7,10.8-5.7c0.3-0.2,0.7-0.4,1-0.5l-0.3,0.4c0.6-7.3,1.1-14.1,1.6-19.9l0.4,0.5c-6.5,0-12-0.1-15.9-0.2
								c-1.8,0-3.4-0.1-4.5-0.1C762.4,582.2,761.8,582.2,761.8,582.2z"/>
						</g>
					</g>
				</g>
				<g>
					<g>
						<g>
							<path fill="#0D5007" d="M714.8,697.6c0,0.3-2-0.1-3.3-2c-1.3-1.9-0.9-3.9-0.6-3.8c0.3,0,0.3,1.7,1.4,3.3
								C713.4,696.7,714.9,697.4,714.8,697.6z"/>
						</g>
					</g>
				</g>
				<g>
					<g>
						<g>
							<path fill="#0D5007" d="M717.3,696.6c-0.2,0.2-2-1.5-2.7-4.4c-0.7-2.9,0-5.2,0.3-5.2c0.3,0,0,2.3,0.7,4.9
								C716.2,694.6,717.5,696.4,717.3,696.6z"/>
						</g>
					</g>
				</g>
				<g>
					<g>
						<g>
							<path fill="#0D5007" d="M789,685.9c0.2,0,0.5,3.7-1.5,7.8c-1.9,4.1-5,6.4-5.1,6.1c-0.2-0.2,2.4-2.7,4.2-6.6
								C788.5,689.4,788.7,685.9,789,685.9z"/>
						</g>
					</g>
				</g>
			</g>
		</g>
		<g>
			<path fill="#905B3C" d="M627,578.8c0,0-28.9-21.9-33-23.4c-6.7-2.4-8.3-1.8-8.3-1.8l15.9,17.1c0,0-16.8,5.7-18,6.3
				c-1.4,0.7-1.8,4.4,2.3,4.4c3.4,0,19.4,0.4,19.4,0.4l13.3,9.7L627,578.8z"/>
		</g>
	</g>
	<path fill="#FFFFFF" d="M820.3,903.9c-18.5-4.3-43.9-8.1-74-6.9c-27.2,1.1-50,6-67.1,10.9c-2-23.6-3.3-48.2-3.6-73.7
		c-1.6-108.4,13.7-204.5,34.3-284.7c30.4-1.7,60.8-3.4,91.2-5.1C807.5,664.2,813.9,784,820.3,903.9z"/>
	<path fill="#F3F4F2" d="M781.6,568.5h-67.3c6.5-12.4,13.1-24.8,19.6-37.2c6.1,9,16.3,14.1,26.5,13.1c11-1.1,17.6-8.8,19-10.5
		C780.1,545.5,780.8,557,781.6,568.5z"/>
	<path fill="#A6D15A" d="M750.7,678.4l-15.8-1.3c2.5-45.8,5-91.5,7.5-137.3c2.1,1.3,5.4,3,9.7,3.9c4.5,1,8.3,0.7,10.7,0.4
		C758.8,588.8,754.7,633.6,750.7,678.4z"/>
	<rect x="774.5" y="579.4" fill="#A6D15A" width="22.9" height="5.1"/>
	<path fill="#A6D15A" d="M722.5,534.4c-2.3,4.1,7.2,17.7,20.4,22.4c18.4,6.5,36.3-6.9,38.7-8.8c5.2-4,8.5-8.3,10.5-11.3l-15.8-3.6
		c-2.2,2.7-8.5,9.7-18,10.7c-2.7,0.3-4.9,0-6.1-0.2c0,0-8.9-1.7-14.4-10.7c-0.4-0.6-1.3-2.1-0.7-2.9c0.2-0.3,0.7-0.4,1-0.5
		c-2.5,0.3-6.2,1-10.5,2.4C724.5,533,722.9,533.6,722.5,534.4z"/>
	<path fill="#A6D15A" d="M618.1,606l-5.5-5.5c1.9-3.8,4.2-8,7.1-12.3c2.8-4.3,5.7-8,8.4-11.2c2,1.6,3.9,3.1,5.9,4.7
		c-3,2.9-6.4,6.8-9.7,11.9C621.5,598.1,619.5,602.4,618.1,606z"/>
	<path fill="#A6D15A" d="M855.9,723.9c-8.5,0.4-17.1,0.9-25.6,1.3c-0.1-1.3-0.2-2.8-0.1-4.4c0-1.3,0.1-2.5,0.2-3.6
		c2.7,0.8,6.1,1.6,10.1,1.7c7,0.3,12.6-1.3,16.1-2.6C856.4,718.9,856.2,721.4,855.9,723.9z"/>
	<path fill="#A6D15A" d="M791.6,464.1c-7.3-5.3-21-13.5-38.7-13.6c-6.8-0.1-22.3-0.2-28.2,9.5c-1.4,2.3-2,4.7-2.2,6.3
		c-2-7.6-3.8-18.3-2.4-30.9c0.5-4.8,1.4-9.1,2.4-12.9c5.1-3.2,16.5-9.2,32.1-9.7c18.2-0.6,31.4,6.6,36.5,9.7
		c0.2,6.8,0.4,13.8,0.5,20.9C791.6,450.5,791.6,457.4,791.6,464.1z"/>
	<path fill="#609633" d="M722.5,466.3c0.4,1.4,2,1.7,4.8,3.5c0.6,0.4,1.1,0.7,1.4,0.9c0-2.3,0.1-4.8,0.3-7.5
		c0.2-3.1,0.6-5.9,1.1-8.5c-1.4,0.7-3,1.8-4.5,3.5c-0.6,0.7-3,3.5-3.2,7C722.4,465.9,722.4,466.2,722.5,466.3z"/>
	<polyline fill="#609633" points="788.3,469.6 791.6,464.1 787.4,461.5 786,468.5 	"/>
	<path fill="#F4E503" d="M752.5,415h-1.3c-0.6,0-1.1-0.5-1.1-1.1v-4.6c0-0.6,0.5-1.1,1.1-1.1h1.3c0.6,0,1.1,0.5,1.1,1.1v4.6
		C753.6,414.5,753.1,415,752.5,415z"/>
	<path fill="none" stroke="#192E36" stroke-width="2.8346" stroke-miterlimit="10" d="M744.5,498c0.4,4.2,0.7,8.4,1.1,12.6
		c-0.4-9.1-0.7-13.7-0.9-13.7C744.6,496.9,744.5,497.2,744.5,498z"/>
	<path fill="#0D5007" d="M726.8,468.9c-0.1-0.7,1.1-1.8,1.6-1.6c2,0.7-7.6,18-1.1,31.6c1.3,2.6,4.4,7.8,10.2,11.3
		c1,0.6,3.2,1.9,6.1,2.7c7.9,2.1,14.9-1.4,17.5-2.7c17.8-8.8,20.8-31.1,19.7-35.8c-0.2-1-0.5-2-0.5-2c-1-3.1-2.4-5.6-3.6-7.3
		c-0.5,6.3-2.1,15.9-8,25.5c-1,1.7-5,8-12,13c-3.9,2.8-6.7,3.7-9.5,3.8c-2.6,0.1-4.7-0.5-5.8-0.9c-4.5-1.7-6.9-5-7.8-6.4
		c0,0-4.1-5.9-3.3-30C729.1,470,726.9,469.7,726.8,468.9z"/>
	<g>
		<path fill="#FFFFFF" d="M479.5,539.3l-10.5,10.1l-1-1.1l10.5-10.1L479.5,539.3z"/>
		<path fill="#FFFFFF" d="M481.9,553.7c-0.1,0.9-0.5,1.6-1.1,2.2c-0.8,0.8-1.8,1.2-2.9,1.1c-1.1-0.1-2.1-0.7-3.2-1.7l-3.5-3.6
			l10.5-10.1l3.5,3.6c1,1,1.5,2.1,1.6,3c0,1-0.3,1.9-1.1,2.6c-0.7,0.7-1.4,1-2.2,1c-0.8,0-1.5-0.2-2.2-0.6
			C481.8,552,482,552.8,481.9,553.7z M477.8,555.6c0.8,0.1,1.5-0.2,2.1-0.8c0.6-0.6,0.9-1.3,0.9-2.1c-0.1-0.8-0.5-1.6-1.2-2.4
			l-2.3-2.4l-4.1,4l2.3,2.4C476.2,555,477,555.5,477.8,555.6z M478,547.1l2.3,2.4c0.7,0.7,1.4,1.1,2.1,1.2c0.7,0.1,1.4-0.2,2-0.8
			c0.6-0.6,0.9-1.2,0.8-1.9c0-0.7-0.4-1.4-1.2-2.2l-2.3-2.3L478,547.1z"/>
		<path fill="#FFFFFF" d="M499.7,560.7l-10.2,9.9l-1-1l8.6-8.3l-12,4.7l-0.9-0.9l5.1-11.8l-8.5,8.2l-1-1.1l10.2-9.9l1.2,1.2
			l-5.2,12.5l12.6-4.8L499.7,560.7z"/>
	</g>
	<path fill="#FFFFFF" d="M662.9,265.7H462.3c-3.9,0-7-3.1-7-7v-2.5c0-3.9,3.1-7,7-7h200.7c3.9,0,7,3.1,7,7v2.5
		C669.9,262.5,666.8,265.7,662.9,265.7z"/>
	<path fill="#FFFFFF" d="M521.4,294h-66.2c-3.9,0-7-3.1-7-7v-2.5c0-3.9,3.1-7,7-7h66.2c3.9,0,7,3.1,7,7v2.5
		C528.4,290.9,525.3,294,521.4,294z"/>
	<path fill="#FFFFFF" d="M572.1,316.4H456.4c-3.9,0-7-3.1-7-7v-2.5c0-3.9,3.1-7,7-7h115.7c3.9,0,7,3.1,7,7v2.5
		C579.1,313.3,576,316.4,572.1,316.4z"/>
	<g>
		<path fill="#FFFFFF" d="M473.3,214.3v10h-1v-10H473.3z"/>
		<path fill="#FFFFFF" d="M481.5,220c0.4,0.5,0.6,1,0.6,1.6c0,0.8-0.3,1.5-0.8,1.9c-0.5,0.5-1.3,0.7-2.4,0.7h-3.5v-10h3.4
			c1,0,1.8,0.2,2.3,0.7c0.5,0.4,0.8,1,0.8,1.8c0,0.7-0.2,1.2-0.5,1.6s-0.8,0.6-1.3,0.8C480.6,219.2,481.1,219.5,481.5,220z
			 M476.4,218.8h2.3c0.7,0,1.2-0.2,1.6-0.5s0.5-0.8,0.5-1.3c0-0.6-0.2-1-0.5-1.3c-0.4-0.3-0.9-0.5-1.7-0.5h-2.2V218.8z M480.5,222.9
			c0.4-0.3,0.6-0.8,0.6-1.4c0-0.6-0.2-1.1-0.6-1.4c-0.4-0.4-1-0.5-1.8-0.5h-2.3v3.9h2.3C479.5,223.4,480.1,223.3,480.5,222.9z"/>
		<path fill="#FFFFFF" d="M493.5,214.5v9.8h-1v-8.2l-3.4,8.2h-0.9l-3.4-8.2v8.2h-1v-9.8h1.2l3.7,8.5l3.7-8.5H493.5z"/>
	</g>
</g>
</svg>
