<svg width="70" height="63" viewBox="0 0 70 63" fill="none" xmlns="http://www.w3.org/2000/svg">
<path d="M0.646667 8C0.646667 3.58172 4.22839 0 8.64667 0H61.3533C65.7716 0 69.3533 3.58172 69.3533 8V55C69.3533 59.4183 65.7716 63 61.3533 63H8.64667C4.22839 63 0.646667 59.4183 0.646667 55V8Z" fill="#FDFDFD"/>
<path d="M31.5567 24.5157L31.6627 18.258C31.6627 17.4422 31.9868 16.6599 32.5636 16.083C33.1404 15.5062 33.9228 15.1822 34.7385 15.1822C35.5543 15.1822 36.3367 15.5062 36.9135 16.083C37.4903 16.6599 37.8144 17.4422 37.8144 18.258L37.9204 24.5157L48.5267 29.8188L48.5797 35.1749L37.9204 31.94V38.3038L41.1023 41.4856L41.1023 45.7281L34.7385 42.5463L28.3748 45.7281L28.3748 41.4856L31.5567 38.3038V31.94L20.9504 35.1219V29.8188L31.5567 24.5157Z" fill="#FDFDFD" stroke="#4D7C0F" stroke-width="1.2" stroke-linecap="round" stroke-linejoin="round"/>
</svg>
