<svg width="28" height="28" viewBox="0 0 28 28" fill="none" xmlns="http://www.w3.org/2000/svg">
<path d="M2.975 13.825C3.06693 13.8939 3.17153 13.9441 3.28284 13.9726C3.39415 14.0011 3.50999 14.0075 3.62374 13.9912C3.7375 13.975 3.84693 13.9365 3.94581 13.8779C4.04468 13.8194 4.13106 13.7419 4.2 13.65C4.72977 12.9436 5.41673 12.3703 6.20647 11.9754C6.99621 11.5806 7.86704 11.375 8.75 11.375C9.63296 11.375 10.5038 11.5806 11.2935 11.9754C12.0833 12.3703 12.7702 12.9436 13.3 13.65C13.4394 13.8355 13.6468 13.958 13.8765 13.9906C14.1062 14.0232 14.3395 13.9633 14.525 13.8239C14.5911 13.7747 14.6497 13.7161 14.6989 13.65C15.2287 12.9436 15.9156 12.3703 16.7054 11.9754C17.4951 11.5806 18.366 11.375 19.2489 11.375C20.1319 11.375 21.0027 11.5806 21.7924 11.9754C22.5822 12.3703 23.2691 12.9436 23.7989 13.65C23.9383 13.8357 24.1457 13.9583 24.3755 13.991C24.6054 14.0238 24.8388 13.9638 25.0245 13.8245C25.2101 13.6851 25.3328 13.4776 25.3655 13.2478C25.3982 13.018 25.3383 12.7846 25.1989 12.5989C24.4244 11.5606 23.3916 10.7431 22.2031 10.2277C22.8547 9.63281 23.3111 8.85488 23.5126 7.99597C23.7141 7.13705 23.6513 6.23728 23.3323 5.41474C23.0132 4.5922 22.453 3.88532 21.7251 3.38688C20.9971 2.88843 20.1355 2.6217 19.2533 2.6217C18.371 2.6217 17.5094 2.88843 16.7815 3.38688C16.0536 3.88532 15.4933 4.5922 15.1743 5.41474C14.8553 6.23728 14.7924 7.13705 14.9939 7.99597C15.1954 8.85488 15.6519 9.63281 16.3034 10.2277C15.4453 10.5987 14.6658 11.1299 14.0066 11.7928C13.3473 11.1299 12.5678 10.5987 11.7097 10.2277C12.3612 9.63281 12.8177 8.85488 13.0192 7.99597C13.2207 7.13705 13.1578 6.23728 12.8388 5.41474C12.5198 4.5922 11.9596 3.88532 11.2316 3.38688C10.5037 2.88843 9.64208 2.6217 8.75984 2.6217C7.87761 2.6217 7.01598 2.88843 6.28805 3.38688C5.56011 3.88532 4.99988 4.5922 4.68087 5.41474C4.36186 6.23728 4.29898 7.13705 4.50049 7.99597C4.70199 8.85488 5.15847 9.63281 5.81 10.2277C4.61634 10.7414 3.57842 11.5594 2.8 12.6C2.73106 12.6919 2.68089 12.7965 2.65238 12.9078C2.62386 13.0192 2.61754 13.135 2.63379 13.2487C2.65004 13.3625 2.68854 13.4719 2.74708 13.5708C2.80563 13.6697 2.88307 13.7561 2.975 13.825ZM19.25 4.375C19.7692 4.375 20.2767 4.52895 20.7084 4.81739C21.1401 5.10583 21.4765 5.5158 21.6752 5.99546C21.8739 6.47511 21.9258 7.00291 21.8246 7.51211C21.7233 8.02131 21.4733 8.48904 21.1062 8.85615C20.739 9.22327 20.2713 9.47327 19.7621 9.57456C19.2529 9.67585 18.7251 9.62386 18.2455 9.42518C17.7658 9.2265 17.3558 8.89005 17.0674 8.45837C16.779 8.02669 16.625 7.51918 16.625 7C16.625 6.30381 16.9016 5.63613 17.3938 5.14384C17.8861 4.65156 18.5538 4.375 19.25 4.375ZM8.75 4.375C9.26918 4.375 9.77669 4.52895 10.2084 4.81739C10.6401 5.10583 10.9765 5.5158 11.1752 5.99546C11.3739 6.47511 11.4258 7.00291 11.3246 7.51211C11.2233 8.02131 10.9733 8.48904 10.6062 8.85615C10.239 9.22327 9.77131 9.47327 9.26211 9.57456C8.75291 9.67585 8.22511 9.62386 7.74546 9.42518C7.2658 9.2265 6.85583 8.89005 6.56739 8.45837C6.27895 8.02669 6.125 7.51918 6.125 7C6.125 6.30381 6.40156 5.63613 6.89384 5.14384C7.38613 4.65156 8.05381 4.375 8.75 4.375ZM22.2031 21.6027C22.8547 21.0078 23.3111 20.2299 23.5126 19.371C23.7141 18.512 23.6513 17.6123 23.3323 16.7897C23.0132 15.9672 22.453 15.2603 21.7251 14.7619C20.9971 14.2634 20.1355 13.9967 19.2533 13.9967C18.371 13.9967 17.5094 14.2634 16.7815 14.7619C16.0536 15.2603 15.4933 15.9672 15.1743 16.7897C14.8553 17.6123 14.7924 18.512 14.9939 19.371C15.1954 20.2299 15.6519 21.0078 16.3034 21.6027C15.4453 21.9737 14.6658 22.5049 14.0066 23.1678C13.3473 22.5049 12.5678 21.9737 11.7097 21.6027C12.3612 21.0078 12.8177 20.2299 13.0192 19.371C13.2207 18.512 13.1578 17.6123 12.8388 16.7897C12.5198 15.9672 11.9596 15.2603 11.2316 14.7619C10.5037 14.2634 9.64208 13.9967 8.75984 13.9967C7.87761 13.9967 7.01598 14.2634 6.28805 14.7619C5.56011 15.2603 4.99988 15.9672 4.68087 16.7897C4.36186 17.6123 4.29898 18.512 4.50049 19.371C4.70199 20.2299 5.15847 21.0078 5.81 21.6027C4.61634 22.1164 3.57842 22.9344 2.8 23.975C2.73106 24.0669 2.68089 24.1715 2.65238 24.2828C2.62386 24.3942 2.61754 24.51 2.63379 24.6237C2.65004 24.7375 2.68854 24.8469 2.74708 24.9458C2.80563 25.0447 2.88307 25.1311 2.975 25.2C3.06693 25.2689 3.17153 25.3191 3.28284 25.3476C3.39415 25.3761 3.50999 25.3825 3.62374 25.3662C3.7375 25.35 3.84693 25.3115 3.94581 25.2529C4.04468 25.1944 4.13106 25.1169 4.2 25.025C4.72977 24.3186 5.41673 23.7453 6.20647 23.3504C6.99621 22.9556 7.86704 22.75 8.75 22.75C9.63296 22.75 10.5038 22.9556 11.2935 23.3504C12.0833 23.7453 12.7702 24.3186 13.3 25.025C13.4394 25.2105 13.6468 25.333 13.8765 25.3656C14.1062 25.3982 14.3395 25.3383 14.525 25.1989C14.5911 25.1497 14.6497 25.0911 14.6989 25.025C15.2287 24.3186 15.9156 23.7453 16.7054 23.3504C17.4951 22.9556 18.366 22.75 19.2489 22.75C20.1319 22.75 21.0027 22.9556 21.7924 23.3504C22.5822 23.7453 23.2691 24.3186 23.7989 25.025C23.9383 25.2106 24.1457 25.3333 24.3755 25.366C24.6054 25.3988 24.8388 25.3388 25.0245 25.1995C25.2101 25.0601 25.3328 24.8526 25.3655 24.6228C25.3982 24.393 25.3383 24.1596 25.1989 23.9739C24.4244 22.9356 23.3916 22.1181 22.2031 21.6027ZM8.75 15.75C9.26918 15.75 9.77669 15.904 10.2084 16.1924C10.6401 16.4808 10.9765 16.8908 11.1752 17.3705C11.3739 17.8501 11.4258 18.3779 11.3246 18.8871C11.2233 19.3963 10.9733 19.864 10.6062 20.2312C10.239 20.5983 9.77131 20.8483 9.26211 20.9496C8.75291 21.0508 8.22511 20.9989 7.74546 20.8002C7.2658 20.6015 6.85583 20.265 6.56739 19.8334C6.27895 19.4017 6.125 18.8942 6.125 18.375C6.125 17.6788 6.40156 17.0111 6.89384 16.5188C7.38613 16.0266 8.05381 15.75 8.75 15.75ZM19.25 15.75C19.7692 15.75 20.2767 15.904 20.7084 16.1924C21.1401 16.4808 21.4765 16.8908 21.6752 17.3705C21.8739 17.8501 21.9258 18.3779 21.8246 18.8871C21.7233 19.3963 21.4733 19.864 21.1062 20.2312C20.739 20.5983 20.2713 20.8483 19.7621 20.9496C19.2529 21.0508 18.7251 20.9989 18.2455 20.8002C17.7658 20.6015 17.3558 20.265 17.0674 19.8334C16.779 19.4017 16.625 18.8942 16.625 18.375C16.625 17.6788 16.9016 17.0111 17.3938 16.5188C17.8861 16.0266 18.5538 15.75 19.25 15.75Z" fill="#171717"/>
</svg>
